<?xml version="1.0" standalone="no"?>
<!DOCTYPE svg PUBLIC "-//W3C//DTD SVG 1.1//EN" "http://www.w3.org/Graphics/SVG/1.1/DTD/svg11.dtd" >
<svg>
<metadata>
Created by FontForge 20090914 at Mon Mar  9 12:54:10 2015
 By www-data
The digitally encoded machine readable software for producing the Typefaces licensed to you is copyrighted (c) 2005 Typotheque (Peter Bilak, Graphic and Type design). All rights reserved.
</metadata>
<defs>
<font id="FedraSansStd-Bold" horiz-adv-x="420" >
  <font-face 
    font-family="Fedra Sans Std Bold"
    font-weight="700"
    font-stretch="normal"
    units-per-em="1000"
    panose-1="2 11 8 4 4 0 0 2 0 4"
    ascent="780"
    descent="-220"
    x-height="546"
    cap-height="707"
    bbox="-200 -285 1527 998"
    underline-thickness="50"
    underline-position="-50"
    stemh="77"
    stemv="167"
    unicode-range="U+0020-U+FE69"
  />
<missing-glyph horiz-adv-x="712" 
d="M305 375v27h27v-27h-27zM380 525v27h27v-27h-27zM305 525v27h27v-27h-27zM230 525v27h27v-27h-27zM80 0v27h27v-27h-27zM155 0v27h27v-27h-27zM230 0v27h27v-27h-27zM305 0v27h27v-27h-27zM380 0v27h27v-27h-27zM80 75v27h27v-27h-27zM80 150v27h27v-27h-27zM80 225v27
h27v-27h-27zM80 300v27h27v-27h-27zM80 375v27h27v-27h-27zM80 450v27h27v-27h-27zM80 525v27h27v-27h-27zM80 600v27h27v-27h-27zM80 675v27h27v-27h-27zM155 675v27h27v-27h-27zM230 675v27h27v-27h-27zM305 675v27h27v-27h-27zM380 675v27h27v-27h-27zM455 675v27h27v-27
h-27zM530 675v27h27v-27h-27zM530 0v27h27v-27h-27zM455 0v27h27v-27h-27zM605 0v27h27v-27h-27zM605 675v27h27v-27h-27zM305 300v27h27v-27h-27zM305 150v27h27v-27h-27zM380 375v27h27v-27h-27zM455 375v27h27v-27h-27zM455 450v27h27v-27h-27zM455 525v27h27v-27h-27z
M605 600v27h27v-27h-27zM605 525v27h27v-27h-27zM605 375v27h27v-27h-27zM605 300v27h27v-27h-27zM605 150v27h27v-27h-27zM605 75v27h27v-27h-27zM605 225v27h27v-27h-27zM605 450v27h27v-27h-27z" />
    <glyph glyph-name="f_f" unicode="ff" horiz-adv-x="738" 
d="M86 -189v621h-80v114h81v28c0 169 106 208 220 208c86 0 163 -17 206 -31c40 25 92 31 146 31c40 0 90 -8 129 -21l-32 -129s-45 8 -92 8c-41 0 -59 -23 -59 -66v-28h117v-114h-117v-621h-167v621h-185v-621h-167zM253 546h185v38c0 16 1 31 3 45c-40 8 -71 11 -129 11
c-41 0 -59 -23 -59 -66v-28z" />
    <glyph glyph-name="fi" unicode="fi" horiz-adv-x="679" 
d="M86 -189v620h-80v115h80v26c0 158 108 210 228 210c44 0 77 -5 119 -6c40 0 110 3 152 8l26 -126c-60 -20 -133 -26 -173 -26s-68 5 -126 5c-39 0 -59 -11 -59 -65v-26h351v-545h-167v430h-185v-620h-166z" />
    <glyph glyph-name="fl" unicode="fl" horiz-adv-x="679" 
d="M86 -190v621h-80v115h80v26c0 158 108 210 228 210c44 0 77 -5 119 -6c57 -1 114 4 171 11v-787h-167v632c-40 0 -67 5 -125 5c-39 0 -59 -11 -59 -65v-26h116v-115h-117v-621h-166z" />
    <glyph glyph-name="f_f_i" unicode="ffi" horiz-adv-x="1031" 
d="M86 -189v620h-80v115h81v28c0 169 106 208 220 208c92 0 173 -19 213 -34c41 26 92 37 146 37c44 0 77 -5 120 -6c39 0 109 3 151 8l26 -126c-60 -20 -132 -26 -172 -26c-41 -1 -69 5 -127 5c-39 0 -59 -11 -59 -65v-29h352v-546h-167v431h-185v-620h-167v620h-185v-620
h-167zM253 546h186v29c0 19 1 37 4 53c-41 9 -72 12 -131 12c-41 0 -59 -23 -59 -66v-28z" />
    <glyph glyph-name="f_f_l" unicode="ffl" horiz-adv-x="1025" 
d="M86 -190v622h-80v114h81v28c0 169 106 208 220 208c92 0 173 -19 213 -34c41 26 92 37 146 37c44 0 77 -5 120 -6c57 -1 114 4 171 11v-790h-167v635c-40 0 -68 5 -126 5c-39 0 -59 -11 -59 -65v-29h116v-114h-116v-622h-167v622h-185v-622h-167zM253 546h186v29
c0 19 1 37 4 53c-41 9 -72 12 -131 12c-41 0 -59 -23 -59 -66v-28z" />
    <glyph glyph-name="f_h" unicode="fh" horiz-adv-x="1034" 
d="M86 -189v623h-80v112h80v29c0 158 108 210 228 210c44 0 77 -5 119 -6c57 -1 114 4 171 11v-299c33 25 106 71 179 71c171 0 183 -95 183 -219v-343h-166v329c0 75 -17 88 -73 88c-50 0 -96 -17 -123 -30v-387h-167v635c-40 0 -67 5 -125 5c-39 0 -59 -11 -59 -65v-29
h116v-112h-117v-623h-166z" />
    <glyph glyph-name="f_b" unicode="fb" horiz-adv-x="994" 
d="M671 -11c-113 0 -172 16 -233 36v607c-40 0 -68 5 -126 5c-39 0 -59 -11 -59 -65v-26h116v-115h-117v-621h-166v621h-80v115h80v26c0 158 108 210 228 210c44 0 77 -5 119 -6c57 -1 114 4 171 11v-244c39 12 83 19 111 19c164 0 262 -68 262 -260
c0 -236 -148 -313 -306 -313zM685 438c-31 0 -59 -6 -81 -13v-295c19 -4 43 -11 70 -11c85 0 133 80 133 182c0 103 -33 137 -122 137z" />
    <glyph glyph-name="f_j" unicode="fj" horiz-adv-x="679" 
d="M377 -220c-40 0 -62 7 -108 18l31 133s47 -10 79 -10c42 0 59 14 59 80v113v320h-186v-623h-166v623h-80v112h80v27c0 158 108 210 228 210c44 0 77 -5 119 -6c40 0 110 3 152 8l26 -126c-60 -20 -133 -26 -173 -26s-68 5 -126 5c-39 0 -59 -11 -59 -65v-27h352v-544
c0 -190 -104 -222 -228 -222z" />
    <glyph glyph-name="f_k" unicode="fk" horiz-adv-x="966" 
d="M934 -12c-87 4 -162 14 -232 107l-98 129v-224h-167v635c-40 0 -67 5 -125 5c-39 0 -59 -11 -59 -65v-29h116v-112h-117v-624h-166v624h-80v112h80v29c0 158 108 210 228 210c44 0 77 -5 119 -6c57 -1 115 4 171 11v-449l152 204h179l-199 -251l78 -89
c38 -43 70 -73 139 -91z" />
    <glyph glyph-name="f_f_j" unicode="ffj" horiz-adv-x="1031" 
d="M735 -220c-39 0 -76 7 -109 19l31 129s42 -7 73 -7c42 0 59 14 60 79v431h-185v-620h-167v620h-185v-620h-167v620h-80v115h81v28c0 169 106 208 220 208c92 0 173 -19 213 -34c41 26 92 37 146 37c44 0 77 -5 120 -6c39 0 109 3 151 8l26 -126
c-60 -20 -132 -26 -172 -26c-41 -1 -69 5 -127 5c-39 0 -59 -11 -59 -65v-29h352l-1 -546c-1 -188 -106 -220 -221 -220zM253 546h186v29c0 19 1 37 4 53c-41 9 -72 12 -131 12c-41 0 -59 -23 -59 -66v-28z" />
    <glyph glyph-name="aogonek_j" unicode="&#x105;j" horiz-adv-x="933" 
d="M509 -262c-118 0 -166 63 -166 123c0 58 29 102 84 139c-18 9 -39 35 -44 53c-40 -31 -97 -61 -157 -61c-120 0 -188 53 -188 162c0 138 126 161 234 161h95v47c0 48 -31 56 -99 56c-54 0 -112 -12 -163 -24l-33 121c64 24 134 44 221 44c115 0 237 -7 237 -165v-249
c0 -18 18 -22 49 -23l-8 -127c-45 -30 -81 -54 -81 -92c0 -18 19 -32 46 -32c86 0 162 65 162 140v535h166v-534c0 -171 -150 -274 -355 -274zM246 122c32 0 85 7 121 17v79l-82 -2c-86 -2 -84 -29 -84 -53c0 -28 14 -41 45 -41zM779 604l-111 112l111 111l112 -111z" />
    <glyph glyph-name=".notdef" horiz-adv-x="712" 
d="M305 375v27h27v-27h-27zM380 525v27h27v-27h-27zM305 525v27h27v-27h-27zM230 525v27h27v-27h-27zM80 0v27h27v-27h-27zM155 0v27h27v-27h-27zM230 0v27h27v-27h-27zM305 0v27h27v-27h-27zM380 0v27h27v-27h-27zM80 75v27h27v-27h-27zM80 150v27h27v-27h-27zM80 225v27
h27v-27h-27zM80 300v27h27v-27h-27zM80 375v27h27v-27h-27zM80 450v27h27v-27h-27zM80 525v27h27v-27h-27zM80 600v27h27v-27h-27zM80 675v27h27v-27h-27zM155 675v27h27v-27h-27zM230 675v27h27v-27h-27zM305 675v27h27v-27h-27zM380 675v27h27v-27h-27zM455 675v27h27v-27
h-27zM530 675v27h27v-27h-27zM530 0v27h27v-27h-27zM455 0v27h27v-27h-27zM605 0v27h27v-27h-27zM605 675v27h27v-27h-27zM305 300v27h27v-27h-27zM305 150v27h27v-27h-27zM380 375v27h27v-27h-27zM455 375v27h27v-27h-27zM455 450v27h27v-27h-27zM455 525v27h27v-27h-27z
M605 600v27h27v-27h-27zM605 525v27h27v-27h-27zM605 375v27h27v-27h-27zM605 300v27h27v-27h-27zM605 150v27h27v-27h-27zM605 75v27h27v-27h-27zM605 225v27h27v-27h-27zM605 450v27h27v-27h-27z" />
    <glyph glyph-name="space" unicode=" " horiz-adv-x="250" 
 />
    <glyph glyph-name="exclam" unicode="!" horiz-adv-x="324" 
d="M89 220l-10 193v294h167v-294l-10 -193h-147zM78 0v147h168v-147h-168z" />
    <glyph glyph-name="quotedbl" unicode="&#x22;" horiz-adv-x="477" 
d="M59 515l-11 240h160l-11 -240h-138zM280 515l-11 239h160l-11 -239h-138z" />
    <glyph glyph-name="numbersign" unicode="#" horiz-adv-x="660" 
d="M96 0l6 103h-85v128h94l5 88h-99v129h110l7 119h155l-8 -119h115l7 119h155l-8 -119h82v-129h-91l-6 -88h97v-128h-105l-6 -103h-155l6 103h-115l-6 -103h-155zM265 231h116l5 88h-115z" />
    <glyph glyph-name="dollar" unicode="$" horiz-adv-x="554" 
d="M219 -99l2 91c-82 1 -129 10 -182 34l43 118c67 -20 104 -26 170 -26c74 0 95 19 95 39c0 33 -61 45 -128 67c-79 26 -165 67 -165 173c0 88 79 132 167 147l-2 116h116l-2 -111c57 -2 91 -9 154 -32l-35 -113c-57 14 -99 21 -159 21s-67 -16 -67 -28
c0 -28 51 -44 110 -65c85 -30 188 -70 188 -170s-89 -149 -191 -165l3 -96h-117z" />
    <glyph glyph-name="percent" unicode="%" horiz-adv-x="861" 
d="M217 352c-98 0 -187 48 -187 176c0 117 89 186 190 186c98 0 191 -46 191 -179c0 -119 -91 -183 -194 -183zM217 466c29 0 55 19 55 69c0 49 -20 65 -52 65c-23 0 -51 -12 -51 -72c0 -49 18 -62 48 -62zM637 -11c-98 0 -187 47 -187 175c0 118 89 186 190 186
c98 0 191 -46 191 -179c0 -119 -91 -182 -194 -182zM637 103c29 0 55 18 55 68c0 49 -20 65 -52 65c-23 0 -51 -12 -51 -72c0 -49 18 -61 48 -61zM178 37l-87 90l582 531l87 -90z" />
    <glyph glyph-name="ampersand" unicode="&#x26;" horiz-adv-x="725" 
d="M275 -10c-109 0 -237 28 -237 194c0 80 65 141 134 183c-28 61 -45 109 -45 164c0 74 52 185 200 185c143 0 207 -81 207 -166c0 -104 -88 -152 -192 -209c84 -117 238 -196 381 -219l-18 -129c-92 4 -179 28 -255 68c-47 -44 -96 -71 -175 -71zM276 123c21 0 39 5 59 14
c-48 37 -75 71 -104 113c-19 -21 -31 -40 -31 -59c0 -36 27 -68 76 -68zM288 444c48 28 107 60 107 94c0 33 -25 58 -65 58c-33 0 -59 -25 -59 -59c0 -30 9 -66 17 -93z" />
    <glyph glyph-name="quotesingle" unicode="'" horiz-adv-x="266" 
d="M59 515l-11 240h170l-11 -240h-148z" />
    <glyph glyph-name="parenleft" unicode="(" horiz-adv-x="402" 
d="M296 -225c0 0 -256 170 -256 509c0 343 258 486 258 486l104 -108s-195 -126 -195 -377c0 -255 193 -403 193 -403z" />
    <glyph glyph-name="parenright" unicode=")" horiz-adv-x="402" 
d="M106 -225l-104 107s193 148 193 403c0 251 -195 377 -195 377l104 108s258 -143 258 -486c0 -339 -256 -509 -256 -509z" />
    <glyph glyph-name="asterisk" unicode="*" horiz-adv-x="425" 
d="M91 445l-54 98l97 35l38 -67zM136 587l-99 39l55 98l83 -68zM164 403l15 99h85l13 -99h-113zM180 662l-13 99h113l-15 -99h-85zM355 440l-83 68l39 69l99 -39zM310 587l-38 67l81 66l54 -98z" />
    <glyph glyph-name="plus" unicode="+" horiz-adv-x="600" 
d="M237 45l1 199l-199 -2v126l199 -4l-1 201h126l-6 -204l206 7v-126l-203 2l3 -199h-126z" />
    <glyph glyph-name="comma" unicode="," horiz-adv-x="360" 
d="M64 -134c22 45 30 128 30 177v120h174v-78c0 -82 -21 -163 -59 -219h-145z" />
    <glyph glyph-name="hyphen" unicode="-" horiz-adv-x="374" 
d="M37 220v133h298v-133h-298z" />
    <glyph glyph-name="hyphen" unicode="&#xad;" horiz-adv-x="374" 
d="M37 220v133h298v-133h-298z" />
    <glyph glyph-name="period" unicode="." horiz-adv-x="360" 
d="M91 0v162h185v-162h-185z" />
    <glyph glyph-name="slash" unicode="/" horiz-adv-x="460" 
d="M40 -62l233 831h147l-233 -831h-147z" />
    <glyph glyph-name="zero" unicode="0" horiz-adv-x="682" 
d="M335 -12c-200 0 -292 93 -292 278c0 180 99 294 309 294c209 0 287 -116 287 -274c0 -203 -115 -298 -304 -298zM340 125c76 0 130 50 130 156c0 91 -39 142 -124 142c-88 0 -134 -56 -134 -154c0 -104 57 -144 128 -144z" />
    <glyph glyph-name="one" unicode="1" horiz-adv-x="407" 
d="M160 0v418h-142v131l309 9v-558h-167z" />
    <glyph glyph-name="two" unicode="2" horiz-adv-x="566" 
d="M45 0v137c66 47 280 160 280 228c0 47 -42 60 -99 60c-49 0 -105 -15 -134 -26l-38 120c31 17 111 41 179 41c208 0 255 -101 255 -192c0 -121 -155 -201 -236 -235h264v-133h-471z" />
    <glyph glyph-name="three" unicode="3" horiz-adv-x="516" 
d="M197 -170c-129 0 -191 28 -191 28l30 134c43 -11 90 -22 151 -22c80 0 117 22 117 79c0 68 -34 91 -134 100c-13 1 -27 1 -43 1v113c13 1 24 1 35 2c81 6 111 27 111 88c0 51 -52 68 -106 68c-39 0 -80 -9 -102 -19l-38 117c60 29 107 39 175 39c124 0 235 -56 235 -182
c0 -98 -53 -133 -93 -154c74 -30 129 -84 129 -175c0 -163 -137 -217 -276 -217z" />
    <glyph glyph-name="four" unicode="4" horiz-adv-x="620" 
d="M322 -163v193h-314v107l230 408h250v-383h94v-132h-94v-193h-166zM162 162h160v293z" />
    <glyph glyph-name="five" unicode="5" horiz-adv-x="561" 
d="M250 -174c-76 0 -156 9 -204 26l40 133c67 -16 95 -20 163 -20c73 0 114 38 114 89c0 69 -44 96 -115 96c-47 0 -122 -4 -177 -9v403h421v-132h-260v-135c18 1 31 1 47 1c153 0 251 -75 251 -214c0 -153 -122 -238 -280 -238z" />
    <glyph glyph-name="six" unicode="6" horiz-adv-x="622" 
d="M312 -12c-180 0 -281 97 -281 319c0 273 134 407 344 407c53 0 114 -9 154 -24l-37 -128c-35 9 -79 14 -119 14c-85 0 -135 -43 -159 -127c32 10 63 16 108 16c158 0 257 -62 257 -226c0 -161 -124 -251 -267 -251zM307 339c-44 0 -80 -8 -109 -17v-21
c0 -139 31 -179 121 -179c55 0 93 42 93 107c0 81 -42 110 -105 110z" />
    <glyph glyph-name="seven" unicode="7" horiz-adv-x="521" 
d="M178 -191l-146 47l292 540h-308v148h477v-109z" />
    <glyph glyph-name="eight" unicode="8" horiz-adv-x="613" 
d="M303 -12c-146 0 -265 52 -265 190c0 99 60 154 130 192c-59 39 -105 88 -105 162c0 132 111 182 250 182c145 0 242 -73 242 -171c0 -82 -58 -132 -126 -171c76 -40 146 -91 146 -181c0 -143 -118 -203 -272 -203zM309 111c82 0 100 51 100 90c0 42 -52 72 -115 105
c-54 -29 -95 -61 -95 -105c0 -36 17 -90 110 -90zM303 429c49 24 85 49 85 89c0 47 -26 74 -77 74c-66 0 -86 -36 -86 -75c0 -37 32 -63 78 -88z" />
    <glyph glyph-name="nine" unicode="9" horiz-adv-x="622" 
d="M247 -166c-53 0 -114 9 -154 24l37 128c35 -9 79 -14 119 -14c86 0 137 48 160 137c-32 -10 -64 -16 -109 -16c-158 0 -257 56 -257 220c0 161 124 247 267 247c180 0 281 -97 281 -319c0 -273 -134 -407 -344 -407zM315 219c44 0 80 7 109 16v18c0 139 -31 173 -121 173
c-55 0 -93 -38 -93 -103c0 -81 42 -104 105 -104z" />
    <glyph glyph-name="colon" unicode=":" horiz-adv-x="360" 
d="M85 0v162h185v-162h-185zM85 384v162h185v-162h-185z" />
    <glyph glyph-name="semicolon" unicode=";" horiz-adv-x="360" 
d="M54 -134c34 62 35 126 35 147v150h184v-108c0 -69 -27 -139 -69 -189h-150zM89 384v162h185v-162h-185z" />
    <glyph glyph-name="less" unicode="&#x3c;" horiz-adv-x="600" 
d="M512 47l-424 191v131l424 201v-139l-285 -128l285 -117v-139z" />
    <glyph glyph-name="equal" unicode="=" horiz-adv-x="600" 
d="M69 113l-2 126h454l2 -126h-454zM69 364l-2 126h454l2 -126h-454z" />
    <glyph glyph-name="greater" unicode="&#x3e;" horiz-adv-x="600" 
d="M88 47v139l285 117l-285 128v139l424 -201v-131z" />
    <glyph glyph-name="question" unicode="?" horiz-adv-x="415" 
d="M93 185c-17 37 -20 62 -20 89c0 124 130 177 130 220c0 41 -13 68 -155 79l30 137c162 -11 299 -52 299 -211c0 -126 -159 -181 -159 -237c0 -13 -1 -30 9 -55zM90 0v147h167v-147h-167z" />
    <glyph glyph-name="at" unicode="@" horiz-adv-x="798" 
d="M370 -74c-237 0 -355 89 -355 342c0 326 211 449 456 449c183 0 298 -94 298 -300c0 -173 -104 -279 -252 -279c-62 0 -99 27 -104 54c-17 -26 -55 -51 -84 -51c-73 0 -122 29 -122 142s79 209 211 209c41 0 78 -1 145 -26l-20 -169c-2 -13 -2 -36 21 -36
c24 0 69 53 69 158c0 129 -59 179 -170 179c-160 0 -310 -91 -310 -326c0 -162 89 -221 226 -221c48 0 94 4 171 13l15 -111c-86 -23 -123 -27 -195 -27zM370 256c26 0 26 5 38 9l18 132h-5c-39 0 -72 -38 -72 -101c0 -13 1 -40 21 -40z" />
    <glyph glyph-name="A" unicode="A" horiz-adv-x="751" 
d="M11 0l272 707h219l238 -707h-176l-67 207h-239l-77 -207h-170zM303 330h154l-71 272z" />
    <glyph glyph-name="B" unicode="B" horiz-adv-x="678" 
d="M78 0v707h248c173 0 263 -62 263 -195c0 -59 -35 -103 -71 -126v-2c48 -17 122 -69 122 -166c0 -129 -76 -218 -284 -218h-278zM249 133h86c90 0 135 24 135 81c0 64 -49 87 -147 87h-74v-168zM249 417h61c74 0 111 13 111 76c0 60 -40 84 -120 84h-52v-160z" />
    <glyph glyph-name="C" unicode="C" horiz-adv-x="686" 
d="M435 -10c-259 0 -392 127 -392 359c0 246 131 368 388 368c105 0 167 -19 220 -43l-45 -123c-67 18 -95 25 -173 26c-128 2 -217 -70 -217 -218s94 -227 237 -227c69 0 110 6 164 20l36 -128c-68 -25 -127 -34 -218 -34z" />
    <glyph glyph-name="D" unicode="D" horiz-adv-x="787" 
d="M78 0v707h253c245 0 413 -105 413 -351c0 -245 -152 -356 -407 -356h-259zM247 133h101c163 0 226 74 226 213c0 152 -76 228 -246 228h-81v-441z" />
    <glyph glyph-name="E" unicode="E" horiz-adv-x="613" 
d="M78 0v707h464v-133h-294v-157h272v-124h-272v-160h317v-133h-487z" />
    <glyph glyph-name="F" unicode="F" horiz-adv-x="610" 
d="M78 0v707h494v-133h-324v-175h302v-123h-302v-276h-170z" />
    <glyph glyph-name="G" unicode="G" horiz-adv-x="734" 
d="M431 -10c-235 0 -388 114 -388 359c0 256 139 368 396 368c100 0 156 -20 212 -43l-45 -123c-67 17 -98 26 -170 26c-126 0 -220 -62 -220 -218s104 -227 233 -227c16 0 31 1 45 1v217h170v-319c-80 -31 -147 -41 -233 -41z" />
    <glyph glyph-name="H" unicode="H" horiz-adv-x="796" 
d="M78 0v707h170v-287h300v287h170v-707h-170v291h-300v-291h-170z" />
    <glyph glyph-name="I" unicode="I" horiz-adv-x="326" 
d="M78 0v707h170v-707h-170z" />
    <glyph glyph-name="J" unicode="J" horiz-adv-x="326" 
d="M-6 -198l-61 122c119 66 145 109 145 227v556h171v-554c0 -142 -21 -275 -255 -351z" />
    <glyph glyph-name="K" unicode="K" horiz-adv-x="731" 
d="M78 0v707h170v-303l242 303h217l-286 -331l302 -376h-217l-258 355v-355h-170z" />
    <glyph glyph-name="L" unicode="L" horiz-adv-x="573" 
d="M78 0v707h170v-573h307v-134h-477z" />
    <glyph glyph-name="M" unicode="M" horiz-adv-x="983" 
d="M78 0v707h207l197 -555l226 555h197v-707h-170v263l5 166l-168 -429h-190l-145 441l11 -178v-263h-170z" />
    <glyph glyph-name="N" unicode="N" horiz-adv-x="796" 
d="M78 0v707h197l278 -485l-5 79v406h170v-707h-203l-271 473l4 -94v-379h-170z" />
    <glyph glyph-name="O" unicode="O" horiz-adv-x="843" 
d="M413 -12c-248 0 -370 140 -370 367c0 223 148 363 389 363c257 0 368 -154 368 -365c0 -225 -135 -365 -387 -365zM416 122c156 0 211 100 211 232s-61 230 -204 230c-150 0 -208 -98 -208 -228c0 -129 57 -234 201 -234z" />
    <glyph glyph-name="P" unicode="P" horiz-adv-x="644" 
d="M78 0v707h275c159 0 273 -93 273 -251c0 -139 -114 -256 -325 -256h-52v-200h-171zM249 574v-243h58c106 0 144 55 144 121c0 71 -29 122 -120 122h-82z" />
    <glyph glyph-name="Q" unicode="Q" horiz-adv-x="843" 
d="M789 -192c-57 0 -145 -1 -196 12c-74 16 -124 30 -188 30v117c115 0 171 -21 226 -31c44 -8 100 -10 158 -10v-118zM413 -12c-248 0 -370 140 -370 367c0 223 148 363 389 363c257 0 368 -154 368 -365c0 -225 -135 -365 -387 -365zM416 122c156 0 211 100 211 232
s-61 230 -204 230c-150 0 -208 -98 -208 -228c0 -129 57 -234 201 -234z" />
    <glyph glyph-name="R" unicode="R" horiz-adv-x="752" 
d="M706 -13c-138 7 -213 79 -287 165l-80 93c-12 -1 -25 -1 -38 -1h-52v-244h-171v707h275c159 0 273 -73 273 -231c0 -79 -38 -148 -114 -191l72 -78c39 -42 83 -70 160 -90zM249 363h58c101 0 144 42 144 109c0 71 -29 101 -120 101h-82v-210z" />
    <glyph glyph-name="S" unicode="S" horiz-adv-x="597" 
d="M265 -11c-116 0 -184 21 -237 50l48 122c63 -22 109 -32 187 -32c85 0 124 26 124 69c0 115 -336 84 -336 324c0 136 129 195 254 195c112 0 166 -24 221 -48l-49 -118c-52 15 -95 29 -167 29c-71 0 -93 -27 -93 -57c0 -94 342 -94 342 -319c0 -155 -148 -215 -294 -215z
" />
    <glyph glyph-name="T" unicode="T" horiz-adv-x="630" 
d="M230 0v574h-222v133h614v-133h-222v-574h-170z" />
    <glyph glyph-name="U" unicode="U" horiz-adv-x="799" 
d="M402 -13c-163 0 -329 72 -329 301v419h172v-413c0 -108 49 -168 157 -168c107 0 157 63 157 189v392h167v-395c0 -247 -166 -325 -324 -325z" />
    <glyph glyph-name="V" unicode="V" horiz-adv-x="741" 
d="M244 0l-241 707h179l175 -580l208 580h173l-275 -707h-219z" />
    <glyph glyph-name="W" unicode="W" horiz-adv-x="1061" 
d="M166 0l-152 707h165l110 -599l164 427l-60 172h169l185 -593l138 593h162l-194 -707h-214l-122 362l-132 -362h-219z" />
    <glyph glyph-name="X" unicode="X" horiz-adv-x="695" 
d="M8 0l253 362l-225 345h195l128 -217l138 217h190l-238 -342l238 -365h-196l-141 238l-152 -238h-190z" />
    <glyph glyph-name="Y" unicode="Y" horiz-adv-x="709" 
d="M261 0v227l-261 480h196l156 -337l166 337h191l-278 -474v-233h-170z" />
    <glyph glyph-name="Z" unicode="Z" horiz-adv-x="611" 
d="M28 0v114l325 452h-299v141h508v-108l-329 -458h350v-141h-555z" />
    <glyph glyph-name="bracketleft" unicode="[" horiz-adv-x="363" 
d="M63 -220v974h267v-138h-100v-698h100v-138h-267z" />
    <glyph glyph-name="backslash" unicode="\" horiz-adv-x="460" 
d="M273 -62l-233 831h147l233 -831h-147z" />
    <glyph glyph-name="bracketright" unicode="]" horiz-adv-x="363" 
d="M63 -220v138h100v698h-100v138h267v-974h-267z" />
    <glyph glyph-name="asciicircum" unicode="^" horiz-adv-x="558" 
d="M23 294l172 413h182l161 -413h-158l-96 286l-106 -286h-155z" />
    <glyph glyph-name="underscore" unicode="_" horiz-adv-x="516" 
d="M0 -199v133h516v-133h-516z" />
    <glyph glyph-name="grave" unicode="`" horiz-adv-x="584" 
d="M398 602l-244 104l54 117l238 -121z" />
    <glyph glyph-name="a" unicode="a" horiz-adv-x="627" 
d="M226 -9c-120 0 -188 56 -188 165c0 138 126 166 234 166h95v34c0 48 -31 62 -99 62c-54 0 -112 -12 -163 -24l-33 121c62 24 134 44 221 44c169 0 237 -48 237 -171v-243c0 -18 18 -22 49 -23l-6 -126c-13 -1 -26 -1 -39 -1c-66 0 -136 11 -151 58
c-40 -31 -97 -62 -157 -62zM261 120c32 0 70 9 106 19v86l-82 -2c-49 -1 -85 -17 -85 -57c0 -32 31 -46 61 -46z" />
    <glyph glyph-name="b" unicode="b" horiz-adv-x="624" 
d="M301 -11c-113 0 -172 16 -233 36v729h166v-211c39 12 83 19 111 19c164 0 262 -68 262 -260c0 -236 -148 -313 -306 -313zM315 438c-31 0 -59 -6 -81 -13v-295c19 -4 43 -11 70 -11c85 0 133 80 133 182c0 103 -33 137 -122 137z" />
    <glyph glyph-name="c" unicode="c" horiz-adv-x="537" 
d="M356 -11c-231 0 -318 85 -318 289c0 170 114 282 299 282c80 0 131 -15 174 -38l-43 -121c-44 17 -68 23 -124 23c-69 0 -135 -31 -135 -148c0 -105 25 -154 156 -154c46 0 71 6 116 14l23 -127c-59 -13 -87 -20 -148 -20z" />
    <glyph glyph-name="d" unicode="d" horiz-adv-x="642" 
d="M283 -8c-110 0 -245 53 -245 290c0 187 131 278 297 278c30 0 55 -4 72 -6v200h167v-754h-167v39c-24 -19 -55 -47 -124 -47zM316 130c30 0 66 8 91 18v273c-17 3 -39 7 -69 7c-95 0 -134 -54 -134 -149c0 -119 53 -149 112 -149z" />
    <glyph glyph-name="e" unicode="e" horiz-adv-x="596" 
d="M334 -12c-180 0 -296 59 -296 277c0 223 117 294 282 294c172 0 238 -112 238 -277v-60h-354c-1 -86 67 -102 154 -102c37 0 99 12 156 22l25 -127c-61 -18 -139 -27 -205 -27zM209 329h178c2 66 -27 112 -81 112c-57 0 -94 -40 -97 -112z" />
    <glyph glyph-name="f" unicode="f" horiz-adv-x="386" 
d="M86 -190v621h-80v115h80v31c0 169 103 204 217 204c40 0 65 -5 98 -15l-26 -131c-20 3 -37 4 -64 4c-41 0 -58 -29 -58 -72v-21h117v-115h-117v-621h-167z" />
    <glyph glyph-name="g" unicode="g" horiz-adv-x="642" 
d="M302 -221c-85 0 -163 16 -226 33l26 131c67 -14 138 -24 178 -24c80 0 128 10 128 89v11c-23 -16 -57 -28 -89 -28c-132 0 -281 30 -281 279c0 187 138 290 303 290c81 0 144 -10 233 -28v-537c0 -160 -152 -216 -272 -216zM328 118c28 0 52 1 79 9v286
c-18 5 -39 10 -67 10c-95 0 -136 -59 -136 -153c0 -118 50 -152 124 -152z" />
    <glyph glyph-name="h" unicode="h" horiz-adv-x="664" 
d="M68 0v754h167v-263c33 25 105 71 178 71c171 0 183 -95 183 -219v-343h-166v329c0 75 -17 88 -73 88c-50 0 -95 -17 -122 -30v-387h-167z" />
    <glyph glyph-name="i" unicode="i" horiz-adv-x="303" 
d="M69 0v546h166v-546h-166zM151 604l-111 112l111 111l112 -111z" />
    <glyph glyph-name="j" unicode="j" horiz-adv-x="303" 
d="M14 -220c-39 0 -95 11 -128 23l31 129s61 -11 92 -11c43 0 60 14 60 82v543h166v-544c0 -190 -105 -222 -221 -222zM149 604l-111 112l111 111l112 -111z" />
    <glyph glyph-name="k" unicode="k" horiz-adv-x="596" 
d="M68 0v754h167v-412l151 203h179l-199 -251l78 -89c38 -43 70 -73 139 -91l-19 -126c-87 4 -162 14 -232 107l-97 127v-222h-167z" />
    <glyph glyph-name="l" unicode="l" horiz-adv-x="303" 
d="M68 0v754h167v-754h-167z" />
    <glyph glyph-name="m" unicode="m" horiz-adv-x="996" 
d="M68 0v546h167v-55c46 35 112 70 177 70c78 0 131 -32 153 -83c42 38 117 83 188 83c178 0 175 -127 175 -219v-342h-167v328c0 67 -17 88 -69 88c-36 0 -82 -15 -113 -31c2 -14 2 -28 2 -42v-343h-166v328c0 75 -18 86 -68 86c-37 0 -82 -11 -112 -27v-387h-167z" />
    <glyph glyph-name="n" unicode="n" horiz-adv-x="664" 
d="M68 0v546h167v-55c33 25 105 69 178 69c171 0 183 -94 183 -218v-342h-166v328c0 75 -17 88 -73 88c-50 0 -95 -16 -122 -29v-387h-167z" />
    <glyph glyph-name="o" unicode="o" horiz-adv-x="643" 
d="M315 -12c-180 0 -277 109 -277 280c0 181 113 292 286 292c194 0 281 -109 281 -287c0 -186 -122 -285 -290 -285zM323 121c90 0 112 59 112 152c0 88 -22 155 -114 155c-90 0 -115 -67 -115 -156c0 -94 28 -151 117 -151z" />
    <glyph glyph-name="p" unicode="p" horiz-adv-x="645" 
d="M68 -220v766h166v-39c22 19 82 53 132 53c150 0 241 -69 241 -262c0 -228 -147 -308 -306 -308c-25 0 -47 3 -67 4v-214h-166zM305 117c85 0 134 74 134 176c0 98 -39 127 -123 127c-28 0 -61 -8 -82 -15v-282c16 -2 44 -6 71 -6z" />
    <glyph glyph-name="q" unicode="q" horiz-adv-x="642" 
d="M407 -220v240c-23 -14 -55 -28 -105 -28c-117 0 -264 41 -264 288c0 187 131 280 297 280c113 0 159 -8 239 -29v-751h-167zM316 131c30 0 69 7 91 13v277c-17 3 -39 7 -69 7c-95 0 -134 -56 -134 -151c0 -119 53 -146 112 -146z" />
    <glyph glyph-name="r" unicode="r" horiz-adv-x="441" 
d="M68 0v546h167v-73c27 35 78 84 141 84c30 0 52 -2 75 -9l-22 -137c-32 6 -43 6 -73 6c-49 0 -99 -23 -121 -47v-370h-167z" />
    <glyph glyph-name="s" unicode="s" horiz-adv-x="512" 
d="M234 -12c-79 0 -143 7 -199 23l18 126c71 -10 128 -15 165 -15c84 0 94 22 94 38c0 59 -275 31 -275 227c0 118 111 173 230 173c67 0 127 -11 184 -31l-28 -121c-53 12 -95 20 -151 20c-57 0 -68 -21 -68 -33c0 -62 273 -45 273 -228c0 -144 -151 -179 -243 -179z" />
    <glyph glyph-name="t" unicode="t" horiz-adv-x="466" 
d="M316 -11c-105 0 -228 -5 -228 181v253h-80v123h80v112h166v-112h169v-123h-169v-252c0 -40 15 -43 60 -43c37 0 118 11 118 11l16 -131c-39 -11 -92 -19 -132 -19z" />
    <glyph glyph-name="u" unicode="u" horiz-adv-x="664" 
d="M251 -12c-171 0 -183 95 -183 219v339h166v-325c0 -75 17 -88 73 -88c50 0 95 14 122 27v386h167v-546h-167v56c-33 -25 -105 -68 -178 -68z" />
    <glyph glyph-name="v" unicode="v" horiz-adv-x="623" 
d="M205 0l-197 546h179l92 -296l28 -109l31 109l102 296h175l-212 -546h-198z" />
    <glyph glyph-name="w" unicode="w" horiz-adv-x="904" 
d="M148 0l-140 546h175l70 -410l100 410h197l85 -410l90 410h171l-162 -546h-205l-64 298l-18 91l-21 -91l-71 -298h-207z" />
    <glyph glyph-name="x" unicode="x" horiz-adv-x="610" 
d="M8 0l202 279l-187 267h192l89 -166l92 166h189l-187 -267l204 -279h-199l-99 178l-100 -178h-196z" />
    <glyph glyph-name="y" unicode="y" horiz-adv-x="616" 
d="M182 -220l74 220h-60l-188 546h179l94 -324l23 -89l27 89l109 324h168l-267 -766h-159z" />
    <glyph glyph-name="z" unicode="z" horiz-adv-x="532" 
d="M38 0v109l256 303h-240v134h436v-106l-250 -308h254v-132h-456z" />
    <glyph glyph-name="braceleft" unicode="{" horiz-adv-x="377" 
d="M306 -223c-136 0 -225 43 -225 162c0 9 1 19 2 29l20 189c2 20 -11 52 -76 52v127c65 0 78 33 76 52l-20 189c-1 10 -2 20 -2 29c0 120 89 162 225 162h59v-139h-50c-48 0 -66 -35 -62 -66l21 -173c8 -64 -18 -95 -59 -116v-2c42 -21 67 -53 59 -117l-21 -172
c-4 -31 10 -66 62 -66h50v-140h-59z" />
    <glyph glyph-name="bar" unicode="|" horiz-adv-x="293" 
d="M63 -220v974h167v-974h-167z" />
    <glyph glyph-name="braceright" unicode="}" horiz-adv-x="377" 
d="M32 -223v140h50c52 0 66 35 62 66l-21 172c-8 64 17 96 59 117v2c-41 21 -67 52 -59 116l21 173c4 31 -14 66 -62 66h-50v139h59c136 0 225 -42 225 -162c0 -9 -1 -19 -2 -29l-20 -189c-2 -19 11 -52 76 -52v-127c-65 0 -78 -32 -76 -52l20 -189c1 -10 2 -20 2 -29
c0 -119 -89 -162 -225 -162h-59z" />
    <glyph glyph-name="asciitilde" unicode="~" horiz-adv-x="598" 
d="M386 240c-88 0 -132 60 -183 60c-25 0 -48 -8 -75 -33l-77 102c43 53 98 97 157 97c90 0 121 -61 179 -61c17 0 40 -9 88 33l76 -94c-30 -53 -109 -104 -165 -104z" />
    <glyph glyph-name="uni00A0" unicode="&#xa0;" horiz-adv-x="250" 
 />
    <glyph glyph-name="exclamdown" unicode="&#xa1;" horiz-adv-x="324" 
d="M78 -161v294l10 193h147l10 -193v-294h-167zM78 399v147h168v-147h-168z" />
    <glyph glyph-name="cent" unicode="&#xa2;" horiz-adv-x="560" 
d="M243 -62l2 90c-150 24 -207 80 -207 249c0 142 75 213 207 243l-3 84h149l-3 -78c48 -5 70 -13 105 -29l-43 -120c-50 14 -55 16 -111 16c-69 0 -130 -25 -130 -118c0 -85 21 -122 152 -122c46 0 63 4 108 10l25 -125c-46 -10 -68 -15 -105 -17l2 -83h-148z" />
    <glyph glyph-name="sterling" unicode="&#xa3;" horiz-adv-x="543" 
d="M57 0v115c39 23 64 56 64 95h-76v124h81c-1 41 -4 23 -4 54c0 188 154 200 317 200l6 -136c-123 -11 -154 -10 -154 -70c0 -26 3 -7 1 -48h148v-124h-165c-6 -46 -19 -59 -39 -78h252v-132h-431z" />
    <glyph glyph-name="currency" unicode="&#xa4;" horiz-adv-x="516" 
d="M89 122l-61 59l58 58c-27 30 -44 69 -44 113c0 45 16 83 43 113l-57 57l60 60l68 -68c30 13 65 21 102 21s72 -8 103 -21l67 68l61 -60l-58 -58c26 -29 42 -68 42 -112s-16 -82 -43 -112l59 -58l-61 -60l-68 68c-31 -13 -65 -20 -102 -20s-71 7 -101 20zM258 289
c49 0 63 31 63 63s-16 64 -63 64s-64 -31 -64 -64c0 -31 18 -63 64 -63z" />
    <glyph glyph-name="yen" unicode="&#xa5;" horiz-adv-x="687" 
d="M637 546l-118 -193h118v-133h-199l-24 -40v-47h223v-133h-587v133h209v43l-25 44h-184v133h109l-109 193h179l113 -235l120 235h175z" />
    <glyph glyph-name="brokenbar" unicode="&#xa6;" horiz-adv-x="293" 
d="M63 -220v361h167v-361h-167zM63 392v362h167v-362h-167z" />
    <glyph glyph-name="section" unicode="&#xa7;" horiz-adv-x="596" 
d="M126 -216c-44 0 -99 16 -126 40l41 118s45 -32 81 -32c30 0 34 50 34 72c0 36 -7 74 -13 109l-68 289c-6 32 -10 64 -10 97c0 168 175 284 358 284c47 0 122 -13 173 -62c0 0 -58 -88 -70 -100c-24 23 -60 39 -96 39c-34 0 -44 -23 -44 -51s7 -60 11 -81l67 -267
c14 -70 21 -136 21 -178c0 -161 -172 -277 -359 -277zM283 -82c19 21 63 63 63 134c0 33 -5 65 -11 97l-72 310c-4 24 -7 53 -7 83c0 24 3 50 7 78c-44 -34 -56 -97 -56 -132c-1 -30 4 -69 8 -88l73 -314c3 -20 7 -45 7 -73s-4 -52 -12 -95z" />
    <glyph glyph-name="dieresis" unicode="&#xa8;" horiz-adv-x="432" 
d="M99 622l-93 94l93 94l94 -94zM343 622l-94 94l94 94l93 -94z" />
    <glyph glyph-name="copyright" unicode="&#xa9;" horiz-adv-x="833" 
d="M432 74c-125 0 -200 87 -200 197c0 119 74 200 198 200c50 0 96 -8 129 -29l-28 -80c-41 14 -67 15 -99 15c-55 0 -98 -29 -98 -102c0 -71 45 -103 106 -103c42 0 59 1 93 13l27 -87c-41 -17 -70 -24 -128 -24zM408 -82c-219 0 -345 141 -345 357c0 224 148 353 364 353
c227 0 343 -148 343 -355c0 -218 -136 -355 -362 -355zM412 -12c181 0 272 122 272 286c0 165 -97 284 -266 284c-175 0 -270 -119 -270 -282c0 -158 91 -288 264 -288z" />
    <glyph glyph-name="ordfeminine" unicode="&#xaa;" horiz-adv-x="434" 
d="M165 389c-70 0 -112 31 -112 95c0 81 77 94 139 94h49v21c0 22 -12 26 -52 26c-30 0 -63 -6 -96 -14l-22 76c41 15 82 26 133 26c64 0 140 -3 140 -96v-138c0 -8 9 -7 28 -8l-4 -79c-42 -2 -99 -1 -115 28c-23 -16 -54 -31 -88 -31zM177 471c16 0 44 4 64 8v35l-44 -1
c-11 0 -41 1 -41 -22c0 -14 5 -20 21 -20zM61 283v78h310v-78h-310z" />
    <glyph glyph-name="guillemotleft" unicode="&#xab;" horiz-adv-x="520" 
d="M140 43l-128 229l127 227l123 -42l-91 -185l90 -179zM380 43l-128 229l127 227l123 -42l-91 -185l90 -179z" />
    <glyph glyph-name="logicalnot" unicode="&#xac;" horiz-adv-x="600" 
d="M407 86v156h-368v127h505v-283h-137z" />
    <glyph glyph-name="registered" unicode="&#xae;" horiz-adv-x="833" 
d="M591 268c-54 4 -93 24 -126 59c-19 20 -30 42 -51 69c-5 -1 -14 -1 -19 -1h-15v-122h-100v373h140c80 0 152 -21 152 -120c0 -56 -31 -85 -63 -98c33 -43 46 -73 100 -92zM409 98c-220 0 -346 144 -346 357c0 223 149 353 363 353c228 0 344 -151 344 -355
c0 -216 -137 -355 -361 -355zM412 168c181 0 272 122 272 286c0 165 -97 284 -266 284c-175 0 -270 -119 -270 -282c0 -158 91 -288 264 -288zM380 472h18c46 0 69 12 69 52c0 33 -19 44 -57 44h-30v-96z" />
    <glyph glyph-name="macron" unicode="&#xaf;" horiz-adv-x="556" 
d="M111 647v129h328v-129h-328z" />
    <glyph glyph-name="macron" unicode="&#x2c9;" horiz-adv-x="556" 
d="M111 647v129h328v-129h-328z" />
    <glyph glyph-name="degree" unicode="&#xb0;" horiz-adv-x="345" 
d="M171 402c-102 0 -161 58 -161 158c0 98 75 157 163 157c94 0 162 -60 162 -157c0 -98 -73 -158 -164 -158zM172 504c26 0 42 12 42 56c0 40 -17 54 -42 54c-27 0 -43 -14 -43 -54c0 -37 16 -56 43 -56z" />
    <glyph glyph-name="plusminus" unicode="&#xb1;" horiz-adv-x="600" 
d="M79 1l-2 126h160l1 157l-159 -2l-2 126l161 -4l-1 161h126l-6 -164l164 7l2 -126l-163 2l3 -157h158l2 -126h-444z" />
    <glyph glyph-name="twosuperior" unicode="&#xb2;" horiz-adv-x="306" 
d="M10 415v75c76 52 157 123 157 162c0 19 -18 33 -41 33c-29 0 -52 -9 -72 -22l-38 80c35 27 69 43 134 43c91 0 139 -57 139 -120c0 -60 -57 -116 -136 -156h139v-95h-282z" />
    <glyph glyph-name="threesuperior" unicode="&#xb3;" horiz-adv-x="305" 
d="M131 410c-58 0 -89 8 -119 16l18 88c35 -8 59 -10 90 -10c40 0 50 19 50 38c0 29 -23 39 -82 39v51c60 6 65 20 65 44c-2 13 -13 24 -30 24c-31 0 -51 -4 -77 -16c-8 27 -17 53 -25 80c33 17 75 25 113 25c87 0 139 -30 139 -103c0 -28 -15 -58 -42 -71
c35 -14 60 -39 60 -86c0 -89 -71 -119 -160 -119z" />
    <glyph glyph-name="acute" unicode="&#xb4;" horiz-adv-x="584" 
d="M203 602l-47 100l238 121l54 -117z" />
    <glyph glyph-name="mu" unicode="&#xb5;" horiz-adv-x="693" 
d="M68 -220v766h166v-343c0 -62 21 -73 73 -73c50 0 95 17 122 30v386h167v-401c0 -18 18 -22 49 -23l-6 -126c-14 -1 -35 -1 -49 -1c-73 0 -134 10 -151 69c-36 -29 -108 -79 -188 -79h-17v-205h-166z" />
    <glyph glyph-name="mu" unicode="&#x3bc;" horiz-adv-x="693" 
d="M68 -220v766h166v-343c0 -62 21 -73 73 -73c50 0 95 17 122 30v386h167v-401c0 -18 18 -22 49 -23l-6 -126c-14 -1 -35 -1 -49 -1c-73 0 -134 10 -151 69c-36 -29 -108 -79 -188 -79h-17v-205h-166z" />
    <glyph glyph-name="paragraph" unicode="&#xb6;" horiz-adv-x="639" 
d="M333 -220c-39 0 -68 7 -122 21l30 135s63 -12 94 -12c43 0 60 14 60 83v700h166v-701c0 -170 -104 -226 -228 -226zM212 227c-133 0 -192 95 -192 243c0 214 134 235 279 237l60 1v-481h-147z" />
    <glyph glyph-name="periodcentered" unicode="&#xb7;" horiz-adv-x="324" 
d="M161 273l-115 116l115 115l115 -115z" />
    <glyph glyph-name="periodcentered" unicode="&#x2219;" horiz-adv-x="324" 
d="M161 273l-115 116l115 115l115 -115z" />
    <glyph glyph-name="cedilla" unicode="&#xb8;" horiz-adv-x="469" 
d="M189 -283l-57 100c25 15 76 35 76 70c0 20 -7 42 -12 62h129c11 -25 22 -53 22 -81c0 -81 -95 -125 -158 -151z" />
    <glyph glyph-name="onesuperior" unicode="&#xb9;" horiz-adv-x="240" 
d="M83 415v271h-73v93c65 2 129 3 194 5v-369h-121z" />
    <glyph glyph-name="ordmasculine" unicode="&#xba;" horiz-adv-x="434" 
d="M214 383c-108 0 -166 64 -166 163c0 105 68 170 171 170c116 0 168 -64 168 -167c0 -108 -73 -166 -173 -166zM218 468c48 0 60 29 60 81c0 49 -12 82 -61 82c-47 0 -62 -33 -62 -83c0 -52 16 -80 63 -80zM61 283v78h310v-78h-310z" />
    <glyph glyph-name="guillemotright" unicode="&#xbb;" horiz-adv-x="520" 
d="M135 43l-121 50l89 179l-91 185l123 42l127 -227zM375 43l-121 50l89 179l-91 185l123 42l127 -227z" />
    <glyph glyph-name="onequarter" unicode="&#xbc;" horiz-adv-x="824" 
d="M103 415v271h-73v93c65 2 129 3 194 5v-369h-121zM130 62l-57 62l543 543l58 -60zM636 0v79h-157v86l101 204h164v-206h50v-84h-50v-79h-108zM558 163h78v143z" />
    <glyph glyph-name="onehalf" unicode="&#xbd;" horiz-adv-x="818" 
d="M103 415v271h-73v93c65 2 129 3 194 5v-369h-121zM128 62l-57 62l543 543l58 -60zM506 0v75c76 52 157 123 157 162c0 19 -18 33 -41 33c-29 0 -52 -9 -72 -22l-38 80c35 27 69 45 134 45c91 0 139 -59 139 -122c0 -60 -57 -116 -136 -156h139v-95h-282z" />
    <glyph glyph-name="threequarters" unicode="&#xbe;" horiz-adv-x="820" 
d="M149 410c-58 0 -89 8 -119 16l18 88c35 -8 59 -10 90 -10c40 0 50 19 50 38c0 29 -23 39 -82 39v51c60 6 65 20 65 44c-2 13 -13 24 -30 24c-31 0 -51 -4 -77 -16c-8 27 -17 53 -25 80c33 17 75 25 113 25c87 0 139 -30 139 -103c0 -28 -15 -58 -42 -71
c35 -14 60 -39 60 -86c0 -89 -71 -119 -160 -119zM141 62l-57 62l543 543l58 -60zM632 0v79h-157v86l101 204h164v-206h50v-84h-50v-79h-108zM554 163h78v143z" />
    <glyph glyph-name="questiondown" unicode="&#xbf;" horiz-adv-x="415" 
d="M346 -164c-162 11 -299 52 -299 211c0 126 159 181 159 237c0 13 1 30 -9 55l134 22c17 -37 20 -62 20 -89c0 -124 -130 -177 -130 -220c0 -41 13 -68 155 -79zM167 399v147h167v-147h-167z" />
    <glyph glyph-name="Agrave" unicode="&#xc0;" horiz-adv-x="751" 
d="M11 0l272 707h219l238 -707h-176l-67 207h-239l-77 -207h-170zM303 330h154l-71 272zM498 744l-275 49l27 131l271 -67z" />
    <glyph glyph-name="Aacute" unicode="&#xc1;" horiz-adv-x="751" 
d="M11 0l272 707h219l238 -707h-176l-67 207h-239l-77 -207h-170zM303 330h154l-71 272zM284 744l-23 113l271 67l27 -131z" />
    <glyph glyph-name="Acircumflex" unicode="&#xc2;" horiz-adv-x="751" 
d="M11 0l272 707h219l238 -707h-176l-67 207h-239l-77 -207h-170zM303 330h154l-71 272zM253 741l-58 107l191 96l192 -96l-59 -107l-133 61z" />
    <glyph glyph-name="Atilde" unicode="&#xc3;" horiz-adv-x="751" 
d="M11 0l272 707h219l238 -707h-176l-67 207h-239l-77 -207h-170zM303 330h154l-71 272zM444 755c-51 0 -89 38 -128 38c-19 0 -40 -2 -70 -28l-63 74c24 29 77 82 144 82c63 0 89 -38 123 -38c32 0 51 7 87 26l55 -74c-23 -25 -73 -80 -148 -80z" />
    <glyph glyph-name="Adieresis" unicode="&#xc4;" horiz-adv-x="751" 
d="M11 0l272 707h219l238 -707h-176l-67 207h-239l-77 -207h-170zM303 330h154l-71 272zM265 737l-99 100l99 100l100 -100zM509 737l-100 100l100 100l99 -100z" />
    <glyph glyph-name="Aring" unicode="&#xc5;" horiz-adv-x="751" 
d="M11 0l264 687c-22 20 -37 50 -37 93c0 96 78 136 152 136c60 0 152 -27 152 -134c0 -40 -13 -70 -35 -91l233 -691h-176l-67 208h-239l-77 -208h-170zM391 727c38 0 56 19 56 54c0 32 -23 54 -58 54c-42 0 -57 -18 -57 -51c0 -36 21 -57 59 -57zM303 331h154l-38 138
l-33 133l-39 -133z" />
    <glyph glyph-name="AE" unicode="&#xc6;" horiz-adv-x="996" 
d="M-12 0l332 707h605v-133h-294v-157h272v-124h-272v-160h317v-133h-487v244h-179l-102 -244h-192zM333 368h128v206h-42z" />
    <glyph glyph-name="Ccedilla" unicode="&#xc7;" horiz-adv-x="686" 
d="M435 -10c-259 0 -392 127 -392 359c0 246 131 368 388 368c105 0 167 -19 220 -43l-45 -123c-67 18 -95 25 -173 26c-128 2 -217 -70 -217 -218s94 -227 237 -227c69 0 110 6 164 20l36 -128c-68 -25 -127 -34 -218 -34zM339 -283l-57 100c25 15 76 35 76 70
c0 20 -7 42 -12 62h129c11 -25 22 -53 22 -81c0 -81 -95 -125 -158 -151z" />
    <glyph glyph-name="Egrave" unicode="&#xc8;" horiz-adv-x="613" 
d="M78 0v707h464v-133h-294v-157h272v-124h-272v-160h317v-133h-487zM420 744l-275 49l27 131l271 -67z" />
    <glyph glyph-name="Eacute" unicode="&#xc9;" horiz-adv-x="613" 
d="M78 0v707h464v-133h-294v-157h272v-124h-272v-160h317v-133h-487zM225 744l-23 113l271 67l27 -131z" />
    <glyph glyph-name="Ecircumflex" unicode="&#xca;" horiz-adv-x="613" 
d="M78 0v707h464v-133h-294v-157h272v-124h-272v-160h317v-133h-487zM185 741l-58 107l191 96l192 -96l-59 -107l-133 61z" />
    <glyph glyph-name="Edieresis" unicode="&#xcb;" horiz-adv-x="613" 
d="M78 0v707h464v-133h-294v-157h272v-124h-272v-160h317v-133h-487zM192 737l-99 100l99 100l100 -100zM436 737l-100 100l100 100l99 -100z" />
    <glyph glyph-name="Igrave" unicode="&#xcc;" horiz-adv-x="326" 
d="M78 0v707h170v-707h-170zM252 744l-275 49l27 131l271 -67z" />
    <glyph glyph-name="Iacute" unicode="&#xcd;" horiz-adv-x="326" 
d="M78 0v707h170v-707h-170zM78 744l-23 113l271 67l27 -131z" />
    <glyph glyph-name="Icircumflex" unicode="&#xce;" horiz-adv-x="326" 
d="M78 0v707h170v-707h-170zM28 741l-58 107l191 96l192 -96l-59 -107l-133 61z" />
    <glyph glyph-name="Idieresis" unicode="&#xcf;" horiz-adv-x="326" 
d="M78 0v707h170v-707h-170zM39 737l-99 100l99 100l100 -100zM283 737l-100 100l100 100l99 -100z" />
    <glyph glyph-name="Eth" unicode="&#xd0;" horiz-adv-x="787" 
d="M744 356c0 -245 -152 -356 -407 -356h-259v299h-74v100h74v308h253c245 0 413 -105 413 -351zM574 346c0 152 -76 228 -246 228h-81v-175h131v-100h-131v-166h101c163 0 226 74 226 213z" />
    <glyph glyph-name="Ntilde" unicode="&#xd1;" horiz-adv-x="796" 
d="M78 0v707h197l278 -485l-5 79v406h170v-707h-203l-271 473l4 -94v-379h-170zM463 755c-51 0 -89 38 -128 38c-19 0 -40 -2 -70 -28l-63 74c24 29 77 82 144 82c63 0 89 -38 123 -38c32 0 51 7 87 26l55 -74c-23 -25 -73 -80 -148 -80z" />
    <glyph glyph-name="Ograve" unicode="&#xd2;" horiz-adv-x="843" 
d="M413 -12c-248 0 -370 140 -370 367c0 223 148 363 389 363c257 0 368 -154 368 -365c0 -225 -135 -365 -387 -365zM416 122c156 0 211 100 211 232s-61 230 -204 230c-150 0 -208 -98 -208 -228c0 -129 57 -234 201 -234zM525 744l-275 49l27 131l271 -67z" />
    <glyph glyph-name="Oacute" unicode="&#xd3;" horiz-adv-x="843" 
d="M413 -12c-248 0 -370 140 -370 367c0 223 148 363 389 363c257 0 368 -154 368 -365c0 -225 -135 -365 -387 -365zM416 122c156 0 211 100 211 232s-61 230 -204 230c-150 0 -208 -98 -208 -228c0 -129 57 -234 201 -234zM329 744l-23 113l271 67l27 -131z" />
    <glyph glyph-name="Ocircumflex" unicode="&#xd4;" horiz-adv-x="843" 
d="M413 -12c-248 0 -370 140 -370 367c0 223 148 363 389 363c257 0 368 -154 368 -365c0 -225 -135 -365 -387 -365zM416 122c156 0 211 100 211 232s-61 230 -204 230c-150 0 -208 -98 -208 -228c0 -129 57 -234 201 -234zM289 741l-58 107l191 96l192 -96l-59 -107
l-133 61z" />
    <glyph glyph-name="Otilde" unicode="&#xd5;" horiz-adv-x="843" 
d="M413 -12c-248 0 -370 140 -370 367c0 223 148 363 389 363c257 0 368 -154 368 -365c0 -225 -135 -365 -387 -365zM416 122c156 0 211 100 211 232s-61 230 -204 230c-150 0 -208 -98 -208 -228c0 -129 57 -234 201 -234zM485 755c-51 0 -89 38 -128 38
c-19 0 -40 -2 -70 -28l-63 74c24 29 77 82 144 82c63 0 89 -38 123 -38c32 0 51 7 87 26l55 -74c-23 -25 -73 -80 -148 -80z" />
    <glyph glyph-name="Odieresis" unicode="&#xd6;" horiz-adv-x="843" 
d="M413 -12c-248 0 -370 140 -370 367c0 223 148 363 389 363c257 0 368 -154 368 -365c0 -225 -135 -365 -387 -365zM416 122c156 0 211 100 211 232s-61 230 -204 230c-150 0 -208 -98 -208 -228c0 -129 57 -234 201 -234zM293 737l-99 100l99 100l100 -100zM537 737
l-100 100l100 100l99 -100z" />
    <glyph glyph-name="multiply" unicode="&#xd7;" horiz-adv-x="567" 
d="M439 60l-157 159l-152 -157l-90 90l156 154l-156 153l87 91l154 -159l155 157l90 -90l-163 -154l163 -153z" />
    <glyph glyph-name="Oslash" unicode="&#xd8;" horiz-adv-x="843" 
d="M96 -45l-70 70l86 89c-46 61 -69 143 -69 241c0 239 148 363 389 363c89 0 161 -17 217 -49l83 86l71 -69l-78 -82c51 -62 75 -148 75 -251c0 -235 -135 -365 -387 -365c-95 0 -171 20 -229 58zM416 122c156 0 211 100 211 232c0 47 -8 89 -24 125l-310 -320
c31 -23 71 -37 123 -37zM234 240l304 314c-30 19 -68 30 -115 30c-150 0 -208 -98 -208 -228c0 -42 6 -82 19 -116z" />
    <glyph glyph-name="Ugrave" unicode="&#xd9;" horiz-adv-x="799" 
d="M402 -13c-163 0 -329 72 -329 301v419h172v-413c0 -108 49 -168 157 -168c107 0 157 63 157 189v392h167v-395c0 -247 -166 -325 -324 -325zM507 744l-275 49l27 131l271 -67z" />
    <glyph glyph-name="Uacute" unicode="&#xda;" horiz-adv-x="799" 
d="M402 -13c-163 0 -329 72 -329 301v419h172v-413c0 -108 49 -168 157 -168c107 0 157 63 157 189v392h167v-395c0 -247 -166 -325 -324 -325zM318 744l-23 113l271 67l27 -131z" />
    <glyph glyph-name="Ucircumflex" unicode="&#xdb;" horiz-adv-x="799" 
d="M402 -13c-163 0 -329 72 -329 301v419h172v-413c0 -108 49 -168 157 -168c107 0 157 63 157 189v392h167v-395c0 -247 -166 -325 -324 -325zM271 741l-58 107l191 96l192 -96l-59 -107l-133 61z" />
    <glyph glyph-name="Udieresis" unicode="&#xdc;" horiz-adv-x="799" 
d="M402 -13c-163 0 -329 72 -329 301v419h172v-413c0 -108 49 -168 157 -168c107 0 157 63 157 189v392h167v-395c0 -247 -166 -325 -324 -325zM280 737l-99 100l99 100l100 -100zM524 737l-100 100l100 100l99 -100z" />
    <glyph glyph-name="Yacute" unicode="&#xdd;" horiz-adv-x="709" 
d="M261 0v227l-261 480h196l156 -337l166 337h191l-278 -474v-233h-170zM273 744l-23 113l271 67l27 -131z" />
    <glyph glyph-name="Thorn" unicode="&#xde;" horiz-adv-x="654" 
d="M78 0v708h171v-99h104c159 0 273 -93 273 -251c0 -139 -114 -256 -325 -256h-52v-102h-171zM249 476v-243h58c106 0 144 55 144 121c0 71 -29 122 -120 122h-82z" />
    <glyph glyph-name="germandbls" unicode="&#xdf;" horiz-adv-x="690" 
d="M78 -189v737c0 174 103 232 252 232c70 0 249 -29 249 -184c0 -102 -127 -144 -127 -202c0 -72 210 -59 210 -229c0 -137 -129 -178 -217 -178c-61 0 -143 6 -183 20l20 128c66 -10 92 -14 127 -14s89 4 89 34c0 59 -213 48 -213 239c0 104 117 142 117 200
c0 35 -51 51 -74 51c-62 0 -84 -36 -84 -98v-736h-166z" />
    <glyph glyph-name="agrave" unicode="&#xe0;" horiz-adv-x="627" 
d="M226 -9c-120 0 -188 56 -188 165c0 138 126 166 234 166h95v34c0 48 -31 62 -99 62c-54 0 -112 -12 -163 -24l-33 121c62 24 134 44 221 44c169 0 237 -48 237 -171v-243c0 -18 18 -22 49 -23l-6 -126c-13 -1 -26 -1 -39 -1c-66 0 -136 11 -151 58
c-40 -31 -97 -62 -157 -62zM261 120c32 0 70 9 106 19v86l-82 -2c-49 -1 -85 -17 -85 -57c0 -32 31 -46 61 -46zM372 602l-244 104l54 117l238 -121z" />
    <glyph glyph-name="aacute" unicode="&#xe1;" horiz-adv-x="627" 
d="M226 -9c-120 0 -188 56 -188 165c0 138 126 166 234 166h95v34c0 48 -31 62 -99 62c-54 0 -112 -12 -163 -24l-33 121c62 24 134 44 221 44c169 0 237 -48 237 -171v-243c0 -18 18 -22 49 -23l-6 -126c-13 -1 -26 -1 -39 -1c-66 0 -136 11 -151 58
c-40 -31 -97 -62 -157 -62zM261 120c32 0 70 9 106 19v86l-82 -2c-49 -1 -85 -17 -85 -57c0 -32 31 -46 61 -46zM224 602l-47 100l238 121l54 -117z" />
    <glyph glyph-name="acircumflex" unicode="&#xe2;" horiz-adv-x="627" 
d="M226 -9c-120 0 -188 56 -188 165c0 138 126 166 234 166h95v34c0 48 -31 62 -99 62c-54 0 -112 -12 -163 -24l-33 121c62 24 134 44 221 44c169 0 237 -48 237 -171v-243c0 -18 18 -22 49 -23l-6 -126c-13 -1 -26 -1 -39 -1c-66 0 -136 11 -151 58
c-40 -31 -97 -62 -157 -62zM261 120c32 0 70 9 106 19v86l-82 -2c-49 -1 -85 -17 -85 -57c0 -32 31 -46 61 -46zM426 606l-129 90l-128 -89l-73 92l202 130l196 -131z" />
    <glyph glyph-name="atilde" unicode="&#xe3;" horiz-adv-x="627" 
d="M226 -9c-120 0 -188 56 -188 165c0 138 126 166 234 166h95v34c0 48 -31 62 -99 62c-54 0 -112 -12 -163 -24l-33 121c62 24 134 44 221 44c169 0 237 -48 237 -171v-243c0 -18 18 -22 49 -23l-6 -126c-13 -1 -26 -1 -39 -1c-66 0 -136 11 -151 58
c-40 -31 -97 -62 -157 -62zM261 120c32 0 70 9 106 19v86l-82 -2c-49 -1 -85 -17 -85 -57c0 -32 31 -46 61 -46zM349 634c-51 0 -89 38 -128 38c-19 0 -40 -2 -70 -28l-63 74c24 29 77 82 144 82c63 0 89 -38 123 -38c32 0 51 7 87 26l55 -74c-23 -25 -73 -80 -148 -80z" />
    <glyph glyph-name="adieresis" unicode="&#xe4;" horiz-adv-x="627" 
d="M226 -9c-120 0 -188 56 -188 165c0 138 126 166 234 166h95v34c0 48 -31 62 -99 62c-54 0 -112 -12 -163 -24l-33 121c62 24 134 44 221 44c169 0 237 -48 237 -171v-243c0 -18 18 -22 49 -23l-6 -126c-13 -1 -26 -1 -39 -1c-66 0 -136 11 -151 58
c-40 -31 -97 -62 -157 -62zM261 120c32 0 70 9 106 19v86l-82 -2c-49 -1 -85 -17 -85 -57c0 -32 31 -46 61 -46zM180 622l-93 94l93 94l94 -94zM424 622l-94 94l94 94l93 -94z" />
    <glyph glyph-name="aring" unicode="&#xe5;" horiz-adv-x="627" 
d="M226 -9c-120 0 -188 56 -188 165c0 138 126 166 234 166h95v34c0 48 -31 62 -99 62c-54 0 -112 -12 -163 -24l-33 121c62 24 134 44 221 44c169 0 237 -48 237 -171v-243c0 -18 18 -22 49 -23l-6 -126c-13 -1 -26 -1 -39 -1c-66 0 -136 11 -151 58
c-40 -31 -97 -62 -157 -62zM261 120c32 0 70 9 106 19v86l-82 -2c-49 -1 -85 -17 -85 -57c0 -32 31 -46 61 -46zM305 586c-70 0 -150 27 -150 126c0 93 75 134 147 134c58 0 149 -28 149 -132c0 -90 -70 -128 -146 -128zM303 657c39 0 58 21 61 56c0 34 -26 56 -61 56
c-43 0 -61 -19 -61 -54c0 -36 22 -58 61 -58z" />
    <glyph glyph-name="ae" unicode="&#xe6;" horiz-adv-x="925" 
d="M663 -9c-108 0 -193 20 -244 83c-38 -34 -108 -82 -193 -82c-120 0 -188 53 -188 162c0 142 126 158 234 161c0 0 65 3 95 3v44c0 48 -31 56 -99 56c-54 0 -112 -12 -163 -24l-33 121c64 24 134 44 221 44c69 0 140 -3 187 -39c46 28 103 39 169 39
c172 0 238 -112 238 -277v-53l-354 -8c-1 -86 66 -100 153 -100c37 0 100 9 157 19l25 -127c-61 -18 -139 -22 -205 -22zM246 122c31 0 100 10 138 20c-7 22 -12 46 -15 74l-84 -2c-86 -2 -84 -27 -84 -51c0 -28 14 -41 45 -41zM538 329l178 7c2 66 -37 103 -79 103
c-51 0 -99 -31 -99 -110z" />
    <glyph glyph-name="ccedilla" unicode="&#xe7;" horiz-adv-x="537" 
d="M356 -11c-231 0 -318 85 -318 289c0 170 114 282 299 282c80 0 131 -15 174 -38l-43 -121c-44 17 -68 23 -124 23c-69 0 -135 -31 -135 -148c0 -105 25 -154 156 -154c46 0 71 6 116 14l23 -127c-59 -13 -87 -20 -148 -20zM248 -283l-57 100c25 15 76 35 76 70
c0 20 -7 42 -12 62h129c11 -25 22 -53 22 -81c0 -81 -95 -125 -158 -151z" />
    <glyph glyph-name="egrave" unicode="&#xe8;" horiz-adv-x="596" 
d="M334 -12c-180 0 -296 59 -296 277c0 223 117 294 282 294c172 0 238 -112 238 -277v-60h-354c-1 -86 67 -102 154 -102c37 0 99 12 156 22l25 -127c-61 -18 -139 -27 -205 -27zM209 329h178c2 66 -27 112 -81 112c-57 0 -94 -40 -97 -112zM374 602l-244 104l54 117
l238 -121z" />
    <glyph glyph-name="eacute" unicode="&#xe9;" horiz-adv-x="596" 
d="M334 -12c-180 0 -296 59 -296 277c0 223 117 294 282 294c172 0 238 -112 238 -277v-60h-354c-1 -86 67 -102 154 -102c37 0 99 12 156 22l25 -127c-61 -18 -139 -27 -205 -27zM209 329h178c2 66 -27 112 -81 112c-57 0 -94 -40 -97 -112zM228 602l-47 100l238 121
l54 -117z" />
    <glyph glyph-name="ecircumflex" unicode="&#xea;" horiz-adv-x="596" 
d="M334 -12c-180 0 -296 59 -296 277c0 223 117 294 282 294c172 0 238 -112 238 -277v-60h-354c-1 -86 67 -102 154 -102c37 0 99 12 156 22l25 -127c-61 -18 -139 -27 -205 -27zM209 329h178c2 66 -27 112 -81 112c-57 0 -94 -40 -97 -112zM428 606l-129 90l-128 -89
l-73 92l202 130l196 -131z" />
    <glyph glyph-name="edieresis" unicode="&#xeb;" horiz-adv-x="596" 
d="M334 -12c-180 0 -296 59 -296 277c0 223 117 294 282 294c172 0 238 -112 238 -277v-60h-354c-1 -86 67 -102 154 -102c37 0 99 12 156 22l25 -127c-61 -18 -139 -27 -205 -27zM209 329h178c2 66 -27 112 -81 112c-57 0 -94 -40 -97 -112zM181 622l-93 94l93 94l94 -94z
M425 622l-94 94l94 94l93 -94z" />
    <glyph glyph-name="igrave" unicode="&#xec;" horiz-adv-x="303" 
d="M68 0v546h167v-546h-167zM217 602l-244 104l54 117l238 -121z" />
    <glyph glyph-name="iacute" unicode="&#xed;" horiz-adv-x="303" 
d="M68 0v546h167v-546h-167zM76 602l-47 100l238 121l54 -117z" />
    <glyph glyph-name="icircumflex" unicode="&#xee;" horiz-adv-x="303" 
d="M68 0v546h167v-546h-167zM281 606l-129 90l-128 -89l-73 92l202 130l196 -131z" />
    <glyph glyph-name="idieresis" unicode="&#xef;" horiz-adv-x="303" 
d="M68 0v546h167v-546h-167zM34 622l-93 94l93 94l94 -94zM278 622l-94 94l94 94l93 -94z" />
    <glyph glyph-name="eth" unicode="&#xf0;" horiz-adv-x="643" 
d="M315 -12c-180 0 -277 99 -277 270c0 161 123 280 276 280c33 0 52 -3 79 -14c-19 27 -51 57 -78 78l-62 -55l-50 53l49 44c-20 11 -42 21 -65 31l84 105c29 -9 60 -22 91 -40l59 53l51 -53l-47 -42c100 -83 179 -197 179 -426c0 -184 -120 -284 -289 -284zM323 121
c90 0 112 49 112 142c0 88 -32 143 -124 143c-79 0 -105 -55 -105 -144c0 -94 28 -141 117 -141z" />
    <glyph glyph-name="ntilde" unicode="&#xf1;" horiz-adv-x="664" 
d="M68 0v546h167v-55c33 25 105 69 178 69c171 0 183 -94 183 -218v-342h-166v328c0 75 -17 88 -73 88c-50 0 -95 -16 -122 -29v-387h-167zM386 634c-51 0 -89 38 -128 38c-19 0 -40 -2 -70 -28l-63 74c24 29 77 82 144 82c63 0 89 -38 123 -38c32 0 51 7 87 26l55 -74
c-23 -25 -73 -80 -148 -80z" />
    <glyph glyph-name="ograve" unicode="&#xf2;" horiz-adv-x="643" 
d="M315 -12c-180 0 -277 109 -277 280c0 181 113 292 286 292c194 0 281 -109 281 -287c0 -186 -122 -285 -290 -285zM323 121c90 0 112 59 112 152c0 88 -22 155 -114 155c-90 0 -115 -67 -115 -156c0 -94 28 -151 117 -151zM402 602l-244 104l54 117l238 -121z" />
    <glyph glyph-name="oacute" unicode="&#xf3;" horiz-adv-x="643" 
d="M315 -12c-180 0 -277 109 -277 280c0 181 113 292 286 292c194 0 281 -109 281 -287c0 -186 -122 -285 -290 -285zM323 121c90 0 112 59 112 152c0 88 -22 155 -114 155c-90 0 -115 -67 -115 -156c0 -94 28 -151 117 -151zM232 602l-47 100l238 121l54 -117z" />
    <glyph glyph-name="ocircumflex" unicode="&#xf4;" horiz-adv-x="643" 
d="M315 -12c-180 0 -277 109 -277 280c0 181 113 292 286 292c194 0 281 -109 281 -287c0 -186 -122 -285 -290 -285zM323 121c90 0 112 59 112 152c0 88 -22 155 -114 155c-90 0 -115 -67 -115 -156c0 -94 28 -151 117 -151zM451 606l-129 90l-128 -89l-73 92l202 130
l196 -131z" />
    <glyph glyph-name="otilde" unicode="&#xf5;" horiz-adv-x="643" 
d="M315 -12c-180 0 -277 109 -277 280c0 181 113 292 286 292c194 0 281 -109 281 -287c0 -186 -122 -285 -290 -285zM323 121c90 0 112 59 112 152c0 88 -22 155 -114 155c-90 0 -115 -67 -115 -156c0 -94 28 -151 117 -151zM375 634c-51 0 -89 38 -128 38
c-19 0 -40 -2 -70 -28l-63 74c24 29 77 82 144 82c63 0 89 -38 123 -38c32 0 51 7 87 26l55 -74c-23 -25 -73 -80 -148 -80z" />
    <glyph glyph-name="odieresis" unicode="&#xf6;" horiz-adv-x="643" 
d="M315 -12c-180 0 -277 109 -277 280c0 181 113 292 286 292c194 0 281 -109 281 -287c0 -186 -122 -285 -290 -285zM323 121c90 0 112 59 112 152c0 88 -22 155 -114 155c-90 0 -115 -67 -115 -156c0 -94 28 -151 117 -151zM204 622l-93 94l93 94l94 -94zM448 622l-94 94
l94 94l93 -94z" />
    <glyph glyph-name="divide" unicode="&#xf7;" horiz-adv-x="600" 
d="M230 46v128h138v-128h-138zM39 242v126h524v-126h-524zM230 433v128h138v-128h-138z" />
    <glyph glyph-name="oslash" unicode="&#xf8;" horiz-adv-x="643" 
d="M76 -22l-50 49l62 62c-33 47 -50 107 -50 179c0 181 113 292 286 292c77 0 137 -17 181 -49l59 59l49 -49l-58 -59c34 -48 50 -112 50 -189c0 -186 -122 -285 -290 -285c-74 0 -133 18 -178 51zM323 121c90 0 112 59 112 152c0 22 -1 44 -5 63l-187 -189
c19 -17 44 -26 80 -26zM211 214l186 188c-17 17 -42 26 -76 26c-90 0 -115 -67 -115 -156c0 -21 1 -41 5 -58z" />
    <glyph glyph-name="ugrave" unicode="&#xf9;" horiz-adv-x="664" 
d="M251 -12c-171 0 -183 95 -183 219v339h166v-325c0 -75 17 -88 73 -88c50 0 95 14 122 27v386h167v-546h-167v56c-33 -25 -105 -68 -178 -68zM394 602l-244 104l54 117l238 -121z" />
    <glyph glyph-name="uacute" unicode="&#xfa;" horiz-adv-x="664" 
d="M251 -12c-171 0 -183 95 -183 219v339h166v-325c0 -75 17 -88 73 -88c50 0 95 14 122 27v386h167v-546h-167v56c-33 -25 -105 -68 -178 -68zM273 607l-47 100l238 121l54 -117z" />
    <glyph glyph-name="ucircumflex" unicode="&#xfb;" horiz-adv-x="664" 
d="M251 -12c-171 0 -183 95 -183 219v339h166v-325c0 -75 17 -88 73 -88c50 0 95 14 122 27v386h167v-546h-167v56c-33 -25 -105 -68 -178 -68zM462 606l-129 90l-128 -89l-73 92l202 130l196 -131z" />
    <glyph glyph-name="udieresis" unicode="&#xfc;" horiz-adv-x="664" 
d="M251 -12c-171 0 -183 95 -183 219v339h166v-325c0 -75 17 -88 73 -88c50 0 95 14 122 27v386h167v-546h-167v56c-33 -25 -105 -68 -178 -68zM215 622l-93 94l93 94l94 -94zM459 622l-94 94l94 94l93 -94z" />
    <glyph glyph-name="yacute" unicode="&#xfd;" horiz-adv-x="616" 
d="M182 -220l74 220h-60l-188 546h179l94 -324l23 -89l27 89l109 324h168l-267 -766h-159zM250 602l-47 100l238 121l54 -117z" />
    <glyph glyph-name="thorn" unicode="&#xfe;" horiz-adv-x="645" 
d="M68 -220v975h166v-248c22 19 82 53 132 53c150 0 241 -69 241 -262c0 -228 -147 -308 -306 -308c-25 0 -47 3 -67 4v-214h-166zM305 117c85 0 134 74 134 176c0 98 -39 127 -123 127c-28 0 -61 -8 -82 -15v-282c16 -2 44 -6 71 -6z" />
    <glyph glyph-name="ydieresis" unicode="&#xff;" horiz-adv-x="616" 
d="M182 -220l74 220h-60l-188 546h179l94 -324l23 -89l27 89l109 324h168l-267 -766h-159zM191 622l-93 94l93 94l94 -94zM435 622l-94 94l94 94l93 -94z" />
    <glyph glyph-name="Amacron" unicode="&#x100;" horiz-adv-x="751" 
d="M11 0l272 707h219l238 -707h-176l-67 207h-239l-77 -207h-170zM303 330h154l-71 272zM228 765v129h328v-129h-328z" />
    <glyph glyph-name="amacron" unicode="&#x101;" horiz-adv-x="627" 
d="M226 -9c-120 0 -188 56 -188 165c0 138 126 166 234 166h95v34c0 48 -31 62 -99 62c-54 0 -112 -12 -163 -24l-33 121c62 24 134 44 221 44c169 0 237 -48 237 -171v-243c0 -18 18 -22 49 -23l-6 -126c-13 -1 -26 -1 -39 -1c-66 0 -136 11 -151 58
c-40 -31 -97 -62 -157 -62zM261 120c32 0 70 9 106 19v86l-82 -2c-49 -1 -85 -17 -85 -57c0 -32 31 -46 61 -46zM146 647v129h328v-129h-328z" />
    <glyph glyph-name="Abreve" unicode="&#x102;" horiz-adv-x="751" 
d="M11 0l272 707h219l238 -707h-176l-67 207h-239l-77 -207h-170zM303 330h154l-71 272zM393 754c-109 0 -171 63 -201 111l86 74c36 -34 76 -62 119 -62c42 0 80 27 114 62l81 -73c-32 -47 -95 -112 -199 -112z" />
    <glyph glyph-name="abreve" unicode="&#x103;" horiz-adv-x="627" 
d="M226 -9c-120 0 -188 56 -188 165c0 138 126 166 234 166h95v34c0 48 -31 62 -99 62c-54 0 -112 -12 -163 -24l-33 121c62 24 134 44 221 44c169 0 237 -48 237 -171v-243c0 -18 18 -22 49 -23l-6 -126c-13 -1 -26 -1 -39 -1c-66 0 -136 11 -151 58
c-40 -31 -97 -62 -157 -62zM261 120c32 0 70 9 106 19v86l-82 -2c-49 -1 -85 -17 -85 -57c0 -32 31 -46 61 -46zM315 614c-109 0 -171 63 -201 111l86 74c36 -34 76 -62 119 -62c42 0 80 27 114 62l81 -73c-32 -47 -95 -112 -199 -112z" />
    <glyph glyph-name="Aogonek" unicode="&#x104;" horiz-adv-x="751" 
d="M767 -234c-34 -15 -63 -26 -124 -26c-118 0 -167 34 -167 112c0 43 33 90 88 148l-67 208h-239l-77 -208h-170l272 707h219l237 -707c-47 -30 -105 -74 -105 -114c0 -18 19 -22 33 -22c19 0 49 2 72 9zM457 331l-38 138l-33 133l-39 -133l-44 -138h154z" />
    <glyph glyph-name="aogonek" unicode="&#x105;" horiz-adv-x="627" 
d="M586 -234c-34 -15 -63 -26 -124 -26c-118 0 -152 51 -152 111c0 58 62 112 117 149c-18 9 -39 35 -44 53c-40 -31 -97 -61 -157 -61c-120 0 -188 53 -188 162c0 138 126 161 234 161h95v47c0 48 -31 56 -99 56c-54 0 -112 -12 -163 -24l-33 121c64 24 134 44 221 44
c115 0 237 -7 237 -165v-249c0 -18 18 -22 49 -23l-8 -127c-45 -30 -118 -71 -118 -109c0 -18 19 -22 33 -22c19 0 49 2 72 9zM367 139v79l-82 -2c-86 -2 -84 -29 -84 -53c0 -28 14 -41 45 -41c32 0 85 7 121 17z" />
    <glyph glyph-name="Cacute" unicode="&#x106;" horiz-adv-x="686" 
d="M435 -10c-259 0 -392 127 -392 359c0 246 131 368 388 368c105 0 167 -19 220 -43l-45 -123c-67 18 -95 25 -173 26c-128 2 -217 -70 -217 -218s94 -227 237 -227c69 0 110 6 164 20l36 -128c-68 -25 -127 -34 -218 -34zM296 744l-23 113l271 67l27 -131z" />
    <glyph glyph-name="cacute" unicode="&#x107;" horiz-adv-x="537" 
d="M356 -11c-231 0 -318 85 -318 289c0 170 114 282 299 282c80 0 131 -15 174 -38l-43 -121c-44 17 -68 23 -124 23c-69 0 -135 -31 -135 -148c0 -105 25 -154 156 -154c46 0 71 6 116 14l23 -127c-59 -13 -87 -20 -148 -20zM215 602l-47 100l238 121l54 -117z" />
    <glyph glyph-name="Ccircumflex" unicode="&#x108;" horiz-adv-x="686" 
d="M435 -10c-259 0 -392 127 -392 359c0 246 131 368 388 368c105 0 167 -19 220 -43l-45 -123c-67 18 -95 25 -173 26c-128 2 -217 -70 -217 -218s94 -227 237 -227c69 0 110 6 164 20l36 -128c-68 -25 -127 -34 -218 -34zM301 741l-58 107l191 96l192 -96l-59 -107
l-133 61z" />
    <glyph glyph-name="ccircumflex" unicode="&#x109;" horiz-adv-x="537" 
d="M356 -11c-231 0 -318 85 -318 289c0 170 114 282 299 282c80 0 131 -15 174 -38l-43 -121c-44 17 -68 23 -124 23c-69 0 -135 -31 -135 -148c0 -105 25 -154 156 -154c46 0 71 6 116 14l23 -127c-59 -13 -87 -20 -148 -20zM454 606l-129 90l-128 -89l-73 92l202 130
l196 -131z" />
    <glyph glyph-name="Cdotaccent" unicode="&#x10a;" horiz-adv-x="686" 
d="M435 -10c-259 0 -392 127 -392 359c0 246 131 368 388 368c105 0 167 -19 220 -43l-45 -123c-67 18 -95 25 -173 26c-128 2 -217 -70 -217 -218s94 -227 237 -227c69 0 110 6 164 20l36 -128c-68 -25 -127 -34 -218 -34zM516 849l-94 -94l-94 94l94 94z" />
    <glyph glyph-name="cdotaccent" unicode="&#x10b;" horiz-adv-x="537" 
d="M356 -11c-231 0 -318 85 -318 289c0 170 114 282 299 282c80 0 131 -15 174 -38l-43 -121c-44 17 -68 23 -124 23c-69 0 -135 -31 -135 -148c0 -105 25 -154 156 -154c46 0 71 6 116 14l23 -127c-59 -13 -87 -20 -148 -20zM330 604l-111 112l111 111l112 -111z" />
    <glyph glyph-name="Ccaron" unicode="&#x10c;" horiz-adv-x="686" 
d="M435 -10c-259 0 -392 127 -392 359c0 246 131 368 388 368c105 0 167 -19 220 -43l-45 -123c-67 18 -95 25 -173 26c-128 2 -217 -70 -217 -218s94 -227 237 -227c69 0 110 6 164 20l36 -128c-68 -25 -127 -34 -218 -34zM609 837l-192 -97l-191 97l58 106l133 -60l133 60
z" />
    <glyph glyph-name="ccaron" unicode="&#x10d;" horiz-adv-x="537" 
d="M356 -11c-231 0 -318 85 -318 289c0 170 114 282 299 282c80 0 131 -15 174 -38l-43 -121c-44 17 -68 23 -124 23c-69 0 -135 -31 -135 -148c0 -105 25 -154 156 -154c46 0 71 6 116 14l23 -127c-59 -13 -87 -20 -148 -20zM302 580l-196 131l68 92l129 -90l128 89l73 -92
z" />
    <glyph glyph-name="Dcaron" unicode="&#x10e;" horiz-adv-x="787" 
d="M78 0v707h253c245 0 413 -105 413 -351c0 -245 -152 -356 -407 -356h-259zM247 133h101c163 0 226 74 226 213c0 152 -76 228 -246 228h-81v-441zM545 837l-192 -97l-191 97l58 106l133 -60l133 60z" />
    <glyph glyph-name="dcaron" unicode="&#x10f;" horiz-adv-x="738" 
d="M283 -8c-110 0 -245 53 -245 290c0 187 131 278 297 278c30 0 55 -4 72 -6v200h167v-754h-167v39c-24 -19 -55 -47 -124 -47zM316 130c30 0 66 8 91 18v273c-17 3 -39 7 -69 7c-95 0 -134 -54 -134 -149c0 -119 53 -149 112 -149zM772 754l-45 -220h-116l21 220h140z" />
    <glyph glyph-name="Dcroat" unicode="&#x110;" horiz-adv-x="787" 
d="M744 356c0 -245 -152 -356 -407 -356h-259v299h-74v100h74v308h253c245 0 413 -105 413 -351zM574 346c0 152 -76 228 -246 228h-81v-175h131v-100h-131v-166h101c163 0 226 74 226 213z" />
    <glyph glyph-name="dcroat" unicode="&#x111;" horiz-adv-x="642" 
d="M574 0h-167v39c-24 -19 -55 -46 -124 -46c-110 0 -245 52 -245 289c0 187 131 288 297 288c30 0 55 -4 72 -6v47h-102v79h102v64h167v-64h59v-79h-59v-611zM407 148v283c-17 3 -39 7 -69 7c-95 0 -134 -64 -134 -159c0 -119 53 -148 112 -148c30 0 66 7 91 17z" />
    <glyph glyph-name="Emacron" unicode="&#x112;" horiz-adv-x="613" 
d="M78 0v707h464v-133h-294v-157h272v-124h-272v-160h317v-133h-487zM151 765v129h328v-129h-328z" />
    <glyph glyph-name="emacron" unicode="&#x113;" horiz-adv-x="596" 
d="M334 -12c-180 0 -296 59 -296 277c0 223 117 294 282 294c172 0 238 -112 238 -277v-60h-354c-1 -86 67 -102 154 -102c37 0 99 12 156 22l25 -127c-61 -18 -139 -27 -205 -27zM209 329h178c2 66 -27 112 -81 112c-57 0 -94 -40 -97 -112zM146 647v129h328v-129h-328z
" />
    <glyph glyph-name="Ebreve" unicode="&#x114;" horiz-adv-x="613" 
d="M78 0v707h464v-133h-294v-157h272v-124h-272v-160h317v-133h-487zM314 754c-109 0 -171 63 -201 111l86 74c36 -34 76 -62 119 -62c42 0 80 27 114 62l81 -73c-32 -47 -95 -112 -199 -112z" />
    <glyph glyph-name="ebreve" unicode="&#x115;" horiz-adv-x="596" 
d="M334 -12c-180 0 -296 59 -296 277c0 223 117 294 282 294c172 0 238 -112 238 -277v-60h-354c-1 -86 67 -102 154 -102c37 0 99 12 156 22l25 -127c-61 -18 -139 -27 -205 -27zM209 329h178c2 66 -27 112 -81 112c-57 0 -94 -40 -97 -112zM314 614
c-109 0 -171 63 -201 111l86 74c36 -34 76 -62 119 -62c42 0 80 27 114 62l81 -73c-32 -47 -95 -112 -199 -112z" />
    <glyph glyph-name="Edotaccent" unicode="&#x116;" horiz-adv-x="613" 
d="M78 0v707h464v-133h-294v-157h272v-124h-272v-160h317v-133h-487zM414 849l-94 -94l-94 94l94 94z" />
    <glyph glyph-name="edotaccent" unicode="&#x117;" horiz-adv-x="596" 
d="M334 -12c-180 0 -296 59 -296 277c0 223 117 294 282 294c172 0 238 -112 238 -277v-60h-354c-1 -86 67 -102 154 -102c37 0 99 12 156 22l25 -127c-61 -18 -139 -27 -205 -27zM209 329h178c2 66 -27 112 -81 112c-57 0 -94 -40 -97 -112zM311 604l-111 112l111 111
l112 -111z" />
    <glyph glyph-name="Eogonek" unicode="&#x118;" horiz-adv-x="613" 
d="M572 -234c-34 -15 -63 -26 -124 -26c-118 0 -153 43 -153 102c0 76 80 129 126 158h-343v707h464v-133h-294v-157h272v-124h-272v-160h317v-133c-48 -31 -126 -74 -126 -114c0 -18 19 -22 33 -22c19 0 49 2 72 9z" />
    <glyph glyph-name="eogonek" unicode="&#x119;" horiz-adv-x="596" 
d="M422 -260c-108 0 -153 38 -153 116c0 49 40 100 79 135c-14 -1 -28 -2 -41 -2c-161 0 -269 75 -269 276c0 223 117 294 282 294c172 0 238 -112 238 -277v-60h-354c-1 -86 67 -102 154 -102c37 0 99 10 156 20l24 -127c-53 -30 -117 -81 -117 -127c0 -18 19 -22 33 -22
c19 0 49 2 72 9l28 -107c-34 -15 -71 -26 -132 -26zM209 330h178c2 66 -27 112 -79 112c-54 0 -96 -40 -99 -112z" />
    <glyph glyph-name="Ecaron" unicode="&#x11a;" horiz-adv-x="613" 
d="M78 0v707h464v-133h-294v-157h272v-124h-272v-160h317v-133h-487zM503 837l-192 -97l-191 97l58 106l133 -60l133 60z" />
    <glyph glyph-name="ecaron" unicode="&#x11b;" horiz-adv-x="596" 
d="M334 -12c-180 0 -296 59 -296 277c0 223 117 294 282 294c172 0 238 -112 238 -277v-60h-354c-1 -86 67 -102 154 -102c37 0 99 12 156 22l25 -127c-61 -18 -139 -27 -205 -27zM209 329h178c2 66 -27 112 -81 112c-57 0 -94 -40 -97 -112zM305 580l-196 131l68 92
l129 -90l128 89l73 -92z" />
    <glyph glyph-name="Gcircumflex" unicode="&#x11c;" horiz-adv-x="734" 
d="M431 -10c-235 0 -388 114 -388 359c0 256 139 368 396 368c100 0 156 -20 212 -43l-45 -123c-67 17 -98 26 -170 26c-126 0 -220 -62 -220 -218s104 -227 233 -227c16 0 31 1 45 1v217h170v-319c-80 -31 -147 -41 -233 -41zM290 741l-58 107l191 96l192 -96l-59 -107
l-133 61z" />
    <glyph glyph-name="gcircumflex" unicode="&#x11d;" horiz-adv-x="642" 
d="M302 -221c-85 0 -163 16 -226 33l26 131c67 -14 138 -24 178 -24c80 0 128 10 128 89v11c-23 -16 -57 -28 -89 -28c-132 0 -281 30 -281 279c0 187 138 290 303 290c81 0 144 -10 233 -28v-537c0 -160 -152 -216 -272 -216zM328 118c28 0 52 1 79 9v286
c-18 5 -39 10 -67 10c-95 0 -136 -59 -136 -153c0 -118 50 -152 124 -152zM483 606l-129 90l-128 -89l-73 92l202 130l196 -131z" />
    <glyph glyph-name="Gbreve" unicode="&#x11e;" horiz-adv-x="734" 
d="M431 -10c-235 0 -388 114 -388 359c0 256 139 368 396 368c100 0 156 -20 212 -43l-45 -123c-67 17 -98 26 -170 26c-126 0 -220 -62 -220 -218s104 -227 233 -227c16 0 31 1 45 1v217h170v-319c-80 -31 -147 -41 -233 -41zM419 754c-109 0 -171 63 -201 111l86 74
c36 -34 76 -62 119 -62c42 0 80 27 114 62l81 -73c-32 -47 -95 -112 -199 -112z" />
    <glyph glyph-name="gbreve" unicode="&#x11f;" horiz-adv-x="642" 
d="M302 -221c-85 0 -163 16 -226 33l26 131c67 -14 138 -24 178 -24c80 0 128 10 128 89v11c-23 -16 -57 -28 -89 -28c-132 0 -281 30 -281 279c0 187 138 290 303 290c81 0 144 -10 233 -28v-537c0 -160 -152 -216 -272 -216zM328 118c28 0 52 1 79 9v286
c-18 5 -39 10 -67 10c-95 0 -136 -59 -136 -153c0 -118 50 -152 124 -152zM339 614c-109 0 -171 63 -201 111l86 74c36 -34 76 -62 119 -62c42 0 80 27 114 62l81 -73c-32 -47 -95 -112 -199 -112z" />
    <glyph glyph-name="Gdotaccent" unicode="&#x120;" horiz-adv-x="734" 
d="M431 -10c-235 0 -388 114 -388 359c0 256 139 368 396 368c100 0 156 -20 212 -43l-45 -123c-67 17 -98 26 -170 26c-126 0 -220 -62 -220 -218s104 -227 233 -227c16 0 31 1 45 1v217h170v-319c-80 -31 -147 -41 -233 -41zM535 849l-94 -94l-94 94l94 94z" />
    <glyph glyph-name="gdotaccent" unicode="&#x121;" horiz-adv-x="642" 
d="M302 -221c-85 0 -163 16 -226 33l26 131c67 -14 138 -24 178 -24c80 0 128 10 128 89v11c-23 -16 -57 -28 -89 -28c-132 0 -281 30 -281 279c0 187 138 290 303 290c81 0 144 -10 233 -28v-537c0 -160 -152 -216 -272 -216zM328 118c28 0 52 1 79 9v286
c-18 5 -39 10 -67 10c-95 0 -136 -59 -136 -153c0 -118 50 -152 124 -152zM360 604l-111 112l111 111l112 -111z" />
    <glyph glyph-name="Gcommaaccent" unicode="&#x122;" horiz-adv-x="734" 
d="M431 -10c-235 0 -388 114 -388 359c0 256 139 368 396 368c100 0 156 -20 212 -43l-45 -123c-67 17 -98 26 -170 26c-126 0 -220 -62 -220 -218s104 -227 233 -227c16 0 31 1 45 1v217h170v-319c-80 -31 -147 -41 -233 -41zM516 -58l-45 -220h-116l21 220h140z" />
    <glyph glyph-name="gcommaaccent" unicode="&#x123;" horiz-adv-x="642" 
d="M275 603l53 200h134l-31 -200h-156zM302 -221c-85 0 -163 16 -226 33l26 131c67 -14 138 -24 178 -24c80 0 128 10 128 89v11c-23 -16 -57 -28 -89 -28c-132 0 -281 30 -281 279c0 187 138 290 303 290c81 0 144 -10 233 -28v-537c0 -160 -152 -216 -272 -216zM328 118
c28 0 52 1 79 9v286c-18 5 -39 10 -67 10c-95 0 -136 -59 -136 -153c0 -118 50 -152 124 -152z" />
    <glyph glyph-name="Hcircumflex" unicode="&#x124;" horiz-adv-x="796" 
d="M78 0v707h170v-287h300v287h170v-707h-170v291h-300v-291h-170zM265 741l-58 107l191 96l192 -96l-59 -107l-133 61z" />
    <glyph glyph-name="hcircumflex" unicode="&#x125;" horiz-adv-x="664" 
d="M68 0v754h167v-263c33 25 105 71 178 71c171 0 183 -95 183 -219v-343h-166v329c0 75 -17 88 -73 88c-50 0 -95 -17 -122 -30v-387h-167zM18 765l-58 107l191 96l192 -96l-59 -107l-133 61z" />
    <glyph glyph-name="Hbar" unicode="&#x126;" horiz-adv-x="796" 
d="M78 0v517h-50v79h50v110h170v-110h300v110h170v-110h48v-79h-48v-517h-170v291h-300v-291h-170zM248 420h300v97h-300v-97z" />
    <glyph glyph-name="hbar" unicode="&#x127;" horiz-adv-x="664" 
d="M68 0v611h-60v79h60v64h167v-64h101v-79h-101v-120c33 25 105 71 178 71c171 0 183 -95 183 -219v-343h-166v329c0 75 -17 88 -73 88c-50 0 -95 -17 -122 -30v-387h-167z" />
    <glyph glyph-name="Itilde" unicode="&#x128;" horiz-adv-x="326" 
d="M78 0v707h170v-707h-170zM216 755c-51 0 -89 38 -128 38c-19 0 -40 -2 -70 -28l-63 74c24 29 77 82 144 82c63 0 89 -38 123 -38c32 0 51 7 87 26l55 -74c-23 -25 -73 -80 -148 -80z" />
    <glyph glyph-name="itilde" unicode="&#x129;" horiz-adv-x="303" 
d="M68 0v546h167v-546h-167zM205 634c-51 0 -89 38 -128 38c-19 0 -40 -2 -70 -28l-63 74c24 29 77 82 144 82c63 0 89 -38 123 -38c32 0 51 7 87 26l55 -74c-23 -25 -73 -80 -148 -80z" />
    <glyph glyph-name="Imacron" unicode="&#x12a;" horiz-adv-x="326" 
d="M78 0v707h170v-707h-170zM-3 765v129h328v-129h-328z" />
    <glyph glyph-name="imacron" unicode="&#x12b;" horiz-adv-x="303" 
d="M68 0v546h167v-546h-167zM-12 647v129h328v-129h-328z" />
    <glyph glyph-name="Ibreve" unicode="&#x12c;" horiz-adv-x="326" 
d="M78 0v707h170v-707h-170zM163 754c-109 0 -171 63 -201 111l86 74c36 -34 76 -62 119 -62c42 0 80 27 114 62l81 -73c-32 -47 -95 -112 -199 -112z" />
    <glyph glyph-name="ibreve" unicode="&#x12d;" horiz-adv-x="303" 
d="M68 0v546h167v-546h-167zM148 614c-109 0 -171 63 -201 111l86 74c36 -34 76 -62 119 -62c42 0 80 27 114 62l81 -73c-32 -47 -95 -112 -199 -112z" />
    <glyph glyph-name="Iogonek" unicode="&#x12e;" horiz-adv-x="326" 
d="M285 -234c-34 -15 -63 -26 -124 -26c-118 0 -154 46 -154 124c0 45 32 85 71 120v722h170v-706c-48 -31 -96 -74 -96 -114c0 -18 19 -22 33 -22c19 0 49 2 72 9z" />
    <glyph glyph-name="iogonek" unicode="&#x12f;" horiz-adv-x="303" 
d="M148 -260c-118 0 -157 46 -157 124c0 46 37 92 78 127v555h166v-546c-48 -31 -110 -74 -110 -114c0 -18 20 -27 42 -27c24 0 54 7 77 14l28 -107c-34 -15 -63 -26 -124 -26zM151 604l-111 112l111 111l112 -111z" />
    <glyph glyph-name="Idotaccent" unicode="&#x130;" horiz-adv-x="326" 
d="M78 0v707h170v-707h-170zM255 849l-94 -94l-94 94l94 94z" />
    <glyph glyph-name="dotlessi" unicode="&#x131;" horiz-adv-x="303" 
d="M68 0v546h167v-546h-167z" />
    <glyph glyph-name="IJ" unicode="&#x132;" horiz-adv-x="641" 
d="M78 0v707h170v-707h-170zM309 -198l-61 122c119 66 145 109 145 227v556h171v-554c0 -142 -21 -275 -255 -351z" />
    <glyph glyph-name="ij" unicode="&#x133;" horiz-adv-x="600" 
d="M68 0v546h167v-546h-167zM308 -220c-39 0 -95 11 -128 23l31 129s61 -11 92 -11c43 0 60 14 60 82v543h166v-544c0 -190 -105 -222 -221 -222zM150 604l-111 112l111 111l112 -111zM446 604l-111 112l111 111l112 -111z" />
    <glyph glyph-name="Jcircumflex" unicode="&#x134;" horiz-adv-x="326" 
d="M-6 -198l-61 122c119 66 145 109 145 227v556h171v-554c0 -142 -21 -275 -255 -351zM27 741l-58 107l191 96l192 -96l-59 -107l-133 61z" />
    <glyph glyph-name="jcircumflex" unicode="&#x135;" horiz-adv-x="303" 
d="M14 -220c-39 0 -95 11 -128 23l31 129s61 -11 92 -11c43 0 60 14 60 82v543h166v-544c0 -190 -105 -222 -221 -222zM280 606l-129 90l-128 -89l-73 92l202 130l196 -131z" />
    <glyph glyph-name="Kcommaaccent" unicode="&#x136;" horiz-adv-x="731" 
d="M78 0v707h170v-303l242 303h217l-286 -331l302 -376h-217l-258 355v-355h-170zM442 -58l-45 -220h-116l21 220h140z" />
    <glyph glyph-name="kcommaaccent" unicode="&#x137;" horiz-adv-x="596" 
d="M68 0v754h167v-412l151 203h179l-199 -251l78 -89c38 -43 70 -73 139 -91l-19 -126c-87 4 -162 14 -232 107l-97 127v-222h-167zM399 -58l-45 -220h-116l21 220h140z" />
    <glyph glyph-name="Lacute" unicode="&#x139;" horiz-adv-x="573" 
d="M78 0v707h170v-573h307v-134h-477zM93 744l-23 113l271 67l27 -131z" />
    <glyph glyph-name="lacute" unicode="&#x13a;" horiz-adv-x="303" 
d="M68 0v754h167v-754h-167zM82 797l-23 113l271 67l27 -131z" />
    <glyph glyph-name="Lcommaaccent" unicode="&#x13b;" horiz-adv-x="573" 
d="M78 0v707h170v-573h307v-134h-477zM375 -58l-45 -220h-116l21 220h140z" />
    <glyph glyph-name="lcommaaccent" unicode="&#x13c;" horiz-adv-x="303" 
d="M68 0v754h167v-754h-167zM222 -58l-45 -220h-116l21 220h140z" />
    <glyph glyph-name="Lcaron" unicode="&#x13d;" horiz-adv-x="573" 
d="M78 0v707h170v-573h307v-134h-477zM525 793l-45 -220h-116l21 220h140z" />
    <glyph glyph-name="lcaron" unicode="&#x13e;" horiz-adv-x="410" 
d="M68 0v754h167v-754h-167zM436 754l-45 -220h-116l21 220h140z" />
    <glyph glyph-name="Ldot" unicode="&#x13f;" horiz-adv-x="573" 
d="M78 0v707h170v-573h307v-134h-477zM446 273l-115 116l115 115l115 -115z" />
    <glyph glyph-name="ldot" unicode="&#x140;" horiz-adv-x="489" 
d="M68 0v754h167v-754h-167zM389 273l-115 116l115 115l115 -115z" />
    <glyph glyph-name="Lslash" unicode="&#x141;" horiz-adv-x="573" 
d="M555 0h-477v257l-70 -41v114l70 40v337h170v-239l108 62v-112l-108 -63v-221h307v-134z" />
    <glyph glyph-name="lslash" unicode="&#x142;" horiz-adv-x="303" 
d="M326 448l-91 -53v-395h-167v299l-90 -53l-1 114l91 52v342h167v-246l91 52v-112z" />
    <glyph glyph-name="Nacute" unicode="&#x143;" horiz-adv-x="796" 
d="M78 0v707h197l278 -485l-5 79v406h170v-707h-203l-271 473l4 -94v-379h-170zM289 744l-23 113l271 67l27 -131z" />
    <glyph glyph-name="nacute" unicode="&#x144;" horiz-adv-x="664" 
d="M68 0v546h167v-55c33 25 105 69 178 69c171 0 183 -94 183 -218v-342h-166v328c0 75 -17 88 -73 88c-50 0 -95 -16 -122 -29v-387h-167zM257 602l-47 100l238 121l54 -117z" />
    <glyph glyph-name="Ncommaaccent" unicode="&#x145;" horiz-adv-x="796" 
d="M78 0v707h197l278 -485l-5 79v406h170v-707h-203l-271 473l4 -94v-379h-170zM471 -58l-45 -220h-116l21 220h140z" />
    <glyph glyph-name="ncommaaccent" unicode="&#x146;" horiz-adv-x="664" 
d="M68 0v546h167v-55c33 25 105 69 178 69c171 0 183 -94 183 -218v-342h-166v328c0 75 -17 88 -73 88c-50 0 -95 -16 -122 -29v-387h-167zM405 -58l-45 -220h-116l21 220h140z" />
    <glyph glyph-name="Ncaron" unicode="&#x147;" horiz-adv-x="796" 
d="M78 0v707h197l278 -485l-5 79v406h170v-707h-203l-271 473l4 -94v-379h-170zM587 837l-192 -97l-191 97l58 106l133 -60l133 60z" />
    <glyph glyph-name="ncaron" unicode="&#x148;" horiz-adv-x="664" 
d="M68 0v546h167v-55c33 25 105 69 178 69c171 0 183 -94 183 -218v-342h-166v328c0 75 -17 88 -73 88c-50 0 -95 -16 -122 -29v-387h-167zM328 580l-196 131l68 92l129 -90l128 89l73 -92z" />
    <glyph glyph-name="napostrophe" unicode="&#x149;" horiz-adv-x="664" 
d="M68 0v546h167v-55c33 25 105 69 178 69c171 0 183 -94 183 -218v-342h-166v328c0 75 -17 88 -73 88c-50 0 -95 -16 -122 -29v-387h-167zM-128 485c31 57 32 115 32 134v136h151v-98c0 -63 -25 -126 -63 -172h-120z" />
    <glyph glyph-name="Eng" unicode="&#x14a;" horiz-adv-x="796" 
d="M496 -220c-39 0 -95 11 -128 23l31 129s61 -11 92 -11c37 0 60 13 60 59v20h-36l-271 473l4 -94v-379h-170v707h197l278 -485l-5 79v406h170l-1 -707c-1 -188 -106 -220 -221 -220z" />
    <glyph glyph-name="eng" unicode="&#x14b;" horiz-adv-x="664" 
d="M596 2c0 -190 -105 -222 -221 -222c-39 0 -95 11 -128 23l31 129s61 -11 92 -11c43 0 60 14 60 82v326c0 75 -17 88 -73 88c-50 0 -95 -17 -122 -30v-387h-167v546h167v-55c33 25 105 71 178 71c171 0 183 -95 183 -219v-341z" />
    <glyph glyph-name="Omacron" unicode="&#x14c;" horiz-adv-x="843" 
d="M413 -12c-248 0 -370 140 -370 367c0 223 148 363 389 363c257 0 368 -154 368 -365c0 -225 -135 -365 -387 -365zM416 122c156 0 211 100 211 232s-61 230 -204 230c-150 0 -208 -98 -208 -228c0 -129 57 -234 201 -234zM266 765v129h328v-129h-328z" />
    <glyph glyph-name="omacron" unicode="&#x14d;" horiz-adv-x="643" 
d="M315 -12c-180 0 -277 109 -277 280c0 181 113 292 286 292c194 0 281 -109 281 -287c0 -186 -122 -285 -290 -285zM323 121c90 0 112 59 112 152c0 88 -22 155 -114 155c-90 0 -115 -67 -115 -156c0 -94 28 -151 117 -151zM154 647v129h328v-129h-328z" />
    <glyph glyph-name="Obreve" unicode="&#x14e;" horiz-adv-x="843" 
d="M413 -12c-248 0 -370 140 -370 367c0 223 148 363 389 363c257 0 368 -154 368 -365c0 -225 -135 -365 -387 -365zM416 122c156 0 211 100 211 232s-61 230 -204 230c-150 0 -208 -98 -208 -228c0 -129 57 -234 201 -234zM426 754c-109 0 -171 63 -201 111l86 74
c36 -34 76 -62 119 -62c42 0 80 27 114 62l81 -73c-32 -47 -95 -112 -199 -112z" />
    <glyph glyph-name="obreve" unicode="&#x14f;" horiz-adv-x="643" 
d="M315 -12c-180 0 -277 109 -277 280c0 181 113 292 286 292c194 0 281 -109 281 -287c0 -186 -122 -285 -290 -285zM323 121c90 0 112 59 112 152c0 88 -22 155 -114 155c-90 0 -115 -67 -115 -156c0 -94 28 -151 117 -151zM323 614c-109 0 -171 63 -201 111l86 74
c36 -34 76 -62 119 -62c42 0 80 27 114 62l81 -73c-32 -47 -95 -112 -199 -112z" />
    <glyph glyph-name="Ohungarumlaut" unicode="&#x150;" horiz-adv-x="843" 
d="M413 -12c-248 0 -370 140 -370 367c0 223 148 363 389 363c257 0 368 -154 368 -365c0 -225 -135 -365 -387 -365zM416 122c156 0 211 100 211 232s-61 230 -204 230c-150 0 -208 -98 -208 -228c0 -129 57 -234 201 -234zM482 889l-234 -154l-67 96l223 167zM780 787
l-276 -49l-23 114l271 66z" />
    <glyph glyph-name="ohungarumlaut" unicode="&#x151;" horiz-adv-x="643" 
d="M315 -12c-180 0 -277 109 -277 280c0 181 113 292 286 292c194 0 281 -109 281 -287c0 -186 -122 -285 -290 -285zM323 121c90 0 112 59 112 152c0 88 -22 155 -114 155c-90 0 -115 -67 -115 -156c0 -94 28 -151 117 -151zM172 595l-72 80l190 181l83 -94zM395 594
l-46 97l236 117l53 -113z" />
    <glyph glyph-name="OE" unicode="&#x152;" horiz-adv-x="1119" 
d="M413 -12c-248 0 -370 140 -370 367c0 239 148 363 389 363c65 0 115 -9 152 -27v16h464v-133h-294v-157h272v-124h-272v-160h317v-133h-487v21c-41 -22 -97 -33 -171 -33zM416 122c81 0 135 27 168 72v318c-33 45 -86 72 -161 72c-150 0 -208 -98 -208 -228
c0 -129 57 -234 201 -234z" />
    <glyph glyph-name="oe" unicode="&#x153;" horiz-adv-x="993" 
d="M315 -12c-180 0 -277 109 -277 280c0 181 113 292 286 292c85 0 150 -21 195 -60c50 42 118 59 198 59c172 0 238 -112 238 -277v-60h-354c0 -74 48 -102 146 -102c37 0 108 9 163 22l26 -129c-61 -18 -139 -22 -205 -22c-93 0 -168 15 -220 59
c-51 -41 -118 -62 -196 -62zM323 121c90 0 112 59 112 152c0 88 -22 155 -114 155c-90 0 -115 -67 -115 -156c0 -94 28 -151 117 -151zM606 330h178c-1 68 -33 112 -83 112c-53 0 -92 -40 -95 -112z" />
    <glyph glyph-name="Racute" unicode="&#x154;" horiz-adv-x="752" 
d="M706 -13c-138 7 -213 79 -287 165l-80 93c-12 -1 -25 -1 -38 -1h-52v-244h-171v707h275c159 0 273 -73 273 -231c0 -79 -38 -148 -114 -191l72 -78c39 -42 83 -70 160 -90zM249 363h58c101 0 144 42 144 109c0 71 -29 101 -120 101h-82v-210zM230 744l-23 113l271 67
l27 -131z" />
    <glyph glyph-name="racute" unicode="&#x155;" horiz-adv-x="441" 
d="M68 0v546h167v-73c27 35 78 84 141 84c30 0 52 -2 75 -9l-22 -137c-32 6 -43 6 -73 6c-49 0 -99 -23 -121 -47v-370h-167zM178 602l-47 100l238 121l54 -117z" />
    <glyph glyph-name="Rcommaaccent" unicode="&#x156;" horiz-adv-x="752" 
d="M706 -13c-138 7 -213 79 -287 165l-80 93c-12 -1 -25 -1 -38 -1h-52v-244h-171v707h275c159 0 273 -73 273 -231c0 -79 -38 -148 -114 -191l72 -78c39 -42 83 -70 160 -90zM249 363h58c101 0 144 42 144 109c0 71 -29 101 -120 101h-82v-210zM476 -58l-45 -220h-116
l21 220h140z" />
    <glyph glyph-name="rcommaaccent" unicode="&#x157;" horiz-adv-x="441" 
d="M68 0v546h167v-73c27 35 78 84 141 84c30 0 52 -2 75 -9l-22 -137c-32 6 -43 6 -73 6c-49 0 -99 -23 -121 -47v-370h-167zM220 -58l-45 -220h-116l21 220h140z" />
    <glyph glyph-name="Rcaron" unicode="&#x158;" horiz-adv-x="752" 
d="M706 -13c-138 7 -213 79 -287 165l-80 93c-12 -1 -25 -1 -38 -1h-52v-244h-171v707h275c159 0 273 -73 273 -231c0 -79 -38 -148 -114 -191l72 -78c39 -42 83 -70 160 -90zM249 363h58c101 0 144 42 144 109c0 71 -29 101 -120 101h-82v-210zM512 837l-192 -97l-191 97
l58 106l133 -60l133 60z" />
    <glyph glyph-name="rcaron" unicode="&#x159;" horiz-adv-x="441" 
d="M68 0v546h167v-73c27 35 78 84 141 84c30 0 52 -2 75 -9l-22 -137c-32 6 -43 6 -73 6c-49 0 -99 -23 -121 -47v-370h-167zM226 580l-196 131l68 92l129 -90l128 89l73 -92z" />
    <glyph glyph-name="Sacute" unicode="&#x15a;" horiz-adv-x="597" 
d="M265 -11c-116 0 -184 21 -237 50l48 122c63 -22 109 -32 187 -32c85 0 124 26 124 69c0 115 -336 84 -336 324c0 136 129 195 254 195c112 0 166 -24 221 -48l-49 -118c-52 15 -95 29 -167 29c-71 0 -93 -27 -93 -57c0 -94 342 -94 342 -319c0 -155 -148 -215 -294 -215z
M196 744l-23 113l271 67l27 -131z" />
    <glyph glyph-name="sacute" unicode="&#x15b;" horiz-adv-x="512" 
d="M234 -12c-79 0 -143 7 -199 23l18 126c71 -10 128 -15 165 -15c84 0 94 22 94 38c0 59 -275 31 -275 227c0 118 111 173 230 173c67 0 127 -11 184 -31l-28 -121c-53 12 -95 20 -151 20c-57 0 -68 -21 -68 -33c0 -62 273 -45 273 -228c0 -144 -151 -179 -243 -179z
M167 602l-47 100l238 121l54 -117z" />
    <glyph glyph-name="Scircumflex" unicode="&#x15c;" horiz-adv-x="597" 
d="M265 -11c-116 0 -184 21 -237 50l48 122c63 -22 109 -32 187 -32c85 0 124 26 124 69c0 115 -336 84 -336 324c0 136 129 195 254 195c112 0 166 -24 221 -48l-49 -118c-52 15 -95 29 -167 29c-71 0 -93 -27 -93 -57c0 -94 342 -94 342 -319c0 -155 -148 -215 -294 -215z
M182 741l-58 107l191 96l192 -96l-59 -107l-133 61z" />
    <glyph glyph-name="scircumflex" unicode="&#x15d;" horiz-adv-x="512" 
d="M234 -12c-79 0 -143 7 -199 23l18 126c71 -10 128 -15 165 -15c84 0 94 22 94 38c0 59 -275 31 -275 227c0 118 111 173 230 173c67 0 127 -11 184 -31l-28 -121c-53 12 -95 20 -151 20c-57 0 -68 -21 -68 -33c0 -62 273 -45 273 -228c0 -144 -151 -179 -243 -179z
M386 606l-129 90l-128 -89l-73 92l202 130l196 -131z" />
    <glyph glyph-name="Scedilla" unicode="&#x15e;" horiz-adv-x="597" 
d="M265 -11c-116 0 -184 21 -237 50l48 122c63 -22 109 -32 187 -32c85 0 124 26 124 69c0 115 -336 84 -336 324c0 136 129 195 254 195c112 0 166 -24 221 -48l-49 -118c-52 15 -95 29 -167 29c-71 0 -93 -27 -93 -57c0 -94 342 -94 342 -319c0 -155 -148 -215 -294 -215z
M223 -283l-57 100c25 15 76 35 76 70c0 20 -7 42 -12 62h129c11 -25 22 -53 22 -81c0 -81 -95 -125 -158 -151z" />
    <glyph glyph-name="scedilla" unicode="&#x15f;" horiz-adv-x="512" 
d="M234 -12c-79 0 -143 7 -199 23l18 126c71 -10 128 -15 165 -15c84 0 94 22 94 38c0 59 -275 31 -275 227c0 118 111 173 230 173c67 0 127 -11 184 -31l-28 -121c-53 12 -95 20 -151 20c-57 0 -68 -21 -68 -33c0 -62 273 -45 273 -228c0 -144 -151 -179 -243 -179z
M211 -283l-57 100c25 15 76 35 76 70c0 20 -7 42 -12 62h129c11 -25 22 -53 22 -81c0 -81 -95 -125 -158 -151z" />
    <glyph glyph-name="Scaron" unicode="&#x160;" horiz-adv-x="597" 
d="M265 -11c-116 0 -184 21 -237 50l48 122c63 -22 109 -32 187 -32c85 0 124 26 124 69c0 115 -336 84 -336 324c0 136 129 195 254 195c112 0 166 -24 221 -48l-49 -118c-52 15 -95 29 -167 29c-71 0 -93 -27 -93 -57c0 -94 342 -94 342 -319c0 -155 -148 -215 -294 -215z
M483 837l-192 -97l-191 97l58 106l133 -60l133 60z" />
    <glyph glyph-name="scaron" unicode="&#x161;" horiz-adv-x="512" 
d="M234 -12c-79 0 -143 7 -199 23l18 126c71 -10 128 -15 165 -15c84 0 94 22 94 38c0 59 -275 31 -275 227c0 118 111 173 230 173c67 0 127 -11 184 -31l-28 -121c-53 12 -95 20 -151 20c-57 0 -68 -21 -68 -33c0 -62 273 -45 273 -228c0 -144 -151 -179 -243 -179z
M252 580l-196 131l68 92l129 -90l128 89l73 -92z" />
    <glyph glyph-name="Tcommaaccent" unicode="&#x162;" horiz-adv-x="630" 
d="M230 0v574h-222v133h614v-133h-222v-574h-170zM384 -58l-45 -220h-116l21 220h140z" />
    <glyph glyph-name="tcommaaccent" unicode="&#x163;" horiz-adv-x="466" 
d="M316 -11c-105 0 -228 -5 -228 181v253h-80v123h80v112h166v-112h169v-123h-169v-252c0 -40 15 -43 60 -43c37 0 118 11 118 11l16 -131c-39 -11 -92 -19 -132 -19zM359 -58l-45 -220h-116l21 220h140z" />
    <glyph glyph-name="tcommaaccent" unicode="&#x21b;" horiz-adv-x="466" 
d="M316 -11c-105 0 -228 -5 -228 181v253h-80v123h80v112h166v-112h169v-123h-169v-252c0 -40 15 -43 60 -43c37 0 118 11 118 11l16 -131c-39 -11 -92 -19 -132 -19zM359 -58l-45 -220h-116l21 220h140z" />
    <glyph glyph-name="Tcaron" unicode="&#x164;" horiz-adv-x="630" 
d="M230 0v574h-222v133h614v-133h-222v-574h-170zM506 837l-192 -97l-191 97l58 106l133 -60l133 60z" />
    <glyph glyph-name="tcaron" unicode="&#x165;" horiz-adv-x="512" 
d="M316 -11c-105 0 -228 -5 -228 181v253h-80v123h80v112h166v-112h169v-123h-169v-252c0 -40 15 -43 60 -43c37 0 118 11 118 11l16 -131c-39 -11 -92 -19 -132 -19zM491 803l-45 -220h-116l21 220h140z" />
    <glyph glyph-name="Tbar" unicode="&#x166;" horiz-adv-x="630" 
d="M230 0v318h-141v79h141v177h-222v133h614v-133h-222v-177h141v-79h-141v-318h-170z" />
    <glyph glyph-name="tbar" unicode="&#x167;" horiz-adv-x="466" 
d="M316 -11c-105 0 -228 -5 -228 181v99h-54v79h54v75h-80v123h80v112h166v-112h169v-123h-169v-75h116v-79h-116v-98c0 -40 15 -43 60 -43c37 0 118 11 118 11l16 -131c-39 -11 -92 -19 -132 -19z" />
    <glyph glyph-name="Utilde" unicode="&#x168;" horiz-adv-x="799" 
d="M402 -13c-163 0 -329 72 -329 301v419h172v-413c0 -108 49 -168 157 -168c107 0 157 63 157 189v392h167v-395c0 -247 -166 -325 -324 -325zM446 755c-51 0 -89 38 -128 38c-19 0 -40 -2 -70 -28l-63 74c24 29 77 82 144 82c63 0 89 -38 123 -38c32 0 51 7 87 26l55 -74
c-23 -25 -73 -80 -148 -80z" />
    <glyph glyph-name="utilde" unicode="&#x169;" horiz-adv-x="664" 
d="M251 -12c-171 0 -183 95 -183 219v339h166v-325c0 -75 17 -88 73 -88c50 0 95 14 122 27v386h167v-546h-167v56c-33 -25 -105 -68 -178 -68zM386 634c-51 0 -89 38 -128 38c-19 0 -40 -2 -70 -28l-63 74c24 29 77 82 144 82c63 0 89 -38 123 -38c32 0 51 7 87 26l55 -74
c-23 -25 -73 -80 -148 -80z" />
    <glyph glyph-name="Umacron" unicode="&#x16a;" horiz-adv-x="799" 
d="M402 -13c-163 0 -329 72 -329 301v419h172v-413c0 -108 49 -168 157 -168c107 0 157 63 157 189v392h167v-395c0 -247 -166 -325 -324 -325zM238 765v129h328v-129h-328z" />
    <glyph glyph-name="umacron" unicode="&#x16b;" horiz-adv-x="664" 
d="M251 -12c-171 0 -183 95 -183 219v339h166v-325c0 -75 17 -88 73 -88c50 0 95 14 122 27v386h167v-546h-167v56c-33 -25 -105 -68 -178 -68zM178 647v129h328v-129h-328z" />
    <glyph glyph-name="Ubreve" unicode="&#x16c;" horiz-adv-x="799" 
d="M402 -13c-163 0 -329 72 -329 301v419h172v-413c0 -108 49 -168 157 -168c107 0 157 63 157 189v392h167v-395c0 -247 -166 -325 -324 -325zM399 754c-109 0 -171 63 -201 111l86 74c36 -34 76 -62 119 -62c42 0 80 27 114 62l81 -73c-32 -47 -95 -112 -199 -112z" />
    <glyph glyph-name="ubreve" unicode="&#x16d;" horiz-adv-x="664" 
d="M251 -12c-171 0 -183 95 -183 219v339h166v-325c0 -75 17 -88 73 -88c50 0 95 14 122 27v386h167v-546h-167v56c-33 -25 -105 -68 -178 -68zM329 614c-109 0 -171 63 -201 111l86 74c36 -34 76 -62 119 -62c42 0 80 27 114 62l81 -73c-32 -47 -95 -112 -199 -112z" />
    <glyph glyph-name="Uring" unicode="&#x16e;" horiz-adv-x="799" 
d="M402 -13c-163 0 -329 72 -329 301v419h172v-413c0 -108 49 -168 157 -168c107 0 157 63 157 189v392h167v-395c0 -247 -166 -325 -324 -325zM403 701c-70 0 -150 27 -150 126c0 93 75 134 147 134c58 0 149 -28 149 -132c0 -90 -70 -128 -146 -128zM401 772
c39 0 58 21 61 56c0 34 -26 56 -61 56c-43 0 -61 -19 -61 -54c0 -36 22 -58 61 -58z" />
    <glyph glyph-name="uring" unicode="&#x16f;" horiz-adv-x="664" 
d="M251 -12c-171 0 -183 95 -183 219v339h166v-325c0 -75 17 -88 73 -88c50 0 95 14 122 27v386h167v-546h-167v56c-33 -25 -105 -68 -178 -68zM334 586c-70 0 -150 27 -150 126c0 93 75 134 147 134c58 0 149 -28 149 -132c0 -90 -70 -128 -146 -128zM332 657
c39 0 58 21 61 56c0 34 -26 56 -61 56c-43 0 -61 -19 -61 -54c0 -36 22 -58 61 -58z" />
    <glyph glyph-name="Uhungarumlaut" unicode="&#x170;" horiz-adv-x="799" 
d="M402 -13c-163 0 -329 72 -329 301v419h172v-413c0 -108 49 -168 157 -168c107 0 157 63 157 189v392h167v-395c0 -247 -166 -325 -324 -325zM439 889l-234 -154l-67 96l223 167zM737 787l-276 -49l-23 114l271 66z" />
    <glyph glyph-name="uhungarumlaut" unicode="&#x171;" horiz-adv-x="664" 
d="M251 -12c-171 0 -183 95 -183 219v339h166v-325c0 -75 17 -88 73 -88c50 0 95 14 122 27v386h167v-546h-167v56c-33 -25 -105 -68 -178 -68zM160 595l-72 80l190 181l83 -94zM383 594l-46 97l236 117l53 -113z" />
    <glyph glyph-name="Uogonek" unicode="&#x172;" horiz-adv-x="799" 
d="M433 -260c-108 0 -162 39 -162 117c0 48 47 110 94 137c-10 -1 -21 -2 -31 -2c-136 0 -261 92 -261 276v439h172v-433c0 -108 49 -145 157 -145c107 0 157 40 157 166v412h167v-415c0 -185 -93 -264 -206 -292c-58 -24 -108 -71 -108 -111c0 -18 23 -29 44 -29
c19 0 50 6 73 13l28 -107c-34 -15 -63 -26 -124 -26z" />
    <glyph glyph-name="uogonek" unicode="&#x173;" horiz-adv-x="664" 
d="M633 -234c-34 -15 -63 -26 -124 -26c-118 0 -162 34 -162 112c0 46 42 97 82 133v71c-33 -25 -105 -71 -178 -71c-171 0 -183 95 -183 219v342h166v-328c0 -75 17 -88 73 -88c50 0 95 17 122 30v386h167v-546c-48 -31 -110 -74 -110 -114c0 -18 17 -27 38 -27
c29 0 58 7 81 14z" />
    <glyph glyph-name="Wcircumflex" unicode="&#x174;" horiz-adv-x="1061" 
d="M166 0l-152 707h165l110 -599l164 427l-60 172h169l185 -593l138 593h162l-194 -707h-214l-122 362l-132 -362h-219zM385 741l-58 107l191 96l192 -96l-59 -107l-133 61z" />
    <glyph glyph-name="wcircumflex" unicode="&#x175;" horiz-adv-x="904" 
d="M148 0l-140 546h175l70 -410l100 410h197l85 -410l90 410h171l-162 -546h-205l-64 298l-18 91l-21 -91l-71 -298h-207zM582 606l-129 90l-128 -89l-73 92l202 130l196 -131z" />
    <glyph glyph-name="Ycircumflex" unicode="&#x176;" horiz-adv-x="709" 
d="M261 0v227l-261 480h196l156 -337l166 337h191l-278 -474v-233h-170zM221 741l-58 107l191 96l192 -96l-59 -107l-133 61z" />
    <glyph glyph-name="ycircumflex" unicode="&#x177;" horiz-adv-x="616" 
d="M182 -220l74 220h-60l-188 546h179l94 -324l23 -89l27 89l109 324h168l-267 -766h-159zM438 606l-129 90l-128 -89l-73 92l202 130l196 -131z" />
    <glyph glyph-name="Ydieresis" unicode="&#x178;" horiz-adv-x="709" 
d="M261 0v227l-261 480h196l156 -337l166 337h191l-278 -474v-233h-170zM227 737l-99 100l99 100l100 -100zM471 737l-100 100l100 100l99 -100z" />
    <glyph glyph-name="Zacute" unicode="&#x179;" horiz-adv-x="611" 
d="M28 0v114l325 452h-299v141h508v-108l-329 -458h350v-141h-555zM214 744l-23 113l271 67l27 -131z" />
    <glyph glyph-name="zacute" unicode="&#x17a;" horiz-adv-x="532" 
d="M38 0v109l256 303h-240v134h436v-106l-250 -308h254v-132h-456zM177 602l-47 100l238 121l54 -117z" />
    <glyph glyph-name="Zdotaccent" unicode="&#x17b;" horiz-adv-x="611" 
d="M28 0v114l325 452h-299v141h508v-108l-329 -458h350v-141h-555zM405 849l-94 -94l-94 94l94 94z" />
    <glyph glyph-name="zdotaccent" unicode="&#x17c;" horiz-adv-x="532" 
d="M38 0v109l256 303h-240v134h436v-106l-250 -308h254v-132h-456zM287 604l-111 112l111 111l112 -111z" />
    <glyph glyph-name="Zcaron" unicode="&#x17d;" horiz-adv-x="611" 
d="M28 0v114l325 452h-299v141h508v-108l-329 -458h350v-141h-555zM493 837l-192 -97l-191 97l58 106l133 -60l133 60z" />
    <glyph glyph-name="zcaron" unicode="&#x17e;" horiz-adv-x="532" 
d="M38 0v109l256 303h-240v134h436v-106l-250 -308h254v-132h-456zM262 580l-196 131l68 92l129 -90l128 89l73 -92z" />
    <glyph glyph-name="uni018F" unicode="&#x18f;" horiz-adv-x="795" 
d="M385 -12c-242 0 -345 133 -350 350v74h540c-16 102 -86 172 -207 172c-85 0 -145 -12 -228 -57l-66 110c104 66 203 81 318 81c237 -1 360 -154 360 -365c0 -225 -125 -365 -367 -365zM388 122c132 0 172 72 187 174h-364c16 -100 56 -174 177 -174z" />
    <glyph glyph-name="florin" unicode="&#x192;" horiz-adv-x="542" 
d="M57 -64l-5 137c66 5 144 0 144 77v70h-103v134h103v60c0 155 112 208 283 208l11 -142c-75 -6 -131 -7 -131 -69v-57h118v-134h-118v-72c0 -120 -56 -212 -302 -212z" />
    <glyph glyph-name="uni01D3" unicode="&#x1d3;" horiz-adv-x="799" 
d="M402 -13c-163 0 -329 72 -329 301v419h172v-413c0 -108 49 -168 157 -168c107 0 157 63 157 189v392h167v-395c0 -247 -166 -325 -324 -325zM595 837l-192 -97l-191 97l58 106l133 -60l133 60z" />
    <glyph glyph-name="uni01D4" unicode="&#x1d4;" horiz-adv-x="664" 
d="M251 -12c-171 0 -183 95 -183 219v339h166v-325c0 -75 17 -88 73 -88c50 0 95 14 122 27v386h167v-546h-167v56c-33 -25 -105 -68 -178 -68zM332 580l-196 131l68 92l129 -90l128 89l73 -92z" />
    <glyph glyph-name="AEmacron" unicode="&#x1e2;" horiz-adv-x="996" 
d="M-12 0l332 707h605v-133h-294v-157h272v-124h-272v-160h317v-133h-487v244h-179l-102 -244h-192zM333 368h128v206h-42zM433 765v129h328v-129h-328z" />
    <glyph glyph-name="aemacron" unicode="&#x1e3;" horiz-adv-x="925" 
d="M663 -9c-108 0 -193 20 -244 83c-38 -34 -108 -82 -193 -82c-120 0 -188 53 -188 162c0 142 126 158 234 161c0 0 65 3 95 3v44c0 48 -31 56 -99 56c-54 0 -112 -12 -163 -24l-33 121c64 24 134 44 221 44c69 0 140 -3 187 -39c46 28 103 39 169 39
c172 0 238 -112 238 -277v-53l-354 -8c-1 -86 66 -100 153 -100c37 0 100 9 157 19l25 -127c-61 -18 -139 -22 -205 -22zM246 122c31 0 100 10 138 20c-7 22 -12 46 -15 74l-84 -2c-86 -2 -84 -27 -84 -51c0 -28 14 -41 45 -41zM538 329l178 7c2 66 -37 103 -79 103
c-51 0 -99 -31 -99 -110zM308 647v129h328v-129h-328z" />
    <glyph glyph-name="AEacute" unicode="&#x1fc;" horiz-adv-x="996" 
d="M-12 0l332 707h605v-133h-294v-157h272v-124h-272v-160h317v-133h-487v244h-179l-102 -244h-192zM333 368h128v206h-42zM483 744l-23 113l271 67l27 -131z" />
    <glyph glyph-name="aeacute" unicode="&#x1fd;" horiz-adv-x="925" 
d="M663 -9c-108 0 -193 20 -244 83c-38 -34 -108 -82 -193 -82c-120 0 -188 53 -188 162c0 142 126 158 234 161c0 0 65 3 95 3v44c0 48 -31 56 -99 56c-54 0 -112 -12 -163 -24l-33 121c64 24 134 44 221 44c69 0 140 -3 187 -39c46 28 103 39 169 39
c172 0 238 -112 238 -277v-53l-354 -8c-1 -86 66 -100 153 -100c37 0 100 9 157 19l25 -127c-61 -18 -139 -22 -205 -22zM246 122c31 0 100 10 138 20c-7 22 -12 46 -15 74l-84 -2c-86 -2 -84 -27 -84 -51c0 -28 14 -41 45 -41zM538 329l178 7c2 66 -37 103 -79 103
c-51 0 -99 -31 -99 -110zM383 602l-47 100l238 121l54 -117z" />
    <glyph glyph-name="Oslashacute" unicode="&#x1fe;" horiz-adv-x="843" 
d="M96 -45l-70 70l86 89c-46 61 -69 143 -69 241c0 239 148 363 389 363c89 0 161 -17 217 -49l83 86l71 -69l-78 -82c51 -62 75 -148 75 -251c0 -235 -135 -365 -387 -365c-95 0 -171 20 -229 58zM416 122c156 0 211 100 211 232c0 47 -8 89 -24 125l-310 -320
c31 -23 71 -37 123 -37zM234 240l304 314c-30 19 -68 30 -115 30c-150 0 -208 -98 -208 -228c0 -42 6 -82 19 -116zM338 744l-23 113l271 67l27 -131z" />
    <glyph glyph-name="oslashacute" unicode="&#x1ff;" horiz-adv-x="643" 
d="M76 -22l-50 49l62 62c-33 47 -50 107 -50 179c0 181 113 292 286 292c77 0 137 -17 181 -49l59 59l49 -49l-58 -59c34 -48 50 -112 50 -189c0 -186 -122 -285 -290 -285c-74 0 -133 18 -178 51zM323 121c90 0 112 59 112 152c0 22 -1 44 -5 63l-187 -189
c19 -17 44 -26 80 -26zM211 214l186 188c-17 17 -42 26 -76 26c-90 0 -115 -67 -115 -156c0 -21 1 -41 5 -58zM248 602l-47 100l238 121l54 -117z" />
    <glyph glyph-name="Scommaaccent" unicode="&#x218;" horiz-adv-x="597" 
d="M265 -11c-116 0 -184 21 -237 50l48 122c63 -22 109 -32 187 -32c85 0 124 26 124 69c0 115 -336 84 -336 324c0 136 129 195 254 195c112 0 166 -24 221 -48l-49 -118c-52 15 -95 29 -167 29c-71 0 -93 -27 -93 -57c0 -94 342 -94 342 -319c0 -155 -148 -215 -294 -215z
M360 -58l-45 -220h-116l21 220h140z" />
    <glyph glyph-name="scommaaccent" unicode="&#x219;" horiz-adv-x="512" 
d="M234 -12c-79 0 -143 7 -199 23l18 126c71 -10 128 -15 165 -15c84 0 94 22 94 38c0 59 -275 31 -275 227c0 118 111 173 230 173c67 0 127 -11 184 -31l-28 -121c-53 12 -95 20 -151 20c-57 0 -68 -21 -68 -33c0 -62 273 -45 273 -228c0 -144 -151 -179 -243 -179z
M344 -58l-45 -220h-116l21 220h140z" />
    <glyph glyph-name="uni021A" unicode="&#x21a;" horiz-adv-x="630" 
d="M230 0v574h-222v133h614v-133h-222v-574h-170zM384 -58l-45 -220h-116l21 220h140z" />
    <glyph glyph-name="Ymacron" unicode="&#x232;" horiz-adv-x="709" 
d="M261 0v227l-261 480h196l156 -337l166 337h191l-278 -474v-233h-170zM188 765v129h328v-129h-328z" />
    <glyph glyph-name="ymacron" unicode="&#x233;" horiz-adv-x="616" 
d="M182 -220l74 220h-60l-188 546h179l94 -324l23 -89l27 89l109 324h168l-267 -766h-159zM141 647v129h328v-129h-328z" />
    <glyph glyph-name="schwa" unicode="&#x259;" horiz-adv-x="596" 
d="M262 560c180 0 296 -59 296 -277c0 -223 -117 -294 -282 -294c-172 0 -238 112 -238 277v60h354c1 86 -67 102 -154 102c-37 0 -99 -12 -156 -22l-25 127c61 18 139 27 205 27zM387 219h-178c-2 -66 27 -112 81 -112c57 0 94 40 97 112z" />
    <glyph glyph-name="h.superior" unicode="&#x2b0;" horiz-adv-x="453" 
d="M45 416v498h120v-174c22 17 69 47 118 47c112 0 130 -63 130 -145v-226h-119v217c0 50 -11 58 -48 58c-33 0 -63 -11 -81 -20v-255h-120z" />
    <glyph glyph-name="j.superior" unicode="&#x2b2;" horiz-adv-x="207" 
d="M9 271c-26 0 -62 7 -84 15l20 85s40 -7 61 -7c28 0 40 9 40 54v358h119v-359c0 -125 -79 -146 -156 -146zM103 815l-74 74l74 73l74 -73z" />
    <glyph glyph-name="r.superior" unicode="&#x2b3;" horiz-adv-x="308" 
d="M45 416v360h120v-48c18 23 52 56 93 56c20 0 34 -2 50 -6l-15 -91c-21 4 -28 4 -48 4c-32 0 -65 -15 -80 -31v-244h-120z" />
    <glyph glyph-name="w.superior" unicode="&#x2b7;" horiz-adv-x="636" 
d="M98 416l-93 360h126l46 -270l66 270h150l56 -270l60 270h122l-107 -360h-155l-54 257l-61 -257h-156z" />
    <glyph glyph-name="y.superior" unicode="&#x2b8;" horiz-adv-x="426" 
d="M130 271l49 145h-50l-124 360h128l78 -272l89 272h121l-176 -505h-115z" />
    <glyph glyph-name="circumflex" unicode="&#x2c6;" horiz-adv-x="556" 
d="M408 606l-129 90l-128 -89l-73 92l202 130l196 -131z" />
    <glyph glyph-name="caron" unicode="&#x2c7;" horiz-adv-x="556" 
d="M274 580l-196 131l68 92l129 -90l128 89l73 -92z" />
    <glyph glyph-name="breve" unicode="&#x2d8;" horiz-adv-x="516" 
d="M276 614c-109 0 -171 63 -201 111l86 74c36 -34 76 -62 119 -62c42 0 80 27 114 62l81 -73c-32 -47 -95 -112 -199 -112z" />
    <glyph glyph-name="dotaccent" unicode="&#x2d9;" horiz-adv-x="293" 
d="M146 604l-111 112l111 111l112 -111z" />
    <glyph glyph-name="ring" unicode="&#x2da;" horiz-adv-x="552" 
d="M278 586c-70 0 -150 27 -150 126c0 93 75 134 147 134c58 0 149 -28 149 -132c0 -90 -70 -128 -146 -128zM276 657c39 0 58 21 61 56c0 34 -26 56 -61 56c-43 0 -61 -19 -61 -54c0 -36 22 -58 61 -58z" />
    <glyph glyph-name="ogonek" unicode="&#x2db;" horiz-adv-x="581" 
d="M409 -260c-118 0 -151 65 -151 143c0 95 134 175 205 213l60 -80c-54 -30 -123 -83 -123 -130c0 -18 19 -22 33 -22c19 0 49 2 72 9l28 -107c-34 -15 -63 -26 -124 -26z" />
    <glyph glyph-name="tilde" unicode="&#x2dc;" horiz-adv-x="556" 
d="M332 634c-51 0 -89 38 -128 38c-19 0 -40 -2 -70 -28l-63 74c24 29 77 82 144 82c63 0 89 -38 123 -38c32 0 51 7 87 26l55 -74c-23 -25 -73 -80 -148 -80z" />
    <glyph glyph-name="hungarumlaut" unicode="&#x2dd;" horiz-adv-x="652" 
d="M130 595l-72 80l190 181l83 -94zM353 594l-46 97l236 117l53 -113z" />
    <glyph glyph-name="x.superior" unicode="&#x2e3;" horiz-adv-x="442" 
d="M5 416l144 184l-134 176h137l69 -109l70 109h135l-133 -176l144 -184h-141l-75 117l-76 -117h-140z" />
    <glyph glyph-name="Sigma" unicode="&#x3a3;" horiz-adv-x="605" 
d="M32 0v114l188 242l-182 213v138h533v-133h-345l175 -206l-177 -227h353v-141h-545z" />
    <glyph glyph-name="alpha" unicode="&#x3b1;" horiz-adv-x="671" 
d="M260 -8c-69 0 -222 22 -222 259c0 196 98 309 250 309c40 0 103 -18 119 -49v35h167v-401c0 -18 18 -22 49 -23l-6 -126c-14 -1 -36 -1 -50 -1c-83 0 -148 21 -152 104c-19 -49 -76 -107 -155 -107zM288 131c60 0 111 53 119 132v83c-11 40 -60 82 -103 82
c-69 0 -100 -53 -100 -167c0 -86 32 -130 84 -130z" />
    <glyph glyph-name="beta" unicode="&#x3b2;" horiz-adv-x="671" 
d="M68 -220v735c0 157 109 260 270 260c156 0 247 -94 247 -202c0 -61 -34 -133 -101 -165c94 -25 147 -71 147 -173c0 -169 -125 -248 -277 -248c-40 0 -88 8 -120 18v-225h-166zM351 122c69 0 110 30 110 108c0 79 -75 103 -139 106v110c54 5 103 54 103 106
c0 51 -43 89 -93 89c-61 0 -98 -43 -98 -121v-379c36 -11 87 -19 117 -19z" />
    <glyph glyph-name="gamma" unicode="&#x3b3;" horiz-adv-x="624" 
d="M221 -220c-6 45 -9 91 -9 139c0 33 2 67 4 101c-46 202 -150 404 -208 526h187c34 -65 90 -215 131 -364c52 105 110 237 113 364h177c-6 -186 -166 -406 -239 -547c9 -52 13 -101 13 -148c0 -25 -1 -49 -3 -71h-166z" />
    <glyph glyph-name="delta" unicode="&#x3b4;" horiz-adv-x="637" 
d="M314 -12c-159 0 -276 95 -276 266c0 100 67 184 157 220c-60 32 -88 81 -88 144c0 105 115 157 227 157c91 0 165 -19 220 -36l-29 -122s-106 23 -182 23c-46 0 -71 -9 -71 -40c0 -34 67 -56 154 -96c85 -39 173 -129 173 -247c0 -188 -137 -269 -285 -269zM321 121
c83 0 111 54 111 140c0 94 -84 121 -143 148c-72 -42 -84 -90 -84 -146c0 -87 32 -142 116 -142z" />
    <glyph glyph-name="pi" unicode="&#x3c0;" horiz-adv-x="648" 
d="M68 0v546h512v-546h-166v417h-179v-417h-167z" />
    <glyph glyph-name="omega" unicode="&#x3c9;" horiz-adv-x="891" 
d="M265 -12c-144 0 -227 109 -227 249c0 95 12 203 140 309h183c-91 -73 -155 -178 -155 -288c0 -45 10 -129 81 -129c40 0 75 38 75 104v127h166v-125c0 -70 35 -106 76 -106c71 0 80 84 80 129c0 110 -64 215 -155 288h189c115 -96 135 -209 135 -304
c0 -130 -89 -254 -241 -254c-65 0 -152 38 -169 110c-30 -77 -112 -110 -178 -110z" />
    <glyph glyph-name="i.inferior" unicode="&#x1d62;" horiz-adv-x="207" 
d="M46 0v360h119v-360h-119zM103 399l-73 74l73 73l74 -73z" />
    <glyph glyph-name="r.inferior" unicode="&#x1d63;" horiz-adv-x="308" 
d="M45 0v360h120v-48c18 23 52 56 93 56c20 0 34 -2 50 -6l-15 -91c-21 4 -28 4 -48 4c-32 0 -65 -15 -80 -31v-244h-120z" />
    <glyph glyph-name="u.inferior" unicode="&#x1d64;" horiz-adv-x="458" 
d="M176 -8c-113 0 -131 63 -131 145v223h119v-214c0 -50 12 -58 49 -58c33 0 62 9 80 18v254h120v-360h-120v37c-22 -17 -69 -45 -117 -45z" />
    <glyph glyph-name="v.inferior" unicode="&#x1d65;" horiz-adv-x="431" 
d="M145 0l-140 360h128l80 -257l87 257h126l-150 -360h-131z" />
    <glyph glyph-name="uni1E46" unicode="&#x1e46;" horiz-adv-x="796" 
d="M78 0v707h197l278 -485l-5 79v406h170v-707h-203l-271 473l4 -94v-379h-170zM397 -261l-111 112l111 111l112 -111z" />
    <glyph glyph-name="uni1E47" unicode="&#x1e47;" horiz-adv-x="664" 
d="M68 0v546h167v-55c33 25 105 69 178 69c171 0 183 -94 183 -218v-342h-166v328c0 75 -17 88 -73 88c-50 0 -95 -16 -122 -29v-387h-167zM331 -285l-111 112l111 111l112 -111z" />
    <glyph glyph-name="uni1E62" unicode="&#x1e62;" horiz-adv-x="597" 
d="M265 -11c-116 0 -184 21 -237 50l48 122c63 -22 109 -32 187 -32c85 0 124 26 124 69c0 115 -336 84 -336 324c0 136 129 195 254 195c112 0 166 -24 221 -48l-49 -118c-52 15 -95 29 -167 29c-71 0 -93 -27 -93 -57c0 -94 342 -94 342 -319c0 -155 -148 -215 -294 -215z
M300 -261l-111 112l111 111l112 -111z" />
    <glyph glyph-name="uni1E63" unicode="&#x1e63;" horiz-adv-x="512" 
d="M234 -12c-79 0 -143 7 -199 23l18 126c71 -10 128 -15 165 -15c84 0 94 22 94 38c0 59 -275 31 -275 227c0 118 111 173 230 173c67 0 127 -11 184 -31l-28 -121c-53 12 -95 20 -151 20c-57 0 -68 -21 -68 -33c0 -62 273 -45 273 -228c0 -144 -151 -179 -243 -179z
M230 -285l-111 112l111 111l112 -111z" />
    <glyph glyph-name="Wgrave" unicode="&#x1e80;" horiz-adv-x="1061" 
d="M166 0l-152 707h165l110 -599l164 427l-60 172h169l185 -593l138 593h162l-194 -707h-214l-122 362l-132 -362h-219zM604 744l-275 49l27 131l271 -67z" />
    <glyph glyph-name="wgrave" unicode="&#x1e81;" horiz-adv-x="904" 
d="M148 0l-140 546h175l70 -410l100 410h197l85 -410l90 410h171l-162 -546h-205l-64 298l-18 91l-21 -91l-71 -298h-207zM540 602l-244 104l54 117l238 -121z" />
    <glyph glyph-name="Wacute" unicode="&#x1e82;" horiz-adv-x="1061" 
d="M166 0l-152 707h165l110 -599l164 427l-60 172h169l185 -593l138 593h162l-194 -707h-214l-122 362l-132 -362h-219zM402 744l-23 113l271 67l27 -131z" />
    <glyph glyph-name="wacute" unicode="&#x1e83;" horiz-adv-x="904" 
d="M148 0l-140 546h175l70 -410l100 410h197l85 -410l90 410h171l-162 -546h-205l-64 298l-18 91l-21 -91l-71 -298h-207zM376 602l-47 100l238 121l54 -117z" />
    <glyph glyph-name="Wdieresis" unicode="&#x1e84;" horiz-adv-x="1061" 
d="M166 0l-152 707h165l110 -599l164 427l-60 172h169l185 -593l138 593h162l-194 -707h-214l-122 362l-132 -362h-219zM393 737l-99 100l99 100l100 -100zM637 737l-100 100l100 100l99 -100z" />
    <glyph glyph-name="wdieresis" unicode="&#x1e85;" horiz-adv-x="904" 
d="M148 0l-140 546h175l70 -410l100 410h197l85 -410l90 410h171l-162 -546h-205l-64 298l-18 91l-21 -91l-71 -298h-207zM324 622l-93 94l93 94l94 -94zM568 622l-94 94l94 94l93 -94z" />
    <glyph glyph-name="uni1EBC" unicode="&#x1ebc;" horiz-adv-x="613" 
d="M78 0v707h464v-133h-294v-157h272v-124h-272v-160h317v-133h-487zM373 755c-51 0 -89 38 -128 38c-19 0 -40 -2 -70 -28l-63 74c24 29 77 82 144 82c63 0 89 -38 123 -38c32 0 51 7 87 26l55 -74c-23 -25 -73 -80 -148 -80z" />
    <glyph glyph-name="uni1EBD" unicode="&#x1ebd;" horiz-adv-x="596" 
d="M334 -12c-180 0 -296 59 -296 277c0 223 117 294 282 294c172 0 238 -112 238 -277v-60h-354c-1 -86 67 -102 154 -102c37 0 99 12 156 22l25 -127c-61 -18 -139 -27 -205 -27zM209 329h178c2 66 -27 112 -81 112c-57 0 -94 -40 -97 -112zM367 634c-51 0 -89 38 -128 38
c-19 0 -40 -2 -70 -28l-63 74c24 29 77 82 144 82c63 0 89 -38 123 -38c32 0 51 7 87 26l55 -74c-23 -25 -73 -80 -148 -80z" />
    <glyph glyph-name="Ygrave" unicode="&#x1ef2;" horiz-adv-x="709" 
d="M261 0v227l-261 480h196l156 -337l166 337h191l-278 -474v-233h-170zM450 744l-275 49l27 131l271 -67z" />
    <glyph glyph-name="ygrave" unicode="&#x1ef3;" horiz-adv-x="616" 
d="M182 -220l74 220h-60l-188 546h179l94 -324l23 -89l27 89l109 324h168l-267 -766h-159zM378 602l-244 104l54 117l238 -121z" />
    <glyph glyph-name="uni2012" unicode="&#x2012;" horiz-adv-x="400" 
d="M0 225v156h400v-156h-400z" />
    <glyph glyph-name="endash" unicode="&#x2013;" horiz-adv-x="600" 
d="M50 230v113h500v-113h-500z" />
    <glyph glyph-name="emdash" unicode="&#x2014;" horiz-adv-x="1000" 
d="M60 230v113h879v-113h-879z" />
    <glyph glyph-name="quoteleft" unicode="&#x2018;" horiz-adv-x="275" 
d="M45 485v98c0 63 25 126 63 172h120c-31 -57 -32 -115 -32 -134v-136h-151z" />
    <glyph glyph-name="quoteright" unicode="&#x2019;" horiz-adv-x="275" 
d="M48 485c31 57 32 115 32 134v136h151v-98c0 -63 -25 -126 -63 -172h-120z" />
    <glyph glyph-name="quotesinglbase" unicode="&#x201a;" horiz-adv-x="324" 
d="M62 -122c31 57 32 115 32 134v136h153v-98c0 -63 -25 -126 -63 -172h-122z" />
    <glyph glyph-name="quotedblleft" unicode="&#x201c;" horiz-adv-x="495" 
d="M54 485v98c0 63 25 126 63 172h121c-31 -57 -32 -115 -32 -134v-136h-152zM274 485v98c0 63 25 126 63 172h121c-31 -57 -32 -115 -32 -134v-136h-152z" />
    <glyph glyph-name="quotedblright" unicode="&#x201d;" horiz-adv-x="495" 
d="M52 485c31 57 32 115 32 134v136h152v-98c0 -63 -25 -126 -63 -172h-121zM272 485c31 57 32 115 32 134v136h152v-98c0 -63 -25 -126 -63 -172h-121z" />
    <glyph glyph-name="quotedblbase" unicode="&#x201e;" horiz-adv-x="495" 
d="M34 -122c31 57 32 115 32 134v136h147v-98c0 -63 -25 -126 -63 -172h-116zM242 -122c31 57 32 115 32 134v136h147v-98c0 -63 -25 -126 -63 -172h-116z" />
    <glyph glyph-name="dagger" unicode="&#x2020;" horiz-adv-x="532" 
d="M180 0l10 462l-170 -9v150l168 -9l-10 160h176l-10 -160l168 9v-150l-170 9l10 -462h-172z" />
    <glyph glyph-name="daggerdbl" unicode="&#x2021;" horiz-adv-x="532" 
d="M180 0l10 160l-170 -9v150l170 -8v169l-170 -9v150l168 -9l-10 160h176l-10 -160l168 9v-150l-169 9v-169l169 8v-150l-169 9l10 -160h-173z" />
    <glyph glyph-name="bullet" unicode="&#x2022;" horiz-adv-x="516" 
d="M258 208c-80 0 -145 64 -145 144s65 145 145 145s145 -65 145 -145s-65 -144 -145 -144z" />
    <glyph glyph-name="ellipsis" unicode="&#x2026;" horiz-adv-x="947" 
d="M78 0v147h168v-147h-168zM390 0v147h168v-147h-168zM701 0v147h168v-147h-168z" />
    <glyph glyph-name="perthousand" unicode="&#x2030;" horiz-adv-x="1271" 
d="M217 352c-98 0 -187 48 -187 176c0 117 89 186 190 186c98 0 191 -46 191 -179c0 -119 -91 -183 -194 -183zM217 466c29 0 55 19 55 69c0 49 -20 65 -52 65c-23 0 -51 -12 -51 -72c0 -49 18 -62 48 -62zM637 -11c-98 0 -187 47 -187 175c0 118 89 186 190 186
c98 0 191 -46 191 -179c0 -119 -91 -182 -194 -182zM637 103c29 0 55 18 55 68c0 49 -20 65 -52 65c-23 0 -51 -12 -51 -72c0 -49 18 -61 48 -61zM1047 -11c-98 0 -187 47 -187 175c0 118 89 186 190 186c98 0 191 -46 191 -179c0 -119 -91 -182 -194 -182zM1047 103
c29 0 55 18 55 68c0 49 -20 65 -52 65c-23 0 -51 -12 -51 -72c0 -49 18 -61 48 -61zM178 37l-87 90l582 531l87 -90z" />
    <glyph glyph-name="guilsinglleft" unicode="&#x2039;" horiz-adv-x="273" 
d="M140 43l-128 229l127 227l123 -42l-91 -185l90 -179z" />
    <glyph glyph-name="guilsinglright" unicode="&#x203a;" horiz-adv-x="273" 
d="M135 43l-121 50l89 179l-91 185l123 42l127 -227z" />
    <glyph glyph-name="fraction" unicode="&#x2044;" horiz-adv-x="201" 
d="M-143 62l-57 62l543 543l58 -60z" />
    <glyph glyph-name="fraction" unicode="&#x2215;" horiz-adv-x="201" 
d="M-143 62l-57 62l543 543l58 -60z" />
    <glyph glyph-name="zerosuperior" unicode="&#x2070;" horiz-adv-x="388" 
d="M191 412c-135 0 -169 93 -169 183c0 89 35 193 178 193c144 0 166 -107 166 -182c0 -101 -42 -194 -175 -194zM194 498c43 0 50 46 50 104c0 48 -7 90 -48 90c-45 0 -52 -41 -52 -95c0 -65 13 -99 50 -99z" />
    <glyph glyph-name="i.superior" unicode="&#x2071;" horiz-adv-x="207" 
d="M46 416v360h119v-360h-119zM103 815l-73 74l73 73l74 -73z" />
    <glyph glyph-name="foursuperior" unicode="&#x2074;" horiz-adv-x="340" 
d="M169 414v79h-157v86l101 204h164v-206h50v-84h-50v-79h-108zM91 577h78v143z" />
    <glyph glyph-name="fivesuperior" unicode="&#x2075;" horiz-adv-x="337" 
d="M151 407c-50 0 -87 11 -118 17l20 78c35 -10 62 -18 95 -18s44 22 44 44c0 31 -27 43 -54 43c-23 0 -48 1 -87 -3v215h240v-94h-134v-35h8c86 0 147 -23 147 -115c0 -85 -74 -132 -161 -132z" />
    <glyph glyph-name="sixsuperior" unicode="&#x2076;" horiz-adv-x="367" 
d="M186 408c-104 0 -162 38 -162 169c0 141 82 210 186 210c33 0 68 -4 112 -17l-29 -88c-25 7 -50 9 -76 9c-34 0 -64 -24 -74 -69c23 14 47 22 70 22c72 0 129 -20 129 -100c0 -103 -74 -136 -156 -136zM191 493c18 0 30 22 30 46c0 31 -16 38 -36 38c-16 0 -25 -3 -40 -7
v-16c2 -47 18 -61 46 -61z" />
    <glyph glyph-name="sevensuperior" unicode="&#x2077;" horiz-adv-x="281" 
d="M121 407l-116 24l162 244h-160v108h271v-94z" />
    <glyph glyph-name="eightsuperior" unicode="&#x2078;" horiz-adv-x="356" 
d="M176 410c-92 0 -155 25 -155 105c0 46 31 75 61 91c-26 17 -47 46 -47 79c0 77 72 103 147 103c77 0 142 -36 142 -97c0 -36 -25 -63 -52 -79c31 -16 62 -50 62 -90c0 -68 -59 -112 -158 -112zM179 490c29 0 34 21 34 34c0 15 -25 30 -58 44c-11 -9 -15 -26 -15 -44
c0 -16 9 -34 39 -34zM191 647c11 14 15 17 15 36c0 11 -8 25 -26 25c-24 0 -31 -13 -31 -26c0 -18 23 -27 42 -35z" />
    <glyph glyph-name="ninesuperior" unicode="&#x2079;" horiz-adv-x="361" 
d="M156 410c-33 0 -68 4 -112 17l29 88c25 -7 50 -9 76 -9c34 0 64 24 74 69c-23 -14 -47 -22 -70 -22c-72 0 -129 20 -129 100c0 103 74 136 156 136c104 0 162 -38 162 -169c0 -141 -82 -210 -186 -210zM181 620c16 0 25 3 40 7c3 49 -11 77 -44 77c-18 0 -34 -18 -34 -42
c0 -31 18 -42 38 -42z" />
    <glyph glyph-name="plussuperior" unicode="&#x207a;" horiz-adv-x="398" 
d="M156 446l1 131l-131 -1v83l131 -3l-1 133h84l-4 -135l136 5v-83l-134 1l2 -131h-84z" />
    <glyph glyph-name="minussuperior" unicode="&#x207b;" horiz-adv-x="398" 
d="M26 576v83h346v-83h-346z" />
    <glyph glyph-name="equalsuperior" unicode="&#x207c;" horiz-adv-x="398" 
d="M26 492v83h346v-83h-346zM26 659v83h346v-83h-346z" />
    <glyph glyph-name="parenleftsuperior" unicode="&#x207d;" horiz-adv-x="233" 
d="M195 267c0 0 -179 113 -179 336c0 227 181 321 181 321l68 -71s-128 -83 -128 -249c0 -168 127 -266 127 -266z" />
    <glyph glyph-name="parenrightsuperior" unicode="&#x207e;" horiz-adv-x="233" 
d="M70 267l-69 71s128 98 128 266c0 166 -129 249 -129 249l69 71s180 -94 180 -321c0 -223 -179 -336 -179 -336z" />
    <glyph glyph-name="n.superior" unicode="&#x207f;" horiz-adv-x="453" 
d="M45 416v360h120v-36c22 17 69 46 118 46c112 0 130 -62 130 -144v-226h-119v216c0 50 -11 59 -48 59c-33 0 -63 -11 -81 -20v-255h-120z" />
    <glyph glyph-name="zeroinferior" unicode="&#x2080;" horiz-adv-x="388" 
d="M191 -4c-135 0 -169 93 -169 183c0 89 35 193 178 193c144 0 166 -107 166 -182c0 -101 -42 -194 -175 -194zM194 82c43 0 50 46 50 104c0 48 -7 90 -48 90c-45 0 -52 -41 -52 -95c0 -65 13 -99 50 -99z" />
    <glyph glyph-name="oneinferior" unicode="&#x2081;" horiz-adv-x="240" 
d="M83 0v271h-73v93l194 5v-369h-121z" />
    <glyph glyph-name="twoinferior" unicode="&#x2082;" horiz-adv-x="306" 
d="M10 0v75c76 52 157 123 157 162c0 19 -18 33 -41 33c-29 0 -52 -9 -72 -22l-38 80c35 27 69 45 134 45c91 0 139 -59 139 -122c0 -60 -57 -116 -136 -156h139v-95h-282z" />
    <glyph glyph-name="threeinferior" unicode="&#x2083;" horiz-adv-x="305" 
d="M131 -6c-58 0 -89 8 -119 16l18 88c35 -8 59 -10 90 -10c40 0 50 19 50 38c0 29 -23 39 -82 39v51c60 6 65 20 65 44c0 8 -8 24 -30 24c-31 0 -51 -4 -77 -16l-25 80c33 17 75 25 113 25c87 0 139 -30 139 -103c0 -28 -15 -58 -42 -71c35 -14 60 -39 60 -86
c0 -89 -71 -119 -160 -119z" />
    <glyph glyph-name="fourinferior" unicode="&#x2084;" horiz-adv-x="340" 
d="M169 0v79h-157v86l101 204h164v-206h50v-84h-50v-79h-108zM91 163h78v143z" />
    <glyph glyph-name="fiveinferior" unicode="&#x2085;" horiz-adv-x="337" 
d="M151 -7c-50 0 -87 11 -118 17l20 78c35 -10 62 -18 95 -18s44 22 44 44c0 31 -27 43 -54 43c-23 0 -48 1 -87 -3v215h240v-94h-134v-35h8c86 0 147 -23 147 -115c0 -85 -74 -132 -161 -132z" />
    <glyph glyph-name="sixinferior" unicode="&#x2086;" horiz-adv-x="367" 
d="M186 -6c-104 0 -162 38 -162 169c0 141 82 210 186 210c33 0 68 -4 112 -17l-29 -88c-25 7 -50 9 -76 9c-34 0 -64 -24 -74 -69c23 14 47 22 70 22c72 0 129 -20 129 -100c0 -103 -74 -136 -156 -136zM191 79c18 0 30 22 30 46c0 31 -16 38 -36 38c-16 0 -25 -3 -40 -7
v-16c2 -47 18 -61 46 -61z" />
    <glyph glyph-name="seveninferior" unicode="&#x2087;" horiz-adv-x="281" 
d="M121 -7l-116 24l162 244h-160v108h271v-94z" />
    <glyph glyph-name="eightinferior" unicode="&#x2088;" horiz-adv-x="356" 
d="M176 -4c-92 0 -155 25 -155 105c0 46 31 75 61 91c-26 17 -47 46 -47 79c0 77 72 103 147 103c77 0 142 -36 142 -97c0 -36 -25 -63 -52 -79c31 -16 62 -50 62 -90c0 -68 -59 -112 -158 -112zM179 76c29 0 34 21 34 34c0 15 -25 30 -58 44c-11 -9 -15 -26 -15 -44
c0 -16 9 -34 39 -34zM191 233c11 14 15 17 15 36c0 11 -8 25 -26 25c-24 0 -31 -13 -31 -26c0 -18 23 -27 42 -35z" />
    <glyph glyph-name="nineinferior" unicode="&#x2089;" horiz-adv-x="361" 
d="M156 -6c-33 0 -68 4 -112 17l29 88c25 -7 50 -9 76 -9c34 0 64 24 74 69c-23 -14 -47 -22 -70 -22c-72 0 -129 20 -129 100c0 103 74 136 156 136c104 0 162 -38 162 -169c0 -141 -82 -210 -186 -210zM181 204c16 0 25 3 40 7c1 52 -10 77 -43 77c-21 0 -33 -22 -33 -46
c0 -31 16 -38 36 -38z" />
    <glyph glyph-name="plus.inferior" unicode="&#x208a;" horiz-adv-x="398" 
d="M156 30l1 131l-131 -1v83l131 -3l-1 133h84l-4 -135l136 5v-83l-134 1l2 -131h-84z" />
    <glyph glyph-name="minus.inferior" unicode="&#x208b;" horiz-adv-x="398" 
d="M26 160v83h346v-83h-346z" />
    <glyph glyph-name="equal.inferior" unicode="&#x208c;" horiz-adv-x="398" 
d="M26 76v83h346v-83h-346zM26 243v83h346v-83h-346z" />
    <glyph glyph-name="parenleft.inferior" unicode="&#x208d;" horiz-adv-x="265" 
d="M195 -149c0 0 -179 113 -179 336c0 227 181 321 181 321l68 -71s-128 -83 -128 -249c0 -168 127 -266 127 -266z" />
    <glyph glyph-name="parenright.inferior" unicode="&#x208e;" horiz-adv-x="265" 
d="M70 -149l-69 71s128 98 128 266c0 166 -129 249 -129 249l69 71s180 -94 180 -321c0 -223 -179 -336 -179 -336z" />
    <glyph glyph-name="colonsign" unicode="&#x20a1;" horiz-adv-x="742" 
d="M47 -75l85 167c-59 60 -89 147 -89 257c0 246 131 366 388 366h21l44 85h75l-47 -91c36 -4 66 -12 92 -21l58 112h78l-341 -666c13 -1 27 -2 42 -2c69 0 110 6 164 20l36 -128c-68 -25 -127 -34 -218 -34c-34 0 -66 2 -95 7l-37 -72h-78l44 87c-31 9 -59 21 -84 37
l-63 -124h-75zM341 152l212 412c-31 6 -57 9 -98 10l-189 -369c20 -23 45 -41 75 -53zM227 277l151 294c-98 -17 -162 -86 -162 -212c0 -30 4 -58 11 -82z" />
    <glyph glyph-name="cruzeiro" unicode="&#x20a2;" horiz-adv-x="748" 
d="M472 -10c-293 0 -412 127 -412 359c0 246 151 366 408 366c105 0 187 -17 240 -41l-45 -123c-67 18 -115 23 -193 24c-153 2 -237 -68 -237 -216c0 -92 35 -157 102 -194v301h167v-73c27 35 78 84 141 84c30 0 52 -2 75 -9l-22 -137c-32 6 -43 6 -73 6
c-49 0 -99 -23 -121 -47v-158h25c54 2 103 9 147 20l36 -128c-68 -25 -147 -34 -238 -34z" />
    <glyph glyph-name="franc" unicode="&#x20a3;" horiz-adv-x="784" 
d="M78 0v707h494v-133h-324v-150l330 1v-73c27 35 78 84 141 84c30 0 52 -2 75 -9l-22 -137c-32 6 -43 6 -73 6c-49 0 -99 -23 -121 -47v-249h-167v301h-163v-301h-170z" />
    <glyph glyph-name="lira" unicode="&#x20a4;" horiz-adv-x="543" 
d="M57 0v132c39 21 54 50 62 93h-81v122h88c0 10 -1 21 -1 33h-88v121h87c0 20 2 39 6 55c31 142 173 152 317 152l6 -136c-104 -10 -145 -7 -155 -51c-1 -6 -3 -12 -3 -20h144v-121h-146c0 -12 -1 -23 -1 -33h148v-122h-165c-9 -36 -21 -67 -39 -93h279v-132h-458z" />
    <glyph glyph-name="mill" unicode="&#x20a5;" horiz-adv-x="996" 
d="M193 -134l222 422c-2 115 -20 126 -68 126c-37 0 -82 -11 -112 -27v-387h-167v546h167v-55c27 20 112 70 177 70c54 0 96 -16 124 -42l117 222h133l-101 -192c22 7 45 12 68 12c178 0 175 -127 175 -219v-342h-167v328c0 67 -17 88 -69 88c-27 0 -60 -9 -88 -20l-23 -44
v-352h-166v37l-90 -171h-132z" />
    <glyph glyph-name="naira" unicode="&#x20a6;" horiz-adv-x="851" 
d="M111 0v254h-111v80h111v30h-111v80h111v263h197l150 -263h123v263h170v-263h100v-80h-100v-30h100v-80h-100v-254h-203l-146 254h-121v-254h-170zM281 334h75l-17 30h-58v-30zM521 334h60v30h-77zM281 444h12l-12 22v-22zM581 230v24h-14z" />
    <glyph glyph-name="pesetas" unicode="&#x20a7;" horiz-adv-x="1562" 
d="M78 0v707h275c159 0 273 -93 273 -251c0 -139 -114 -256 -325 -256h-52v-200h-171zM249 574v-243h58c106 0 144 55 144 121c0 71 -29 122 -120 122h-82zM943 -11c-105 0 -228 -5 -228 181v253h-80v123h80v112h166v-112h169v-123h-169v-252c0 -40 15 -43 60 -43
c37 0 118 11 118 11l16 -131c-39 -11 -92 -19 -132 -19zM1284 -12c-79 0 -143 7 -199 23l18 126c71 -10 128 -15 165 -15c84 0 94 22 94 38c0 59 -275 31 -275 227c0 118 111 173 230 173c67 0 127 -11 184 -31l-28 -121c-53 12 -95 20 -151 20c-57 0 -68 -21 -68 -33
c0 -62 273 -45 273 -228c0 -144 -151 -179 -243 -179z" />
    <glyph glyph-name="rupee" unicode="&#x20a8;" horiz-adv-x="1120" 
d="M804 -12c-178 0 -289 53 -385 164l-80 93c-12 -1 -25 -1 -38 -1h-52v-244h-171v707h275c159 0 273 -73 273 -231c0 -79 -38 -148 -114 -191l72 -78c55 -60 147 -91 229 -91c84 0 107 15 107 44c0 59 -275 31 -275 227c0 118 111 173 230 173c67 0 127 -11 184 -31
l-28 -121c-53 12 -95 20 -151 20c-57 0 -68 -21 -68 -33c0 -62 273 -45 273 -228c0 -119 -95 -179 -281 -179zM249 363h58c101 0 144 42 144 109c0 71 -29 101 -120 101h-82v-210z" />
    <glyph glyph-name="won" unicode="&#x20a9;" horiz-adv-x="1039" 
d="M166 0l-55 254h-118v80h101l-11 50h-90v80h73l-52 243h165l44 -243h202l28 71l-60 172h169l76 -243h190l57 243h162l-67 -243h82v-80h-104l-14 -50h118v-80h-140l-69 -254h-214l-86 254h-76l-92 -254h-219zM247 334h128l20 50h-157zM678 334h120l11 50h-146zM289 108
l56 146h-83zM507 334h19l-9 28zM747 114l32 140h-76z" />
    <glyph glyph-name="sheqel" unicode="&#x20aa;" horiz-adv-x="1061" 
d="M331 1v465h171v-311h134c154 0 165 32 165 160v391h170v-411c0 -210 -66 -294 -314 -294h-326zM90 0v707h326c248 0 314 -84 314 -294v-172h-170v152c0 128 -11 160 -165 160h-134v-553h-171z" />
    <glyph glyph-name="dong" unicode="&#x20ab;" horiz-adv-x="673" 
d="M283 103c-110 0 -225 32 -225 235c0 157 111 232 277 232c30 0 55 -4 72 -6v47h-102v79h102v64h167v-64h59v-79h-59v-501h-167v39c-24 -19 -55 -46 -124 -46zM316 241c30 0 66 7 91 17v173c-17 3 -39 7 -69 7c-95 0 -114 -44 -114 -103c0 -68 33 -94 92 -94zM80 0v77h494
v-77h-494z" />
    <glyph glyph-name="Euro" unicode="&#x20ac;" horiz-adv-x="611" 
d="M388 -8c-166 0 -269 65 -302 184h-56v70h45c0 7 -1 15 -1 23c0 11 1 22 1 32h-45v70h57c34 120 135 180 298 180c82 0 132 -13 185 -36l-43 -111c-61 16 -82 19 -141 20c-56 1 -102 -16 -128 -53h189v-70h-214c-1 -8 -1 -16 -1 -25c0 -11 0 -21 2 -30h213v-70h-185
c29 -37 78 -56 140 -56c52 0 83 4 135 17l34 -115c-65 -23 -112 -30 -183 -30z" />
    <glyph glyph-name="uni20AD" unicode="&#x20ad;" horiz-adv-x="760" 
d="M115 0v307h-115v130h115v270h170v-270h26l216 270h217l-234 -270h214v-130h-211l247 -307h-217l-223 307h-35v-307h-170z" />
    <glyph glyph-name="uni20AE" unicode="&#x20ae;" horiz-adv-x="630" 
d="M230 0v182l-142 -59v82l142 59v70l-142 -59v78l142 59v162h-222v133h614v-133h-222v-91l133 56v-78l-133 -56v-70l133 56v-82l-133 -56v-253h-170z" />
    <glyph glyph-name="uni20B1" unicode="&#x20b1;" horiz-adv-x="728" 
d="M95 0v364h-95v80h95v25h-95v80h95v158h275c124 0 222 -57 258 -158h100v-80h-85v-25h85v-80h-103c-40 -95 -145 -164 -307 -164h-52v-200h-171zM266 444h202v8c0 6 0 11 -1 17h-201v-25zM266 364v-33h58c50 0 85 12 108 33h-166zM266 549h166c-19 16 -46 25 -84 25h-82
v-25z" />
    <glyph glyph-name="afii61289" unicode="&#x2113;" horiz-adv-x="513" 
d="M235 -12c-102 0 -143 53 -143 178v60l-56 -37l-42 57l98 66v196c0 176 149 259 241 259c58 0 148 -24 148 -125c0 -115 -100 -214 -222 -304v-129c0 -96 7 -124 52 -124c30 0 59 11 77 25l31 -45c-44 -44 -92 -77 -184 -77zM259 570v-133c64 57 111 117 111 178
c0 50 -8 83 -49 83c-39 0 -62 -31 -62 -128z" />
    <glyph glyph-name="afii61352" unicode="&#x2116;" horiz-adv-x="1069" 
d="M849 207c-108 0 -166 60 -166 152c0 98 68 158 170 158c116 0 168 -60 168 -155c0 -101 -73 -155 -172 -155zM852 286c48 0 60 27 60 76c0 45 -12 76 -60 76c-47 0 -62 -31 -62 -77c0 -39 17 -75 62 -75zM68 0v546h171l225 -335l-4 58v277h155v-546h-175l-225 326l8 -68
v-258h-155zM694 64v88h316v-88h-316z" />
    <glyph glyph-name="uni2117" unicode="&#x2117;" horiz-adv-x="833" 
d="M778 352c0 -220 -141 -363 -369 -363c-224 0 -354 148 -354 365c0 227 153 361 371 361c232 0 352 -155 352 -363zM665 353c0 157 -86 269 -247 269c-168 0 -251 -112 -251 -267c0 -148 80 -273 245 -273c173 0 253 115 253 271zM589 412c0 -143 -145 -145 -181 -145h-15
v-104h-102v381h142c82 0 156 -31 156 -132zM482 410c0 33 -21 54 -59 54h-30v-118h18c46 0 71 22 71 64z" />
    <glyph glyph-name="servicemark" unicode="&#x2120;" horiz-adv-x="836" 
d="M164 346c-52 0 -104 5 -141 15l12 83c48 -8 87 -12 120 -12c55 0 61 17 61 28c0 39 -192 15 -192 144c0 78 84 115 162 115c44 0 94 -8 132 -21l-19 -80c-35 8 -73 13 -109 13c-38 0 -45 -13 -45 -21c0 -41 190 -25 190 -146c0 -95 -110 -118 -171 -118zM375 353v355h121
l98 -234l98 234h116v-355h-109l4 150l-60 -150h-107l-54 145l2 -145h-109z" />
    <glyph glyph-name="trademark" unicode="&#x2122;" horiz-adv-x="836" 
d="M375 353v355h121l98 -234l98 234h116v-355h-109l4 150l-60 -150h-107l-54 145l2 -145h-109zM136 353v259h-108v96h325v-96h-108v-259h-109z" />
    <glyph glyph-name="Omega" unicode="&#x2126;" horiz-adv-x="867" 
d="M63 0v141h107c-53 33 -115 112 -115 219c0 229 145 358 386 358c257 0 371 -144 371 -355c0 -99 -56 -187 -115 -222h107v-141h-293v133c66 50 128 122 128 229c0 127 -64 222 -207 222c-134 0 -205 -89 -205 -220c0 -107 63 -181 129 -231v-133h-293z" />
    <glyph glyph-name="estimated" unicode="&#x212e;" horiz-adv-x="621" 
d="M318 -8c-202 0 -306 103 -306 276c0 177 136 298 310 298c173 0 288 -82 291 -248l1 -56h-420v-55c0 -84 38 -134 128 -134c77 0 161 26 213 103l62 -46c-53 -100 -193 -138 -279 -138zM194 334h237v19c0 84 -21 133 -109 133c-91 0 -128 -47 -128 -133v-19z" />
    <glyph glyph-name="uni2139" unicode="&#x2139;" horiz-adv-x="800" 
d="M400 -9c-200 0 -363 162 -363 363c0 200 163 363 363 363s363 -163 363 -363c0 -201 -163 -363 -363 -363zM400 71c156 0 283 127 283 283s-127 283 -283 283s-283 -127 -283 -283s127 -283 283 -283zM400 451c-40 0 -72 32 -72 72s32 72 72 72s72 -32 72 -72
s-32 -72 -72 -72zM331 146v271h137v-271h-137z" />
    <glyph glyph-name="uni213B" unicode="&#x213b;" horiz-adv-x="804" 
d="M754 0h-704v309h111v344h309l175 -175v-169h109v-309zM585 483l-109 110v-110h109zM606 309v135h-170v170h-236v-305h406zM715 39l-1 231h-625v-231h626zM390 529h-144v39h144v-39zM560 360h-314v38h314v-38zM390 444h-144v39h144v-39zM390 80h-144v39h144v-39z" />
    <glyph glyph-name="onethird" unicode="&#x2153;" horiz-adv-x="818" 
d="M103 415v271h-73v93c65 2 129 3 194 5v-369h-121zM128 62l-57 62l543 543l58 -60zM627 -6c-58 0 -89 8 -119 16l18 88c35 -8 59 -10 90 -10c40 0 50 19 50 38c0 29 -23 39 -82 39v51c60 6 65 20 65 44c0 8 -8 24 -30 24c-31 0 -51 -4 -77 -16l-25 80c33 17 75 25 113 25
c87 0 139 -30 139 -103c0 -28 -15 -58 -42 -71c35 -14 60 -39 60 -86c0 -89 -71 -119 -160 -119z" />
    <glyph glyph-name="twothirds" unicode="&#x2154;" horiz-adv-x="818" 
d="M30 415v75c76 52 157 123 157 162c0 19 -18 33 -41 33c-29 0 -52 -9 -72 -22l-38 80c35 27 69 43 134 43c91 0 139 -57 139 -120c0 -60 -57 -116 -136 -156h139v-95h-282zM165 62l-57 62l543 543l58 -60zM628 -6c-58 0 -89 8 -119 16l18 88c35 -8 59 -10 90 -10
c40 0 50 19 50 38c0 29 -23 39 -82 39v51c60 6 65 20 65 44c0 8 -8 24 -30 24c-31 0 -51 -4 -77 -16l-25 80c33 17 75 25 113 25c87 0 139 -30 139 -103c0 -28 -15 -58 -42 -71c35 -14 60 -39 60 -86c0 -89 -71 -119 -160 -119z" />
    <glyph glyph-name="uni215B" unicode="&#x215b;" horiz-adv-x="814" 
d="M103 415v271h-73v93c65 2 129 3 194 5v-369h-121zM126 62l-57 62l543 543l58 -60zM626 -4c-92 0 -155 25 -155 105c0 46 31 75 61 91c-26 17 -47 46 -47 79c0 77 72 103 147 103c77 0 142 -36 142 -97c0 -36 -25 -63 -52 -79c31 -16 62 -50 62 -90
c0 -68 -59 -112 -158 -112zM629 76c29 0 34 21 34 34c0 15 -25 30 -58 44c-11 -9 -15 -26 -15 -44c0 -16 9 -34 39 -34zM641 233c11 14 15 17 15 36c0 11 -8 25 -26 25c-24 0 -31 -13 -31 -26c0 -18 23 -27 42 -35z" />
    <glyph glyph-name="threesup_fraction_eightinf" unicode="&#x215c;" horiz-adv-x="814" 
d="M151 410c-58 0 -89 8 -119 16l18 88c35 -8 59 -10 90 -10c40 0 50 19 50 38c0 29 -23 39 -82 39v51c60 6 65 20 65 44c-2 13 -13 24 -30 24c-31 0 -51 -4 -77 -16c-8 27 -17 53 -25 80c33 17 75 25 113 25c87 0 139 -30 139 -103c0 -28 -15 -58 -42 -71
c35 -14 60 -39 60 -86c0 -89 -71 -119 -160 -119zM126 62l-57 62l543 543l58 -60zM626 -4c-92 0 -155 25 -155 105c0 46 31 75 61 91c-26 17 -47 46 -47 79c0 77 72 103 147 103c77 0 142 -36 142 -97c0 -36 -25 -63 -52 -79c31 -16 62 -50 62 -90c0 -68 -59 -112 -158 -112
zM629 76c29 0 34 21 34 34c0 15 -25 30 -58 44c-11 -9 -15 -26 -15 -44c0 -16 9 -34 39 -34zM641 233c11 14 15 17 15 36c0 11 -8 25 -26 25c-24 0 -31 -13 -31 -26c0 -18 23 -27 42 -35z" />
    <glyph glyph-name="fivesup_fraction_eightinf" unicode="&#x215d;" horiz-adv-x="814" 
d="M161 407c-50 0 -87 11 -118 17l20 78c35 -10 62 -18 95 -18s44 22 44 44c0 31 -27 43 -54 43c-23 0 -48 1 -87 -3v215h240v-94h-134v-35h8c86 0 147 -23 147 -115c0 -85 -74 -132 -161 -132zM126 62l-57 62l543 543l58 -60zM626 -4c-92 0 -155 25 -155 105
c0 46 31 75 61 91c-26 17 -47 46 -47 79c0 77 72 103 147 103c77 0 142 -36 142 -97c0 -36 -25 -63 -52 -79c31 -16 62 -50 62 -90c0 -68 -59 -112 -158 -112zM629 76c29 0 34 21 34 34c0 15 -25 30 -58 44c-11 -9 -15 -26 -15 -44c0 -16 9 -34 39 -34zM641 233
c11 14 15 17 15 36c0 11 -8 25 -26 25c-24 0 -31 -13 -31 -26c0 -18 23 -27 42 -35z" />
    <glyph glyph-name="sevensup_fraction_eightinf" unicode="&#x215e;" horiz-adv-x="814" 
d="M172 407l-116 24l162 244h-160v108h271v-94zM126 62l-57 62l543 543l58 -60zM626 -4c-92 0 -155 25 -155 105c0 46 31 75 61 91c-26 17 -47 46 -47 79c0 77 72 103 147 103c77 0 142 -36 142 -97c0 -36 -25 -63 -52 -79c31 -16 62 -50 62 -90c0 -68 -59 -112 -158 -112z
M629 76c29 0 34 21 34 34c0 15 -25 30 -58 44c-11 -9 -15 -26 -15 -44c0 -16 9 -34 39 -34zM641 233c11 14 15 17 15 36c0 11 -8 25 -26 25c-24 0 -31 -13 -31 -26c0 -18 23 -27 42 -35z" />
    <glyph glyph-name="arrowleft" unicode="&#x2190;" horiz-adv-x="745" 
d="M325 16l-289 288l283 283l100 -100l-106 -106h396l-1 -156h-402l115 -113z" />
    <glyph glyph-name="arrowup" unicode="&#x2191;" horiz-adv-x="745" 
d="M296 -38v402l-113 -115l-96 96l288 289l283 -283l-100 -100l-106 106v-396z" />
    <glyph glyph-name="arrowright" unicode="&#x2192;" horiz-adv-x="745" 
d="M426 19l-100 100l106 106h-396v156h403l-115 113l96 96l289 -288z" />
    <glyph glyph-name="arrowdown" unicode="&#x2193;" horiz-adv-x="745" 
d="M370 -80l-283 283l100 100l106 -106v396l156 -1v-402l113 115l96 -96z" />
    <glyph glyph-name="uni2196" unicode="&#x2196;" horiz-adv-x="745" 
d="M526 3l-284 284l1 -161h-136v408h400v-141h-150l280 -280z" />
    <glyph glyph-name="uni2197" unicode="&#x2197;" horiz-adv-x="745" 
d="M218 -9l-111 110l284 284l-160 -1v136h407v-400h-141v150z" />
    <glyph glyph-name="uni2198" unicode="&#x2198;" horiz-adv-x="745" 
d="M237 17v141h150l-280 280l111 110l284 -284l-1 160h136v-407h-400z" />
    <glyph glyph-name="uni2199" unicode="&#x2199;" horiz-adv-x="745" 
d="M107 31v400h141v-150l280 279l110 -110l-283 -284h160v-135h-408z" />
    <glyph glyph-name="home" unicode="&#x21b8;" horiz-adv-x="780" 
d="M730 400h-92v-400h-491v400h-97l340 270zM623 436l-234 183l-236 -183h470zM599 39v361h-413v-361h231v253h116v-253h66zM353 176h-116v116h116v-116z" />
    <glyph glyph-name="partialdiff" unicode="&#x2202;" horiz-adv-x="634" 
d="M310 -13c-132 0 -267 37 -267 236c0 114 93 243 257 243c33 0 62 -2 89 -5c-39 66 -113 106 -225 130l52 137c153 -35 375 -118 375 -400c0 -233 -97 -341 -281 -341zM303 125c122 0 117 130 117 198v12c-33 5 -58 8 -87 8c-72 0 -123 -41 -123 -120c0 -59 32 -98 93 -98
z" />
    <glyph glyph-name="Delta" unicode="&#x2206;" horiz-adv-x="764" 
d="M231 141h306l-105 315l-38 145l-45 -144zM1 0l289 707h219l254 -707h-762z" />
    <glyph glyph-name="product" unicode="&#x220f;" horiz-adv-x="824" 
d="M120 -221v795h-100v133h784v-133h-101v-795h-170v795h-243v-795h-170z" />
    <glyph glyph-name="summation" unicode="&#x2211;" horiz-adv-x="576" 
d="M31 -220v114l236 349l-237 350v114h515v-133h-313l199 -332l-195 -329h310v-133h-515z" />
    <glyph glyph-name="minus" unicode="&#x2212;" horiz-adv-x="600" 
d="M39 242v126h524v-126h-524z" />
    <glyph glyph-name="radical" unicode="&#x221a;" horiz-adv-x="768" 
d="M264 0l-121 412h-143v134h282l74 -286l27 -124l34 123l191 578h170l-292 -837h-222z" />
    <glyph glyph-name="infinity" unicode="&#x221e;" horiz-adv-x="982" 
d="M256 115c-124 0 -185 66 -185 184c0 117 75 189 189 189c72 0 128 -48 232 -120c107 70 162 120 233 120c121 0 187 -70 187 -183c0 -118 -72 -190 -192 -190c-74 0 -129 55 -233 121c-104 -70 -157 -121 -231 -121zM261 237c36 0 72 28 128 64c-56 37 -95 67 -131 67
c-42 0 -64 -34 -64 -65c0 -35 22 -66 67 -66zM724 237c42 0 64 33 64 65c0 35 -24 66 -67 66c-31 0 -74 -29 -131 -65c60 -35 98 -66 134 -66z" />
    <glyph glyph-name="integral" unicode="&#x222b;" horiz-adv-x="449" 
d="M-64 -231l-12 137c128 15 170 3 170 88v500c0 200 166 225 334 225l11 -141c-138 -10 -177 -2 -177 -83v-502c0 -199 -158 -224 -326 -224z" />
    <glyph glyph-name="approxequal" unicode="&#x2248;" horiz-adv-x="600" 
d="M385 89c-88 0 -132 60 -183 60c-25 0 -48 -8 -75 -33l-77 82c43 53 98 97 157 97c90 0 121 -61 179 -61c17 0 40 -9 88 33l76 -74c-30 -53 -109 -104 -165 -104zM385 331c-88 0 -132 60 -183 60c-25 0 -48 -8 -75 -33l-77 82c43 53 98 97 157 97c90 0 121 -61 179 -61
c17 0 40 -9 88 33l76 -74c-30 -53 -109 -104 -165 -104z" />
    <glyph glyph-name="notequal" unicode="&#x2260;" horiz-adv-x="600" 
d="M43 11l74 102h-47l-2 126h140l91 125h-229l-2 126h322l68 93h103l-68 -93h39v-126h-130l-91 -125h221v-126h-312l-74 -102h-103z" />
    <glyph glyph-name="lessequal" unicode="&#x2264;" horiz-adv-x="600" 
d="M73 0v133h408l-408 145v151l453 161v-139l-275 -98l275 -97v-256h-453z" />
    <glyph glyph-name="greaterequal" unicode="&#x2265;" horiz-adv-x="600" 
d="M73 0v256l275 97l-275 98v139l453 -161v-151l-408 -145h408v-133h-453z" />
    <glyph glyph-name="uni231A" unicode="&#x231a;" horiz-adv-x="786" 
d="M757 354c0 -202 -163 -364 -364 -364s-364 162 -364 364c0 201 163 364 364 364s364 -163 364 -364zM714 354c0 179 -142 321 -321 321s-321 -142 -321 -321s142 -321 321 -321s321 142 321 321zM559 603l-21 -25l-26 15l15 31zM662 489l-32 -15l-15 27l26 21zM692 341
h-30v31h30v-31zM276 593l-26 -16l-21 26l32 21zM661 224l-21 -32l-26 21l15 26zM410 340h-202v33h169v265h33v-298zM173 501l-15 -27l-31 15l20 33zM559 110l-33 -19l-15 30l27 15zM409 59h-30v32h30v-32zM127 341h-31v31h31v-31zM174 213l-27 -21l-20 32l32 15zM276 121
l-15 -30l-32 19l21 26z" />
    <glyph glyph-name="uni235F" unicode="&#x235f;" horiz-adv-x="666" 
d="M616 333c0 -153 -124 -278 -278 -278c-153 0 -278 125 -278 278c0 154 125 278 278 278c154 0 278 -124 278 -278zM498 385l-113 18l-52 102l-52 -102l-112 -18l80 -80l-17 -113l101 52l102 -52l-18 113z" />
    <glyph glyph-name="uni24BB" unicode="&#x24bb;" horiz-adv-x="793" 
d="M763 354c0 -201 -163 -363 -363 -363s-363 162 -363 363c0 200 163 363 363 363s363 -163 363 -363zM683 354c0 156 -127 283 -283 283s-283 -127 -283 -283s127 -283 283 -283s283 127 283 283zM504 426h-125v-68h117v-58h-117v-87h-77v274h202v-61z" />
    <glyph glyph-name="uni24C2" unicode="&#x24c2;" horiz-adv-x="793" 
d="M223 213v274h90l86 -201l92 201h86v-274h-73v113l4 43l-71 -156h-79l-68 156l6 -43v-113h-73zM400 -9c-200 0 -363 162 -363 363c0 200 163 363 363 363s363 -163 363 -363c0 -201 -163 -363 -363 -363zM400 71c156 0 283 127 283 283s-127 283 -283 283
s-283 -127 -283 -283s127 -283 283 -283z" />
    <glyph glyph-name="uni24C9" unicode="&#x24c9;" horiz-adv-x="793" 
d="M763 354c0 -201 -163 -363 -363 -363s-363 162 -363 363c0 200 163 363 363 363s363 -163 363 -363zM683 354c0 156 -127 283 -283 283s-283 -127 -283 -283s127 -283 283 -283s283 127 283 283zM518 426h-85v-213h-78v213h-86v61h249v-61z" />
    <glyph glyph-name="uni24CC" unicode="&#x24cc;" horiz-adv-x="793" 
d="M763 354c0 -201 -163 -363 -363 -363s-363 162 -363 363c0 200 163 363 363 363s363 -163 363 -363zM683 354c0 156 -127 283 -283 283s-283 -127 -283 -283s127 -283 283 -283s283 127 283 283zM606 487l-78 -274h-91l-36 98l-8 26l-8 -26l-38 -98h-94l-61 274h76
l33 -170l7 -42l14 44l40 98l-25 70h79l55 -171l10 -39l9 43l41 167h75z" />
    <glyph glyph-name="uni25A0" unicode="&#x25a0;" horiz-adv-x="926" 
d="M110 0v707h706v-707h-706z" />
    <glyph glyph-name="uni25A1" unicode="&#x25a1;" horiz-adv-x="800" 
d="M60 13v681h680v-681h-680zM200 153h400v401h-400v-401z" />
    <glyph glyph-name="uni25AA" unicode="&#x25aa;" horiz-adv-x="766" 
d="M110 0v547h546v-547h-546z" />
    <glyph glyph-name="uni25AB" unicode="&#x25ab;" horiz-adv-x="766" 
d="M110 0v547h546v-547h-546zM276 167h214v214h-214v-214z" />
    <glyph glyph-name="uni25B6" unicode="&#x25b6;" horiz-adv-x="665" 
d="M110 -62v670l535 -335z" />
    <glyph glyph-name="uni25B7" unicode="&#x25b7;" horiz-adv-x="665" 
d="M110 -62v670l535 -335zM276 217l102 56l-102 61v-117z" />
    <glyph glyph-name="uni25B8" unicode="&#x25b8;" horiz-adv-x="465" 
d="M444 273l-334 -335v670z" />
    <glyph glyph-name="uni25B9" unicode="&#x25b9;" horiz-adv-x="465" 
d="M444 273l-334 -335v670zM289 273l-61 61v-122z" />
    <glyph glyph-name="uni25BA" unicode="&#x25ba;" horiz-adv-x="1013" 
d="M1013 273l-903 -335v670z" />
    <glyph glyph-name="uni25BB" unicode="&#x25bb;" horiz-adv-x="1013" 
d="M1013 273l-903 -335v670zM625 273l-349 104v-206z" />
    <glyph glyph-name="uni25C0" unicode="&#x25c0;" horiz-adv-x="665" 
d="M555 -62l-535 335l535 335v-670z" />
    <glyph glyph-name="uni25C1" unicode="&#x25c1;" horiz-adv-x="665" 
d="M555 -62l-535 335l535 335v-670zM389 217v117l-102 -61z" />
    <glyph glyph-name="uni25C2" unicode="&#x25c2;" horiz-adv-x="464" 
d="M354 -62l-334 336l334 334v-670z" />
    <glyph glyph-name="uni25C3" unicode="&#x25c3;" horiz-adv-x="464" 
d="M354 -62l-334 335l334 335v-670zM236 212v122l-60 -61z" />
    <glyph glyph-name="uni25C4" unicode="&#x25c4;" horiz-adv-x="1013" 
d="M903 -62l-903 334l903 336v-670z" />
    <glyph glyph-name="uni25C5" unicode="&#x25c5;" horiz-adv-x="1013" 
d="M903 -62l-903 335l903 335v-670zM737 171v206l-349 -104z" />
    <glyph glyph-name="uni25C6" unicode="&#x25c6;" horiz-adv-x="510" 
d="M255 172l-175 175l175 175l175 -175z" />
    <glyph glyph-name="uni25C9" unicode="&#x25c9;" horiz-adv-x="891" 
d="M797 361c0 -97 -34 -179 -103 -248s-151 -103 -248 -103s-180 34 -249 103c-68 68 -103 151 -103 248c0 98 34 180 103 249s152 103 249 103s180 -35 248 -103c69 -69 103 -151 103 -249zM745 361c0 83 -29 153 -88 212c-58 58 -129 87 -211 87c-83 0 -153 -28 -212 -87
s-87 -129 -87 -212c0 -82 29 -153 87 -211c59 -58 129 -88 212 -88c82 0 153 30 211 88c59 58 88 129 88 211zM600 361c0 -42 -15 -79 -45 -109s-67 -45 -109 -45c-43 0 -80 15 -110 45s-45 67 -45 109c0 43 15 80 45 110s67 45 110 45c42 0 79 -15 109 -45s45 -67 45 -110z
" />
    <glyph glyph-name="lozenge" unicode="&#x25ca;" horiz-adv-x="654" 
d="M220 0l-200 355l208 352h207l199 -354l-208 -353h-206zM324 134l119 218l-113 222l-119 -218z" />
    <glyph glyph-name="uni25CB" unicode="&#x25cb;" horiz-adv-x="766" 
d="M382 -5c-154 0 -279 125 -279 278c0 154 125 278 279 278c153 0 278 -124 278 -278c0 -153 -125 -278 -278 -278zM382 165c59 0 108 48 108 108s-49 108 -108 108c-60 0 -109 -48 -109 -108s49 -108 109 -108z" />
    <glyph glyph-name="uni25CE" unicode="&#x25ce;" horiz-adv-x="891" 
d="M807 361c0 -100 -35 -185 -106 -255c-70 -71 -155 -106 -255 -106s-185 35 -256 106c-70 70 -106 155 -106 255s36 185 106 256c71 70 156 106 256 106s185 -36 255 -106c71 -71 106 -156 106 -256zM735 361c0 80 -28 148 -85 205c-56 56 -124 84 -204 84
s-148 -28 -205 -84c-56 -57 -84 -125 -84 -205c0 -79 28 -148 84 -204c57 -56 125 -85 205 -85s148 29 204 85c57 56 85 125 85 204zM663 361c0 -60 -22 -111 -64 -153s-93 -63 -153 -63s-111 21 -154 63c-42 42 -63 93 -63 153s21 111 63 154c43 42 94 63 154 63
s111 -21 153 -63c42 -43 64 -94 64 -154zM590 361c0 40 -14 74 -42 103c-28 28 -62 42 -102 42s-74 -14 -102 -42c-29 -29 -43 -63 -43 -103s14 -74 43 -102c28 -28 62 -42 102 -42s74 14 102 42s42 62 42 102zM518 361c0 -20 -7 -37 -21 -51s-31 -21 -51 -21s-37 7 -51 21
s-21 31 -21 51s7 37 21 51c14 15 31 22 51 22s37 -7 51 -22c14 -14 21 -31 21 -51z" />
    <glyph glyph-name="uni25CF" unicode="&#x25cf;" horiz-adv-x="766" 
d="M382 -5c-154 0 -279 125 -279 278c0 154 125 278 279 278c153 0 278 -124 278 -278c0 -153 -125 -278 -278 -278z" />
    <glyph glyph-name="uni25EF" unicode="&#x25ef;" horiz-adv-x="926" 
d="M463 -5c-199 0 -359 161 -359 359s160 359 359 359c198 0 358 -161 358 -359s-160 -359 -358 -359zM463 161c106 0 193 86 193 193c0 106 -87 193 -193 193c-107 0 -193 -87 -193 -193c0 -107 86 -193 193 -193z" />
    <glyph glyph-name="star" unicode="&#x2605;" horiz-adv-x="585" 
d="M119 98l29 188l-134 134l188 30l86 169l86 -169l188 -30l-134 -134l29 -188l-169 86z" />
    <glyph glyph-name="uni260F" unicode="&#x260f;" horiz-adv-x="658" 
d="M608 125c-87 -83 -108 -91 -126 -97c-11 -4 -29 -1 -42 4c-98 38 -192 150 -250 231c-34 49 -79 115 -107 182c-18 44 -31 88 -33 129c2 13 1 26 10 40c18 27 98 81 129 96l102 -178l-64 -47l186 -259l58 50zM542 129l-73 80l-50 -44c-6 -6 -18 -5 -29 11l-219 305
c-11 12 -7 25 2 29l51 43l-56 90c-25 -13 -71 -60 -66 -94c15 -91 75 -190 125 -258c52 -69 129 -168 211 -207c30 -14 83 25 104 45z" />
    <glyph glyph-name="uni2612" unicode="&#x2612;" horiz-adv-x="766" 
d="M110 0v547h546v-547h-546zM383 327l54 54h-107zM276 220l53 53l-53 53v-106zM331 167h106l-54 52zM490 223v102l-53 -52z" />
    <glyph glyph-name="uni261C" unicode="&#x261c;" horiz-adv-x="765" 
d="M715 97h-67c-28 0 -44 -42 -93 -42h-188c-54 0 -82 32 -82 72c0 6 1 12 3 18c-29 10 -47 38 -47 67c0 10 3 21 8 32c-10 11 -15 25 -15 42c0 11 3 19 6 27h-116c-49 0 -74 35 -74 71c0 37 27 75 82 75h263l-45 42c-20 19 -30 38 -30 59c0 30 20 62 59 100l237 -190h98
v-38h-112l-222 178c-14 -14 -20 -29 -20 -43c0 -20 12 -39 29 -53l108 -93h-365c-30 0 -44 -18 -44 -36c0 -17 12 -34 36 -34h334v-38h-178c-5 -9 -8 -13 -8 -22s6 -26 29 -26h157v-38h-175c-4 -5 -5 -11 -5 -22c0 -18 17 -26 47 -26h133v-38h-131c-3 -3 -4 -9 -4 -16
c0 -19 24 -32 44 -32h188c38 0 48 42 93 42h67v-38z" />
    <glyph glyph-name="uni261D" unicode="&#x261d;" horiz-adv-x="705" 
d="M655 361l-190 -237v-124h-38v138l178 222c-14 14 -29 20 -43 20c-20 0 -39 -12 -53 -29l-93 -108v365c0 30 -18 44 -36 44c-17 0 -34 -12 -34 -36v-334h-38v178c-9 5 -13 8 -22 8s-26 -6 -26 -29v-157h-38v175c-5 4 -11 5 -22 5c-18 0 -26 -17 -26 -47v-133h-38v130
c-3 4 -9 5 -16 5c-19 0 -32 -24 -32 -44v-188c0 -38 42 -48 42 -93v-93h-38v93c0 28 -42 44 -42 93v188c0 54 32 82 72 82c6 0 12 -1 18 -3c10 29 38 47 67 47c10 0 21 -3 32 -8c11 9 25 15 42 15c11 0 19 -3 27 -6v116c0 49 35 74 71 74c37 0 75 -27 75 -82v-263l42 45
c19 20 38 30 59 30c30 0 62 -20 100 -59z" />
    <glyph glyph-name="uni261E" unicode="&#x261e;" horiz-adv-x="765" 
d="M715 384c0 -36 -25 -71 -74 -71h-116c3 -8 6 -16 6 -27c0 -17 -6 -31 -15 -42c5 -11 8 -22 8 -32c0 -29 -18 -57 -47 -67c2 -6 3 -12 3 -18c0 -40 -28 -72 -82 -72h-188c-49 0 -65 42 -93 42h-67v38h67c45 0 55 -42 93 -42h188c20 0 44 13 44 32c0 7 -1 13 -5 16h-130v38
h133c30 0 47 8 47 26c0 11 -1 17 -5 22h-175v38h157c23 0 29 17 29 26s-3 13 -8 22h-178v38h334c24 0 36 17 36 34c0 18 -14 36 -44 36h-365l108 93c17 14 29 33 29 53c0 14 -6 29 -20 43l-222 -178h-112v38h98l237 190c39 -38 59 -70 59 -100c0 -21 -10 -40 -30 -59
l-45 -42h263c55 0 82 -38 82 -75z" />
    <glyph glyph-name="uni261F" unicode="&#x261f;" horiz-adv-x="705" 
d="M655 361l-190 -237v-124h-38v138l178 222c-14 14 -29 20 -43 20c-20 0 -39 -12 -53 -29l-93 -108v160c0 30 -8 44 -26 44c-17 0 -34 -12 -34 -36v-129h-38v337c0 23 -15 38 -31 38s-27 -15 -27 -38v-337h-38v161c-5 4 -11 5 -22 5c-18 0 -26 -3 -26 -33v-133h-38v130
c-3 4 -9 5 -16 5c-19 0 -32 -24 -32 -44v-188c0 -38 42 -48 42 -93v-93h-38v93c0 28 -42 44 -42 93v188c0 54 32 82 72 82c6 0 12 -1 18 -3c12 20 29 33 58 33c10 0 14 -2 24 -7v153c0 40 39 67 70 67c34 0 65 -30 65 -63v-156s14 6 32 6c37 0 65 -27 65 -82v-58l42 45
c19 20 46 28 67 28c30 0 54 -18 92 -57z" />
    <glyph glyph-name="smileface" unicode="&#x263a;" horiz-adv-x="803" 
d="M402 211c-48 0 -91 24 -120 67l52 44c23 -27 48 -40 72 -40c27 0 50 8 68 36l47 -40c-20 -40 -70 -67 -119 -67zM323 372c-29 0 -52 22 -52 51c0 28 23 50 52 50c28 0 54 -22 54 -50c0 -29 -26 -51 -54 -51zM402 -11c-201 0 -363 163 -363 363s162 363 363 363
c200 0 362 -163 362 -363s-162 -363 -362 -363zM402 129c121 0 223 101 223 223c0 121 -102 223 -223 223c-122 0 -223 -102 -223 -223c0 -122 101 -223 223 -223zM481 372c-30 0 -53 22 -53 51c0 28 23 50 53 50c28 0 53 -22 53 -50c0 -29 -25 -51 -53 -51z" />
    <glyph glyph-name="earth" unicode="&#x2641;" horiz-adv-x="786" 
d="M757 354c0 -202 -163 -364 -364 -364s-364 162 -364 364c0 201 163 364 364 364s364 -163 364 -364zM705 276l-1 -1c6 25 10 52 10 79c0 22 -2 43 -7 70l-5 -50l-49 -32l17 -20l-29 -14l-10 18l-5 -1l5 -27l22 -12l-9 -7l-13 4l3 -10l12 -1l10 -19l30 -11l2 -10l-36 6
l-49 51l19 -2l-27 65v16h-8l-3 -15l-27 -20v-19l-26 -6l-13 36l-9 3l1 21l-82 14l13 -21l19 5l14 -14l-14 -18l-40 -12l-34 67h-10l-1 -13l23 -48l18 -13l33 2l-55 -77l6 -6l2 -24l-15 -16l-1 -18l-38 -46l-36 2l-27 78l8 11v19l-22 27l9 6l-22 14l-50 2l-26 28l-1 49l63 55
l32 3l8 -9l-2 -14l25 -8l13 17l9 -15h41l6 6v25l-14 -25l-25 31l9 -31l-23 19l-3 19l-21 24l-4 -4l17 -20l-11 -19l-2 16l-22 17l-11 -10l-6 4l-42 -34l-14 35l26 -1l9 11l-14 9l22 13l10 1l17 16l-5 19l10 4l6 -14l32 4l1 12l41 13l-6 7l-28 -7l-7 14l16 12l-9 10l-21 -27
l8 -6l-2 -16l-20 -6l-5 12l-22 -3l2 19l36 49l45 9l60 -14l-11 -16l-23 2l15 -16l46 30h36l-20 28l23 26l33 14c-33 12 -75 19 -112 19c-95 0 -181 -39 -237 -107l30 8l14 -13l-29 -21l-16 25l1 1h-2l1 -1c-54 -57 -83 -130 -83 -213c0 -179 142 -321 321 -321
c152 0 277 102 311 242l-12 -24l-23 6l1 19l21 21zM566 628c-23 11 -41 20 -61 28l5 -11l-31 -11l-18 -23l36 -24l-6 11l22 25l46 -15zM438 218l-14 -52l-21 14l6 27l21 16zM250 497l-1 -13h-28l6 13l-15 22l12 11l6 -18zM216 492l-10 -11l-11 10l9 19zM295 420l-9 4l6 9z
" />
    <glyph glyph-name="uni2661" unicode="&#x2661;" horiz-adv-x="673" 
d="M623 375c0 -55 -48 -130 -98 -188l-189 -223l-154 175c-74 84 -132 180 -132 236c0 115 84 182 162 182c45 0 85 -20 125 -56c37 36 79 56 124 56c77 0 162 -66 162 -182zM564 375c0 85 -59 123 -103 123c-68 0 -98 -57 -125 -107c-11 21 -22 42 -37 61
c-21 25 -48 46 -87 46c-44 0 -103 -40 -103 -123c0 -40 52 -122 105 -183l123 -142l143 169c51 60 84 125 84 156z" />
    <glyph glyph-name="uni2665" unicode="&#x2665;" horiz-adv-x="673" 
d="M623 375c0 -55 -48 -130 -98 -188l-189 -223l-154 175c-74 84 -132 180 -132 236c0 115 84 182 162 182c45 0 85 -20 125 -56c37 36 79 56 124 56c77 0 162 -66 162 -182z" />
    <glyph glyph-name="uni2708" unicode="&#x2708;" horiz-adv-x="786" 
d="M757 354c0 -201 -163 -364 -364 -364s-364 163 -364 364s163 364 364 364s364 -163 364 -364zM714 354c0 179 -142 321 -321 321s-321 -142 -321 -321s142 -321 321 -321s321 142 321 321zM574 514c0 -13 -3 -20 -8 -26l-80 -88l86 -188l-44 -46l-116 163l-75 -77
l15 -104l-37 -12l-44 97l-98 41l5 38l110 -14l75 78l-165 109l43 46l190 -79l87 82c6 6 14 10 23 10c21 0 33 -14 33 -30z" />
    <glyph glyph-name="uni2709" unicode="&#x2709;" horiz-adv-x="756" 
d="M706 51h-656v484h656v-484zM665 116v351l-186 -168zM642 495h-524l263 -227zM637 89l-190 182l-32 -31c-13 -13 -21 -13 -38 -13c-18 0 -24 5 -37 17l-33 29l-190 -184h520zM278 300l-189 163v-351z" />
    <glyph glyph-name="uni270E" unicode="&#x270e;" horiz-adv-x="764" 
d="M714 498l-377 -380l-287 -108l111 278l383 380zM586 571l-45 41l-316 -320l45 -42zM657 496l-45 45l-316 -320l45 -46zM316 148l-121 118l-53 -123l43 -46z" />
    <glyph glyph-name="uni2740" unicode="&#x2740;" horiz-adv-x="434" 
d="M384 211l-137 -206v-5h-59v3l-138 208s16 4 37 4c16 0 35 -3 50 -11c33 -19 46 -65 51 -108v156c-56 16 -90 62 -90 116c0 43 1 161 1 204l71 -45l44 47l47 -48l74 46v-204c0 -54 -32 -99 -88 -115v-149c5 41 19 82 50 100c15 8 34 11 50 11c21 0 37 -4 37 -4zM282 368
v112l-20 -20l-47 48l-45 -49l-19 20v-111c0 -36 29 -65 65 -65s66 29 66 65z" />
    <glyph glyph-name="uni2780" unicode="&#x2780;" horiz-adv-x="840" 
d="M420 -5c-199 0 -360 161 -360 359c0 199 161 359 360 359c198 0 360 -160 360 -359c0 -198 -162 -359 -360 -359zM420 72c156 0 282 126 282 282s-126 282 -282 282s-282 -126 -282 -282s126 -282 282 -282zM372 182v271h-73v93l194 5v-369h-121z" />
    <glyph glyph-name="uni2781" unicode="&#x2781;" horiz-adv-x="840" 
d="M281 192v75c76 52 157 123 157 162c0 19 -18 33 -41 33c-29 0 -52 -9 -72 -22l-38 80c35 27 69 45 134 45c91 0 139 -59 139 -122c0 -60 -57 -116 -136 -156h139v-95h-282zM420 -5c-199 0 -360 161 -360 359c0 199 161 359 360 359c198 0 360 -160 360 -359
c0 -198 -162 -359 -360 -359zM420 72c156 0 282 126 282 282s-126 282 -282 282s-282 -126 -282 -282s126 -282 282 -282z" />
    <glyph glyph-name="uni2782" unicode="&#x2782;" horiz-adv-x="840" 
d="M416 171c-58 0 -89 8 -119 16l18 88c35 -8 59 -10 90 -10c40 0 50 19 50 38c0 29 -23 39 -82 39v51c60 6 65 20 65 44c0 8 -8 24 -30 24c-31 0 -51 -4 -77 -16l-25 80c33 17 75 25 113 25c87 0 139 -30 139 -103c0 -28 -15 -58 -42 -71c35 -14 60 -39 60 -86
c0 -89 -71 -119 -160 -119zM420 -5c-199 0 -360 161 -360 359c0 199 161 359 360 359c198 0 360 -160 360 -359c0 -198 -162 -359 -360 -359zM420 72c156 0 282 126 282 282s-126 282 -282 282s-282 -126 -282 -282s126 -282 282 -282z" />
    <glyph glyph-name="uni2783" unicode="&#x2783;" horiz-adv-x="840" 
d="M420 -5c-199 0 -360 161 -360 359c0 199 161 359 360 359c198 0 360 -160 360 -359c0 -198 -162 -359 -360 -359zM420 72c156 0 282 126 282 282s-126 282 -282 282s-282 -126 -282 -282s126 -282 282 -282zM407 180v79h-157v86l101 204h164v-206h50v-84h-50v-79h-108z
M329 343h78v143z" />
    <glyph glyph-name="uni2784" unicode="&#x2784;" horiz-adv-x="840" 
d="M402 161c-50 0 -87 11 -118 17l20 78c35 -10 62 -18 95 -18s44 22 44 44c0 31 -27 43 -54 43c-23 0 -48 1 -87 -3v215h240v-94h-134v-35h8c86 0 147 -23 147 -115c0 -85 -74 -132 -161 -132zM420 -5c-199 0 -360 161 -360 359c0 199 161 359 360 359
c198 0 360 -160 360 -359c0 -198 -162 -359 -360 -359zM420 72c156 0 282 126 282 282s-126 282 -282 282s-282 -126 -282 -282s126 -282 282 -282z" />
    <glyph glyph-name="uni2785" unicode="&#x2785;" horiz-adv-x="840" 
d="M420 -5c-199 0 -360 161 -360 359c0 199 161 359 360 359c198 0 360 -160 360 -359c0 -198 -162 -359 -360 -359zM420 72c156 0 282 126 282 282s-126 282 -282 282s-282 -126 -282 -282s126 -282 282 -282zM414 172c-104 0 -162 38 -162 169c0 141 82 210 186 210
c33 0 68 -4 112 -17l-29 -88c-25 7 -50 9 -76 9c-34 0 -64 -24 -74 -69c23 14 47 22 70 22c72 0 129 -20 129 -100c0 -103 -74 -136 -156 -136zM416 257c18 0 33 22 33 46c0 31 -16 38 -36 38c-16 0 -25 -3 -40 -7c0 -53 8 -77 43 -77z" />
    <glyph glyph-name="uni2786" unicode="&#x2786;" horiz-adv-x="840" 
d="M420 -5c-199 0 -360 161 -360 359c0 199 161 359 360 359c198 0 360 -160 360 -359c0 -198 -162 -359 -360 -359zM420 72c156 0 282 126 282 282s-126 282 -282 282s-282 -126 -282 -282s126 -282 282 -282zM411 151l-116 24l162 244h-160v108h271v-94z" />
    <glyph glyph-name="uni2787" unicode="&#x2787;" horiz-adv-x="840" 
d="M421 165c-92 0 -155 25 -155 105c0 46 31 75 61 91c-26 17 -47 46 -47 79c0 77 72 103 147 103c77 0 142 -36 142 -97c0 -36 -25 -63 -52 -79c31 -16 62 -50 62 -90c0 -68 -59 -112 -158 -112zM424 245c29 0 34 21 34 34c0 15 -25 30 -58 44c-11 -9 -15 -26 -15 -44
c0 -16 9 -34 39 -34zM420 -5c-199 0 -360 161 -360 359c0 199 161 359 360 359c198 0 360 -160 360 -359c0 -198 -162 -359 -360 -359zM420 72c156 0 282 126 282 282s-126 282 -282 282s-282 -126 -282 -282s126 -282 282 -282zM436 402c11 14 15 17 15 36
c0 11 -8 25 -26 25c-24 0 -31 -13 -31 -26c0 -18 23 -27 42 -35z" />
    <glyph glyph-name="uni2788" unicode="&#x2788;" horiz-adv-x="840" 
d="M420 -5c-199 0 -360 161 -360 359c0 199 161 359 360 359c198 0 360 -160 360 -359c0 -198 -162 -359 -360 -359zM420 72c156 0 282 126 282 282s-126 282 -282 282s-282 -126 -282 -282s126 -282 282 -282zM402 166c-33 0 -68 4 -112 17l29 88c25 -7 50 -9 76 -9
c34 0 64 24 74 69c-23 -14 -47 -22 -70 -22c-72 0 -129 20 -129 100c0 103 74 136 156 136c104 0 162 -38 162 -169c0 -141 -82 -210 -186 -210zM427 376c16 0 25 3 40 7c-1 51 -10 77 -43 77c-18 0 -33 -15 -33 -46s16 -38 36 -38z" />
    <glyph glyph-name="uni278A" unicode="&#x278a;" horiz-adv-x="840" 
d="M420 -5c-199 0 -360 161 -360 359c0 199 161 359 360 359c198 0 360 -160 360 -359c0 -198 -162 -359 -360 -359zM372 182h121v369l-194 -5v-93h73v-271z" />
    <glyph glyph-name="uni278B" unicode="&#x278b;" horiz-adv-x="840" 
d="M281 192h282v95h-139c79 40 136 96 136 156c0 63 -48 122 -139 122c-65 0 -99 -18 -134 -45l38 -80c20 13 43 22 72 22c23 0 41 -14 41 -33c0 -39 -81 -110 -157 -162v-75zM420 -5c-199 0 -360 161 -360 359c0 199 161 359 360 359c198 0 360 -160 360 -359
c0 -198 -162 -359 -360 -359z" />
    <glyph glyph-name="uni278C" unicode="&#x278c;" horiz-adv-x="840" 
d="M416 171c89 0 160 30 160 119c0 47 -25 72 -60 86c27 13 42 43 42 71c0 73 -52 103 -139 103c-38 0 -80 -8 -113 -25l25 -80c26 12 46 16 77 16c22 0 30 -16 30 -24c0 -24 -5 -38 -65 -44v-51c59 0 82 -10 82 -39c0 -19 -10 -38 -50 -38c-31 0 -55 2 -90 10l-18 -88
c30 -8 61 -16 119 -16zM420 -5c-199 0 -360 161 -360 359c0 199 161 359 360 359c198 0 360 -160 360 -359c0 -198 -162 -359 -360 -359z" />
    <glyph glyph-name="uni278D" unicode="&#x278d;" horiz-adv-x="840" 
d="M420 -5c-199 0 -360 161 -360 359c0 199 161 359 360 359c198 0 360 -160 360 -359c0 -198 -162 -359 -360 -359zM407 180h108v79h50v84h-50v206h-164l-101 -204v-86h157v-79zM329 343l78 143v-143h-78z" />
    <glyph glyph-name="uni278E" unicode="&#x278e;" horiz-adv-x="840" 
d="M402 161c87 0 161 47 161 132c0 92 -61 115 -147 115h-8v35h134v94h-240v-215c39 4 64 3 87 3c27 0 54 -12 54 -43c0 -22 -11 -44 -44 -44s-60 8 -95 18l-20 -78c31 -6 68 -17 118 -17zM420 -5c-199 0 -360 161 -360 359c0 199 161 359 360 359c198 0 360 -160 360 -359
c0 -198 -162 -359 -360 -359z" />
    <glyph glyph-name="uni278F" unicode="&#x278f;" horiz-adv-x="840" 
d="M414 172c82 0 156 33 156 136c0 80 -57 100 -129 100c-23 0 -47 -8 -70 -22c10 45 40 69 74 69c26 0 51 -2 76 -9l29 88c-44 13 -79 17 -112 17c-104 0 -186 -69 -186 -210c0 -131 58 -169 162 -169zM419 257c-28 0 -44 14 -46 61v16c15 4 24 7 40 7c20 0 36 -7 36 -38
c0 -24 -12 -46 -30 -46zM420 -5c-199 0 -360 161 -360 359c0 199 161 359 360 359c198 0 360 -160 360 -359c0 -198 -162 -359 -360 -359z" />
    <glyph glyph-name="uni2790" unicode="&#x2790;" horiz-adv-x="840" 
d="M420 -5c-199 0 -360 161 -360 359c0 199 161 359 360 359c198 0 360 -160 360 -359c0 -198 -162 -359 -360 -359zM411 151l157 282v94h-271v-108h160l-162 -244z" />
    <glyph glyph-name="uni2791" unicode="&#x2791;" horiz-adv-x="840" 
d="M421 165c99 0 158 44 158 112c0 40 -31 74 -62 90c27 16 52 43 52 79c0 61 -65 97 -142 97c-75 0 -147 -26 -147 -103c0 -33 21 -62 47 -79c-30 -16 -61 -45 -61 -91c0 -80 63 -105 155 -105zM424 245c-30 0 -39 18 -39 34c0 18 4 35 15 44c33 -14 58 -29 58 -44
c0 -13 -5 -34 -34 -34zM420 -5c-199 0 -360 161 -360 359c0 199 161 359 360 359c198 0 360 -160 360 -359c0 -198 -162 -359 -360 -359zM436 402c-19 8 -42 17 -42 35c0 13 7 26 31 26c18 0 26 -14 26 -25c0 -19 -4 -22 -15 -36z" />
    <glyph glyph-name="uni2792" unicode="&#x2792;" horiz-adv-x="840" 
d="M402 166c104 0 186 69 186 210c0 131 -58 169 -162 169c-82 0 -156 -33 -156 -136c0 -80 57 -100 129 -100c23 0 47 8 70 22c-10 -45 -40 -69 -74 -69c-26 0 -51 2 -76 9l-29 -88c44 -13 79 -17 112 -17zM426 460c33 0 44 -28 41 -77c-15 -4 -24 -7 -40 -7
c-20 0 -36 7 -36 38c0 28 17 46 35 46zM780 354c0 -198 -162 -359 -360 -359c-199 0 -360 161 -360 359c0 199 161 359 360 359c198 0 360 -160 360 -359z" />
    <glyph glyph-name="apple" unicode="&#xf8ff;" horiz-adv-x="1241" 
d="M1141 357h-10v-10h-11v10h-10v11h10v10h11v-10h10v-11zM1081 377h-11v11h11v-11zM1081 338h-11v10h11v-10zM1041 377h-11v11h11v-11zM1071 357h-10v-10h-11v10h-10v11h10v10h11v-10h10v-11zM1041 338h-11v10h11v-10zM1001 387h-10v-10h-11v11h10v10h11v-11zM1001 328h-11
v10h-10v10h11v-10h10v-10zM951 377h-11v10h-10v11h11v-10h10v-11zM981 357h-10v-10h-11v10h-10v11h10v10h11v-10h10v-11zM951 338h-10v-10h-11v10h10v10h11v-10zM911 338h-31v9h-10v31h10v10h21v-10h10v-21h-30v-9h30v-10zM900 368v9h-19v-9h19zM851 338h-31v9h-10v41h11
v-40h19v40h11v-50zM791 318h-11v20h-20v9h-10v31h10v10h31v-70zM780 348v29h-19v-29h19zM731 338h-31v9h-10v31h10v10h21v-10h10v-21h-30v-9h30v-10zM720 368v9h-19v-9h19zM671 338h-11v39h-19v-39h-11v70h11v-20h20v-10h10v-40zM611 338h-21v9h-10v30h-10v11h10v10h11v-10
h20v-11h-20v-29h20v-10zM551 347h-10v-9h-21v9h-10v31h10v10h21v-10h10v-31zM540 348v29h-19v-29h19zM491 347h-10v-9h-20v-20h-11v70h31v-10h10v-31zM480 348v29h-19v-29h19zM431 347h-10v-9h-10v-10h-10v-10h-11v11h10v18h-10v41h11v-40h19v40h11v-41zM371 338h-21v9h-10
v30h-10v11h10v10h11v-10h20v-11h-20v-29h20v-10zM311 387h-10v-10h-11v11h10v10h11v-11zM311 328h-11v10h-10v10h11v-10h10v-10zM261 377h-11v10h-10v11h11v-10h10v-11zM291 357h-10v-10h-11v10h-10v11h10v10h11v-10h10v-11zM261 338h-10v-10h-11v10h10v10h11v-10zM211 377
h-11v11h11v-11zM211 338h-11v10h11v-10zM171 377h-11v11h11v-11zM201 357h-10v-10h-11v10h-10v11h10v10h11v-10h10v-11zM171 338h-11v10h11v-10zM131 357h-10v-10h-11v10h-10v11h10v10h11v-10h10v-11z" />
    <glyph glyph-name="comma.inferior" unicode="&#xfe50;" horiz-adv-x="216" 
d="M36 -58c22 40 23 83 23 97v99h121v-72c0 -45 -18 -91 -45 -124h-99z" />
    <glyph glyph-name="period.inferior" unicode="&#xfe52;" horiz-adv-x="242" 
d="M60 0v107h122v-107h-122z" />
    <glyph glyph-name="dollar.inferior" unicode="&#xfe69;" horiz-adv-x="394" 
d="M158 -44l2 55c-51 0 -88 6 -121 20l27 72c40 -11 72 -15 113 -15c45 0 58 11 58 24c0 38 -188 28 -188 146c0 53 57 80 111 89l-2 71h71l-1 -68c35 -1 65 -6 104 -20l-22 -68c-34 8 -69 13 -106 13s-41 -10 -41 -17c0 -36 191 -35 191 -143c0 -62 -64 -90 -126 -101
l1 -58h-71z" />
    <glyph glyph-name="uni0045_uni02DA" horiz-adv-x="613" 
d="M78 0v707h464v-133h-294v-157h272v-124h-272v-160h317v-133h-487zM328 732c-70 0 -150 27 -150 126c0 93 75 134 147 134c58 0 149 -28 149 -132c0 -90 -70 -128 -146 -128zM326 803c39 0 58 21 61 56c0 34 -26 56 -61 56c-43 0 -61 -19 -61 -54c0 -36 22 -58 61 -58z
" />
    <glyph glyph-name="uni0046_uni00AF" horiz-adv-x="610" 
d="M78 0v707h494v-133h-324v-175h302v-123h-302v-276h-170zM162 765v129h328v-129h-328z" />
    <glyph glyph-name="Jacute" horiz-adv-x="326" 
d="M-6 -198l-61 122c119 66 145 109 145 227v556h171v-554c0 -142 -21 -275 -255 -351zM75 744l-23 113l271 67l27 -131z" />
    <glyph glyph-name="uni004E_uni00AF" horiz-adv-x="796" 
d="M78 0v707h197l278 -485l-5 79v406h170v-707h-203l-271 473l4 -94v-379h-170zM230 765v129h328v-129h-328z" />
    <glyph glyph-name="uni0050_uni00AF" horiz-adv-x="644" 
d="M78 0v707h275c159 0 273 -93 273 -251c0 -139 -114 -256 -325 -256h-52v-200h-171zM249 574v-243h58c106 0 144 55 144 121c0 71 -29 122 -120 122h-82zM154 765v129h328v-129h-328z" />
    <glyph glyph-name="uni0052_uni0060" horiz-adv-x="752" 
d="M706 -13c-138 7 -213 79 -287 165l-80 93c-12 -1 -25 -1 -38 -1h-52v-244h-171v707h275c159 0 273 -73 273 -231c0 -79 -38 -148 -114 -191l72 -78c39 -42 83 -70 160 -90zM249 363h58c101 0 144 42 144 109c0 71 -29 101 -120 101h-82v-210zM381 744l-275 49l27 131
l271 -67z" />
    <glyph glyph-name="uni0053_uni02D8" horiz-adv-x="597" 
d="M265 -11c-116 0 -184 21 -237 50l48 122c63 -22 109 -32 187 -32c85 0 124 26 124 69c0 115 -336 84 -336 324c0 136 129 195 254 195c112 0 166 -24 221 -48l-49 -118c-52 15 -95 29 -167 29c-71 0 -93 -27 -93 -57c0 -94 342 -94 342 -319c0 -155 -148 -215 -294 -215z
M283 753c-109 0 -171 63 -201 111l86 74c36 -34 76 -62 119 -62c42 0 80 27 114 62l81 -73c-32 -47 -95 -112 -199 -112z" />
    <glyph glyph-name="uni0056_uni00AF" horiz-adv-x="741" 
d="M244 0l-241 707h179l175 -580l208 580h173l-275 -707h-219zM207 765v129h328v-129h-328z" />
    <glyph glyph-name="uni0058_uni00AF" horiz-adv-x="695" 
d="M8 0l253 362l-225 345h195l128 -217l138 217h190l-238 -342l238 -365h-196l-141 238l-152 -238h-190zM179 765v129h328v-129h-328z" />
    <glyph glyph-name="uni00CD_uni004A_uni0301" horiz-adv-x="641" 
d="M78 0v707h170v-707h-170zM309 -198l-61 122c119 66 145 109 145 227v556h171v-554c0 -142 -21 -275 -255 -351zM76 744l-23 113l271 67l27 -131zM388 744l-23 113l271 67l27 -131z" />
    <glyph glyph-name="f.alt" horiz-adv-x="386" 
d="M86 0v431h-80v115h80v31c0 169 103 204 217 204c40 0 65 -5 98 -15l-26 -131c-20 3 -37 4 -64 4c-41 0 -58 -29 -58 -72v-21h117v-115h-117v-431h-167z" />
    <glyph glyph-name="g.alt" horiz-adv-x="593" 
d="M601 531v-117h-83c2 -11 6 -47 6 -59c0 -112 -110 -175 -232 -175c-32 0 -65 3 -97 8l-1 -50h139c150 0 228 -46 228 -161c0 -112 -89 -203 -274 -203c-179 0 -251 40 -251 140c0 39 35 80 73 102c-29 17 -39 51 -39 75c1 45 37 102 55 120c-37 23 -68 79 -68 140
c0 108 91 194 231 194c70 0 118 -17 138 -27zM316 -103c68 0 122 22 122 58c0 38 -37 50 -81 50h-167c-9 -21 -11 -32 -11 -46c0 -36 45 -62 137 -62zM291 278c52 0 85 36 85 79c0 44 -30 81 -83 81c-60 0 -89 -33 -89 -85c0 -44 29 -75 87 -75z" />
    <glyph glyph-name="uni0065_uni02DA" horiz-adv-x="596" 
d="M334 -12c-180 0 -296 59 -296 277c0 223 117 294 282 294c172 0 238 -112 238 -277v-60h-354c-1 -86 67 -102 154 -102c37 0 99 12 156 22l25 -127c-61 -18 -139 -27 -205 -27zM209 329h178c2 66 -27 112 -81 112c-57 0 -94 -40 -97 -112zM300 586
c-70 0 -150 27 -150 126c0 93 75 134 147 134c58 0 149 -28 149 -132c0 -90 -70 -128 -146 -128zM298 657c39 0 58 21 61 56c0 34 -26 56 -61 56c-43 0 -61 -19 -61 -54c0 -36 22 -58 61 -58z" />
    <glyph glyph-name="uni0066_uni00AF" horiz-adv-x="386" 
d="M86 0v431h-80v115h80v31c0 169 103 204 217 204c40 0 65 -5 98 -15l-26 -131c-20 3 -37 4 -64 4c-41 0 -58 -29 -58 -72v-21h117v-115h-117v-431h-167zM15 -194v129h328v-129h-328z" />
    <glyph glyph-name="jacute" horiz-adv-x="303" 
d="M14 -220c-39 0 -95 11 -128 23l31 129s61 -11 92 -11c43 0 60 14 60 82v543h166v-544c0 -190 -105 -222 -221 -222zM73 602l-47 100l238 121l54 -117z" />
    <glyph glyph-name="dotlessj" horiz-adv-x="303" 
d="M14 -220c-39 0 -95 11 -128 23l31 129s61 -11 92 -11c43 0 60 14 60 82v543h166v-544c0 -190 -105 -222 -221 -222z" />
    <glyph glyph-name="uni006E_uni00AF" horiz-adv-x="664" 
d="M68 0v546h167v-55c33 25 105 69 178 69c171 0 183 -94 183 -218v-342h-166v328c0 75 -17 88 -73 88c-50 0 -95 -16 -122 -29v-387h-167zM165 647v129h328v-129h-328z" />
    <glyph glyph-name="uni0070_uni00AF" horiz-adv-x="645" 
d="M68 -220v766h166v-39c22 19 82 53 132 53c150 0 241 -69 241 -262c0 -228 -147 -308 -306 -308c-25 0 -47 3 -67 4v-214h-166zM305 117c85 0 134 74 134 176c0 98 -39 127 -123 127c-28 0 -61 -8 -82 -15v-282c16 -2 44 -6 71 -6zM142 647v129h328v-129h-328z" />
    <glyph glyph-name="uni0072_uni0060" horiz-adv-x="441" 
d="M48 0v546h167v-73c27 35 78 84 141 84c30 0 52 -2 75 -9l-22 -137c-32 6 -43 6 -73 6c-49 0 -99 -23 -121 -47v-370h-167zM281 602l-244 104l54 117l238 -121z" />
    <glyph glyph-name="uni0073_uni02D8" horiz-adv-x="512" 
d="M234 -12c-79 0 -143 7 -199 23l18 126c71 -10 128 -15 165 -15c84 0 94 22 94 38c0 59 -275 31 -275 227c0 118 111 173 230 173c67 0 127 -11 184 -31l-28 -121c-53 12 -95 20 -151 20c-57 0 -68 -21 -68 -33c0 -62 273 -45 273 -228c0 -144 -151 -179 -243 -179z
M256 614c-109 0 -171 63 -201 111l86 74c36 -34 76 -62 119 -62c42 0 80 27 114 62l81 -73c-32 -47 -95 -112 -199 -112z" />
    <glyph glyph-name="germandbls.alt" horiz-adv-x="690" 
d="M78 0v548c0 174 103 232 252 232c70 0 249 -29 249 -184c0 -102 -127 -144 -127 -202c0 -72 210 -59 210 -229c0 -137 -129 -178 -217 -178c-61 0 -143 6 -183 20l20 128c66 -10 92 -14 127 -14s89 4 89 34c0 59 -213 48 -213 239c0 104 117 142 117 200
c0 35 -51 51 -74 51c-62 0 -84 -36 -84 -98v-547h-166z" />
    <glyph glyph-name="uni021B" horiz-adv-x="466" 
d="M316 -11c-105 0 -228 -5 -228 181v253h-80v123h80v112h166v-112h169v-123h-169v-252c0 -40 15 -43 60 -43c37 0 118 11 118 11l16 -131c-39 -11 -92 -19 -132 -19zM359 -58l-45 -220h-116l21 220h140z" />
    <glyph glyph-name="uni0076_uni00AF" horiz-adv-x="623" 
d="M205 0l-197 546h179l92 -296l28 -109l31 109l102 296h175l-212 -546h-198zM143 647v129h328v-129h-328z" />
    <glyph glyph-name="uni0078_uni00AF" horiz-adv-x="610" 
d="M8 0l202 279l-187 267h192l89 -166l92 166h189l-187 -267l204 -279h-199l-99 178l-100 -178h-196zM138 647v129h328v-129h-328z" />
    <glyph glyph-name="iacute_jacute" horiz-adv-x="600" 
d="M68 0v546h167v-546h-167zM308 -220c-39 0 -95 11 -128 23l31 129s61 -11 92 -11c43 0 60 14 60 82v543h166v-544c0 -190 -105 -222 -221 -222zM67 602l-47 100l238 121l54 -117zM372 602l-47 100l238 121l54 -117z" />
    <glyph glyph-name="gbreve.alt" horiz-adv-x="593" 
d="M601 531v-117h-83c2 -11 6 -47 6 -59c0 -112 -110 -175 -232 -175c-32 0 -65 3 -97 8l-1 -50h139c150 0 228 -46 228 -161c0 -112 -89 -203 -274 -203c-179 0 -251 40 -251 140c0 39 35 80 73 102c-29 17 -39 51 -39 75c1 45 37 102 55 120c-37 23 -68 79 -68 140
c0 108 91 194 231 194c70 0 118 -17 138 -27zM316 -103c68 0 122 22 122 58c0 38 -37 50 -81 50h-167c-9 -21 -11 -32 -11 -46c0 -36 45 -62 137 -62zM291 278c52 0 85 36 85 79c0 44 -30 81 -83 81c-60 0 -89 -33 -89 -85c0 -44 29 -75 87 -75zM288 614
c-109 0 -171 63 -201 111l86 74c36 -34 76 -62 119 -62c42 0 80 27 114 62l81 -73c-32 -47 -95 -112 -199 -112z" />
    <glyph glyph-name="gcircumflex.alt" horiz-adv-x="593" 
d="M601 531v-117h-83c2 -11 6 -47 6 -59c0 -112 -110 -175 -232 -175c-32 0 -65 3 -97 8l-1 -50h139c150 0 228 -46 228 -161c0 -112 -89 -203 -274 -203c-179 0 -251 40 -251 140c0 39 35 80 73 102c-29 17 -39 51 -39 75c1 45 37 102 55 120c-37 23 -68 79 -68 140
c0 108 91 194 231 194c70 0 118 -17 138 -27zM316 -103c68 0 122 22 122 58c0 38 -37 50 -81 50h-167c-9 -21 -11 -32 -11 -46c0 -36 45 -62 137 -62zM291 278c52 0 85 36 85 79c0 44 -30 81 -83 81c-60 0 -89 -33 -89 -85c0 -44 29 -75 87 -75zM420 606l-129 90l-128 -89
l-73 92l202 130l196 -131z" />
    <glyph glyph-name="gcommaaccent.alt" horiz-adv-x="593" 
d="M601 531v-117h-83c2 -11 6 -47 6 -59c0 -112 -110 -175 -232 -175c-32 0 -65 3 -97 8l-1 -50h139c150 0 228 -46 228 -161c0 -112 -89 -203 -274 -203c-179 0 -251 40 -251 140c0 39 35 80 73 102c-29 17 -39 51 -39 75c1 45 37 102 55 120c-37 23 -68 79 -68 140
c0 108 91 194 231 194c70 0 118 -17 138 -27zM316 -103c68 0 122 22 122 58c0 38 -37 50 -81 50h-167c-9 -21 -11 -32 -11 -46c0 -36 45 -62 137 -62zM291 278c52 0 85 36 85 79c0 44 -30 81 -83 81c-60 0 -89 -33 -89 -85c0 -44 29 -75 87 -75zM203 607l45 220h116
l-21 -220h-140z" />
    <glyph glyph-name="gdotaccent.alt" horiz-adv-x="593" 
d="M601 531v-117h-83c2 -11 6 -47 6 -59c0 -112 -110 -175 -232 -175c-32 0 -65 3 -97 8l-1 -50h139c150 0 228 -46 228 -161c0 -112 -89 -203 -274 -203c-179 0 -251 40 -251 140c0 39 35 80 73 102c-29 17 -39 51 -39 75c1 45 37 102 55 120c-37 23 -68 79 -68 140
c0 108 91 194 231 194c70 0 118 -17 138 -27zM316 -103c68 0 122 22 122 58c0 38 -37 50 -81 50h-167c-9 -21 -11 -32 -11 -46c0 -36 45 -62 137 -62zM291 278c52 0 85 36 85 79c0 44 -30 81 -83 81c-60 0 -89 -33 -89 -85c0 -44 29 -75 87 -75zM288 604l-111 112l111 111
l112 -111z" />
    <glyph glyph-name="questiondown.cap" horiz-adv-x="415" 
d="M346 -3c-162 11 -299 52 -299 211c0 126 159 181 159 237c0 13 1 30 -9 55l134 22c17 -37 20 -62 20 -89c0 -124 -130 -177 -130 -220c0 -41 13 -68 155 -79zM167 560v147h167v-147h-167z" />
    <glyph glyph-name="question.smcp" horiz-adv-x="415" 
d="M380 446c0 -98 -136 -140 -136 -193c0 -23 2 -30 12 -53l-134 -21c-18 38 -21 60 -21 83c0 103 111 153 111 180c0 24 -2 46 -135 56l30 130c146 -9 273 -43 273 -182zM267 0h-167v147h167v-147z" />
    <glyph glyph-name="questiondown.smcp" horiz-adv-x="415" 
d="M51 101c0 98 136 140 136 193c0 23 -2 30 -12 53l134 21c18 -38 21 -60 21 -83c0 -103 -111 -153 -111 -180c0 -24 2 -46 135 -56l-30 -130c-146 9 -273 43 -273 182zM164 547h167v-147h-167v147z" />
    <glyph glyph-name="exclamdown.cap" horiz-adv-x="324" 
d="M78 0v294l10 193h147l10 -193v-294h-167zM78 560v147h168v-147h-168z" />
    <glyph glyph-name="exclam.smcp" horiz-adv-x="324" 
d="M246 413l-10 -193h-147l-11 193v194h168v-194zM246 0h-168v147h168v-147z" />
    <glyph glyph-name="exclamdown.smcp" horiz-adv-x="324" 
d="M76 133l10 193h147l11 -193v-194h-168v194zM76 546h168v-147h-168v147z" />
    <glyph glyph-name="hyphen.cap" horiz-adv-x="374" 
d="M37 290v133h298v-133h-298z" />
    <glyph glyph-name="endash.cap" horiz-adv-x="600" 
d="M50 300v113h500v-113h-500z" />
    <glyph glyph-name="emdash.cap" horiz-adv-x="1000" 
d="M60 300v113h879v-113h-879z" />
    <glyph glyph-name="slash.smcp" horiz-adv-x="417" 
d="M40 -62l190 678h147l-190 -678h-147z" />
    <glyph glyph-name="backslash.smcp" horiz-adv-x="416" 
d="M229 -62l-189 678h147l189 -678h-147z" />
    <glyph glyph-name="parenleft.cap" horiz-adv-x="402" 
d="M296 -155c0 0 -256 170 -256 509c0 343 258 486 258 486l104 -108s-195 -126 -195 -377c0 -255 193 -403 193 -403z" />
    <glyph glyph-name="parenright.cap" horiz-adv-x="402" 
d="M106 -155l-104 107s193 148 193 403c0 251 -195 377 -195 377l104 108s258 -143 258 -486c0 -339 -256 -509 -256 -509z" />
    <glyph glyph-name="bracketleft.cap" horiz-adv-x="363" 
d="M63 -138v982h267v-138h-100v-706h100v-138h-267z" />
    <glyph glyph-name="bracketright.cap" horiz-adv-x="363" 
d="M63 -138v138h100v706h-100v138h267v-982h-267z" />
    <glyph glyph-name="braceleft.cap" horiz-adv-x="377" 
d="M306 -143c-136 0 -225 43 -225 162c0 9 1 19 2 29l20 189c2 20 -11 52 -76 52v127c65 0 78 33 76 52l-20 189c-1 10 -2 20 -2 29c0 120 89 162 225 162h59v-139h-50c-48 0 -66 -35 -62 -66l21 -173c8 -64 -18 -95 -59 -116v-2c42 -21 67 -53 59 -117l-21 -172
c-4 -31 10 -66 62 -66h50v-140h-59z" />
    <glyph glyph-name="braceright.cap" horiz-adv-x="377" 
d="M32 -143v140h50c52 0 66 35 62 66l-21 172c-8 64 17 96 59 117v2c-41 21 -67 52 -59 116l21 173c4 31 -14 66 -62 66h-50v139h59c136 0 225 -42 225 -162c0 -9 -1 -19 -2 -29l-20 -189c-2 -19 11 -52 76 -52v-127c-65 0 -78 -32 -76 -52l20 -189c1 -10 2 -20 2 -29
c0 -119 -89 -162 -225 -162h-59z" />
    <glyph glyph-name="section.pnum_lnum" horiz-adv-x="596" 
d="M126 -216c-44 0 -99 16 -126 40l41 118s45 -32 81 -32c30 0 34 50 34 72c0 36 -7 74 -13 109l-68 289c-6 32 -10 64 -10 97c0 168 175 284 358 284c47 0 122 -13 173 -62c0 0 -58 -88 -70 -100c-24 23 -60 39 -96 39c-34 0 -44 -23 -44 -51s7 -60 11 -81l67 -267
c14 -70 21 -136 21 -178c0 -161 -172 -277 -359 -277zM283 -82c19 21 63 63 63 134c0 33 -5 65 -11 97l-72 310c-4 24 -7 53 -7 83c0 24 3 50 7 78c-44 -34 -56 -97 -56 -132c-1 -30 4 -69 8 -88l73 -314c3 -20 7 -45 7 -73s-4 -52 -12 -95z" />
    <glyph glyph-name="numbersign.pnum_lnum" horiz-adv-x="660" 
d="M640 142h-110l-9 -142h-159l9 142h-107l-9 -142h-159l9 142h-85v132h94l10 139h-104v133h115l10 161h159l-11 -161h107l10 161h159l-11 -161h82v-133h-91l-11 -139h102v-132zM390 413h-107l-11 -139h108z" />
    <glyph glyph-name="ordfeminine.smcp" horiz-adv-x="434" 
d="M41 393l129 317h106l112 -317h-94l-24 73h-109l-28 -73h-92zM41 283v78h350v-78h-350zM187 532h61l-28 93z" />
    <glyph glyph-name="quotedblleft.smcp" horiz-adv-x="495" 
d="M49 503c0 63 25 126 63 172h126c-31 -57 -32 -115 -32 -134v-136h-157v98zM269 503c0 63 25 126 63 172h126c-31 -57 -32 -115 -32 -134v-136h-157v98z" />
    <glyph glyph-name="quotedblright.smcp" horiz-adv-x="495" 
d="M457 577c0 -63 -25 -126 -63 -172h-126c31 57 32 115 32 134v136h157v-98zM237 577c0 -63 -25 -126 -63 -172h-126c31 57 32 115 32 134v136h157v-98z" />
    <glyph glyph-name="quoteleft.smcp" horiz-adv-x="275" 
d="M49 503c0 63 25 126 63 172h126c-31 -57 -32 -115 -32 -134v-136h-157v98z" />
    <glyph glyph-name="quoteright.smcp" horiz-adv-x="275" 
d="M237 577c0 -63 -25 -126 -63 -172h-126c31 57 32 115 32 134v136h157v-98z" />
    <glyph glyph-name="guilsinglright.cap" horiz-adv-x="273" 
d="M135 125l-121 50l89 179l-91 185l123 42l127 -227z" />
    <glyph glyph-name="guilsinglleft.cap" horiz-adv-x="273" 
d="M140 125l-128 229l127 227l123 -42l-91 -185l90 -179z" />
    <glyph glyph-name="guillemotleft.cap" horiz-adv-x="520" 
d="M140 124l-128 229l127 227l123 -42l-91 -185l90 -179zM380 124l-128 229l127 227l123 -42l-91 -185l90 -179z" />
    <glyph glyph-name="guillemotright.cap" horiz-adv-x="520" 
d="M135 125l-121 50l89 179l-91 185l123 42l127 -227zM375 125l-121 50l89 179l-91 185l123 42l127 -227z" />
    <glyph glyph-name="asterisk.alt" horiz-adv-x="315" 
d="M287 698l-72 -59l23 -94l-80 53l-81 -53l23 94l-72 59l95 8l35 86l35 -86z" />
    <glyph glyph-name="fi.alt" horiz-adv-x="679" 
d="M86 0v431h-80v115h80v26c0 158 108 210 228 210c44 0 77 -5 119 -6c40 0 110 3 152 8l26 -126c-60 -20 -133 -26 -173 -26s-68 5 -126 5c-39 0 -59 -11 -59 -65v-26h351v-546h-167v431h-185v-431h-166z" />
    <glyph glyph-name="fl.alt" horiz-adv-x="679" 
d="M86 0v431h-80v115h80v26c0 158 108 210 228 210c44 0 77 -5 119 -6c57 -1 114 4 171 11v-787h-167v632c-40 0 -67 5 -125 5c-39 0 -59 -11 -59 -65v-26h116v-115h-117v-431h-166z" />
    <glyph glyph-name="f_h.alt" horiz-adv-x="1034" 
d="M86 0v434h-80v112h80v29c0 158 108 210 228 210c44 0 77 -5 119 -6c57 -1 114 4 171 11v-299c33 25 106 71 179 71c171 0 183 -95 183 -219v-343h-166v329c0 75 -17 88 -73 88c-50 0 -96 -17 -123 -30v-387h-167v635c-40 0 -67 5 -125 5c-39 0 -59 -11 -59 -65v-29h116
v-112h-117v-434h-166z" />
    <glyph glyph-name="f_b.alt" horiz-adv-x="994" 
d="M671 -11c-113 0 -172 16 -233 36v607c-40 0 -68 5 -126 5c-39 0 -59 -11 -59 -65v-26h116v-115h-117v-431h-166v431h-80v115h80v26c0 158 108 210 228 210c44 0 77 -5 119 -6c57 -1 114 4 171 11v-244c39 12 83 19 111 19c164 0 262 -68 262 -260
c0 -236 -148 -313 -306 -313zM685 438c-31 0 -59 -6 -81 -13v-295c19 -4 43 -11 70 -11c85 0 133 80 133 182c0 103 -33 137 -122 137z" />
    <glyph glyph-name="f_j.alt" horiz-adv-x="679" 
d="M377 -220c-40 0 -67 5 -108 18l31 133s47 -10 79 -10c42 0 59 14 59 80v113v320h-186v-434h-166v434h-80v112h80v27c0 158 108 210 228 210c44 0 77 -5 119 -6c40 0 110 3 152 8l26 -126c-60 -20 -133 -26 -173 -26s-68 5 -126 5c-39 0 -59 -11 -59 -65v-27h352v-544
c0 -190 -104 -222 -228 -222z" />
    <glyph glyph-name="f_k.alt" horiz-adv-x="966" 
d="M934 -12c-87 4 -162 14 -232 107l-98 129v-224h-167v635c-40 0 -67 5 -125 5c-39 0 -59 -11 -59 -65v-29h116v-112h-117v-434h-166v434h-80v112h80v29c0 158 108 210 228 210c44 0 77 -5 119 -6c57 -1 115 4 171 11v-449l152 204h179l-199 -251l78 -89
c38 -43 70 -73 139 -91z" />
    <glyph glyph-name="f_f.alt" horiz-adv-x="738" 
d="M86 0v432h-80v114h81v28c0 169 106 208 220 208c86 0 163 -17 206 -31c40 25 92 31 146 31c40 0 90 -8 129 -21l-32 -129s-45 8 -92 8c-41 0 -59 -23 -59 -66v-28h117v-114h-117v-432h-167v432h-185v-432h-167zM253 546h185v38c0 16 1 31 3 45c-40 8 -71 11 -129 11
c-41 0 -59 -23 -59 -66v-28z" />
    <glyph glyph-name="f_f_i.alt" horiz-adv-x="1031" 
d="M86 0v431h-80v115h81v28c0 169 106 208 220 208c92 0 173 -19 213 -34c41 26 92 37 146 37c44 0 77 -5 120 -6c39 0 109 3 151 8l26 -126c-60 -20 -132 -26 -172 -26c-41 -1 -69 5 -127 5c-39 0 -59 -11 -59 -65v-29h352v-546h-167v431h-185v-431h-167v431h-185v-431
h-167zM253 546h186v29c0 19 1 37 4 53c-41 9 -72 12 -131 12c-41 0 -59 -23 -59 -66v-28z" />
    <glyph glyph-name="f_f_l.alt" horiz-adv-x="1025" 
d="M86 0v432h-80v114h81v28c0 169 106 208 220 208c92 0 173 -19 213 -34c41 26 92 37 146 37c44 0 77 -5 120 -6c57 -1 114 4 171 11v-790h-167v635c-40 0 -68 5 -126 5c-39 0 -59 -11 -59 -65v-29h116v-114h-116v-432h-167v432h-185v-432h-167zM253 546h186v29
c0 19 1 37 4 53c-41 9 -72 12 -131 12c-41 0 -59 -23 -59 -66v-28z" />
    <glyph glyph-name="f_f_j.alt" horiz-adv-x="1031" 
d="M735 -220c-39 0 -76 7 -109 19l31 129s42 -7 73 -7c42 0 59 14 60 79v431h-185v-431h-167v431h-185v-431h-167v431h-80v115h81v28c0 169 106 208 220 208c92 0 173 -19 213 -34c41 26 92 37 146 37c44 0 77 -5 120 -6c39 0 109 3 151 8l26 -126
c-60 -20 -132 -26 -172 -26c-41 -1 -69 5 -127 5c-39 0 -59 -11 -59 -65v-29h352l-1 -546c-1 -188 -106 -220 -221 -220zM253 546h186v29c0 19 1 37 4 53c-41 9 -72 12 -131 12c-41 0 -59 -23 -59 -66v-28z" />
    <glyph glyph-name="Acute" horiz-adv-x="750" 
d="M249 744l-23 113l271 67l27 -131z" />
    <glyph glyph-name="Breve" horiz-adv-x="500" 
d="M252 753c-109 0 -171 63 -201 111l86 74c36 -34 76 -62 119 -62c42 0 80 27 114 62l81 -73c-32 -47 -95 -112 -199 -112z" />
    <glyph glyph-name="Caron" horiz-adv-x="569" 
d="M476 837l-192 -97l-191 97l58 106l133 -60l133 60z" />
    <glyph glyph-name="Circumflex" horiz-adv-x="569" 
d="M151 741l-58 107l191 96l192 -96l-59 -107l-133 61z" />
    <glyph glyph-name="Dieresis" horiz-adv-x="326" 
d="M42 737l-99 100l99 100l100 -100zM286 737l-100 100l100 100l99 -100z" />
    <glyph glyph-name="Dotaccent" horiz-adv-x="300" 
d="M244 849l-94 -94l-94 94l94 94z" />
    <glyph glyph-name="Hungarumlaut" horiz-adv-x="905" 
d="M454 889l-234 -154l-67 96l223 167zM752 787l-276 -49l-23 114l271 66z" />
    <glyph glyph-name="Grave" horiz-adv-x="750" 
d="M501 744l-275 49l27 131l271 -67z" />
    <glyph glyph-name="Macron" horiz-adv-x="556" 
d="M110 765v129h328v-129h-328z" />
    <glyph glyph-name="Tilde" horiz-adv-x="785" 
d="M450 755c-51 0 -89 38 -128 38c-19 0 -40 -2 -70 -28l-63 74c24 29 77 82 144 82c63 0 89 -38 123 -38c32 0 51 7 87 26l55 -74c-23 -25 -73 -80 -148 -80z" />
    <glyph glyph-name="commaaccent" horiz-adv-x="266" 
d="M206 -58l-45 -220h-116l21 220h140z" />
    <glyph glyph-name="zero.opencirc" horiz-adv-x="840" 
d="M420 -5c-199 0 -360 161 -360 359c0 199 161 359 360 359c198 0 360 -160 360 -359c0 -198 -162 -359 -360 -359zM420 72c156 0 282 126 282 282s-126 282 -282 282s-282 -126 -282 -282s126 -282 282 -282zM415 167c-135 0 -169 93 -169 183c0 89 35 193 178 193
c144 0 166 -107 166 -182c0 -101 -42 -194 -175 -194zM418 253c43 0 50 46 50 104c0 48 -7 90 -48 90c-45 0 -52 -41 -52 -95c0 -65 13 -99 50 -99z" />
    <glyph glyph-name="zero.closecirc" horiz-adv-x="840" 
d="M420 -5c-199 0 -360 161 -360 359c0 199 161 359 360 359c198 0 360 -160 360 -359c0 -198 -162 -359 -360 -359zM415 167c133 0 175 93 175 194c0 75 -22 182 -166 182c-143 0 -178 -104 -178 -193c0 -90 34 -183 169 -183zM418 253c-37 0 -50 34 -50 99
c0 54 7 95 52 95c41 0 48 -42 48 -90c0 -58 -7 -104 -50 -104z" />
    <glyph glyph-name="zero.closecirc_fina" 
d="M130 228c97 0 117 68 117 141c0 55 -5 133 -111 133c-104 0 -119 -76 -119 -141s14 -133 113 -133zM132 291c-27 0 -33 24 -33 72c0 39 2 69 34 69c30 0 33 -30 33 -66c0 -42 -3 -75 -34 -75zM0 -5v718c199 0 360 -160 360 -359c0 -198 -161 -359 -360 -359z" />
    <glyph glyph-name="one.closecirc_fina" 
d="M0 -5v718c199 0 360 -160 360 -359c0 -198 -161 -359 -360 -359zM92 229h89v269l-142 -3v-68h53v-198z" />
    <glyph glyph-name="two.closecirc_fina" 
d="M19 229h206v70h-102c58 29 100 70 100 114c0 46 -35 89 -102 89c-47 0 -72 -13 -98 -33l28 -58c15 9 32 16 53 16c17 0 30 -11 30 -24c0 -29 -59 -81 -115 -119v-55zM0 -5v718c199 0 360 -160 360 -359c0 -198 -161 -359 -360 -359z" />
    <glyph glyph-name="three.closecirc_fina" 
d="M109 225c65 0 116 22 116 87c0 34 -18 53 -43 63c19 9 30 31 30 52c0 53 -38 75 -101 75c-28 0 -59 -6 -83 -18l19 -59c19 9 33 12 56 12c16 0 22 -12 22 -18c0 -17 -4 -27 -48 -32v-37c43 0 60 -7 60 -28c0 -14 -7 -28 -36 -28c-23 0 -41 1 -66 7l-13 -64
c22 -6 44 -12 87 -12zM0 -5v718c199 0 360 -160 360 -359c0 -198 -161 -359 -360 -359z" />
    <glyph glyph-name="four.closecirc_fina" 
d="M123 229h79v58h37v61h-37v150h-120l-73 -149v-62h114v-58zM0 -5v718c199 0 360 -160 360 -359c0 -198 -161 -359 -360 -359zM66 348l57 104v-104h-57z" />
    <glyph glyph-name="five.closecirc_fina" 
d="M102 224c63 0 117 34 117 96c0 67 -44 84 -107 84h-6v26h98v68h-175v-157c28 3 47 2 63 2c20 0 40 -8 40 -31c0 -16 -8 -32 -32 -32s-44 6 -70 13l-14 -57c22 -4 49 -12 86 -12zM0 -5v718c199 0 360 -160 360 -359c0 -198 -161 -359 -360 -359z" />
    <glyph glyph-name="six.closecirc_fina" 
d="M128 227c60 0 114 24 114 100c0 58 -42 73 -94 73c-17 0 -34 -6 -51 -16c7 32 29 50 54 50c19 0 37 -2 55 -7l21 65c-32 9 -57 12 -81 12c-76 0 -136 -50 -136 -153c0 -96 42 -124 118 -124zM130 289c-26 0 -32 18 -32 57c11 2 18 5 29 5c15 0 27 -5 27 -28
c0 -18 -11 -34 -24 -34zM0 -5v718c199 0 360 -160 360 -359c0 -198 -161 -359 -360 -359z" />
    <glyph glyph-name="seven.closecirc_fina" 
d="M108 224l114 206v68h-198v-79h117l-118 -178zM0 -5v718c199 0 360 -160 360 -359c0 -198 -161 -359 -360 -359z" />
    <glyph glyph-name="eight.closecirc_fina" 
d="M126 228c72 0 115 32 115 82c0 29 -23 54 -45 65c19 12 38 32 38 58c0 45 -48 71 -104 71c-55 0 -107 -19 -107 -75c0 -24 15 -45 34 -58c-22 -12 -45 -33 -45 -66c0 -59 46 -77 114 -77zM128 286c-22 0 -29 14 -29 25c0 13 3 26 11 32c24 -10 43 -21 43 -32
c0 -9 -4 -25 -25 -25zM136 401c-13 6 -30 12 -30 26c0 9 5 19 22 19c14 0 19 -11 19 -19c0 -14 -2 -16 -11 -26zM0 -5v718c199 0 360 -160 360 -359c0 -198 -161 -359 -360 -359z" />
    <glyph glyph-name="nine.closecirc_fina" 
d="M111 227c76 0 136 51 136 154c0 95 -42 123 -118 123c-60 0 -114 -24 -114 -99c0 -59 42 -73 94 -73c17 0 34 6 51 16c-7 -33 -29 -51 -54 -51c-19 0 -37 2 -55 7l-21 -64c32 -10 57 -13 81 -13zM130 381c-15 0 -27 5 -27 27c0 23 11 34 24 34c24 0 31 -19 32 -56
c-11 -3 -18 -5 -29 -5zM0 -5v718c199 0 360 -160 360 -359c0 -198 -161 -359 -360 -359z" />
    <glyph glyph-name="zero.closecirc_init" 
d="M286 228c97 0 117 68 117 141c0 55 -5 133 -111 133c-104 0 -119 -76 -119 -141s14 -133 113 -133zM288 291c-27 0 -33 24 -33 72c0 39 2 69 34 69c30 0 33 -30 33 -66c0 -42 -3 -75 -34 -75zM420 -5c-199 0 -360 161 -360 359c0 199 161 359 360 359v-718z" />
    <glyph glyph-name="one.closecirc_init" 
d="M420 -5c-199 0 -360 161 -360 359c0 199 161 359 360 359v-718zM281 229h89v269l-142 -3v-68h53v-198z" />
    <glyph glyph-name="two.closecirc_init" 
d="M203 229h206v70h-102c58 29 100 70 100 114c0 46 -35 89 -102 89c-47 0 -72 -13 -98 -33l28 -58c15 9 32 16 53 16c17 0 30 -11 30 -24c0 -29 -59 -81 -115 -119v-55zM420 -5c-199 0 -360 161 -360 359c0 199 161 359 360 359v-718z" />
    <glyph glyph-name="three.closecirc_init" 
d="M290 225c65 0 116 22 116 87c0 34 -18 53 -43 63c19 9 30 31 30 52c0 53 -38 75 -101 75c-28 0 -59 -6 -83 -18l19 -59c19 9 33 12 56 12c16 0 22 -12 22 -18c0 -17 -4 -27 -48 -32v-37c43 0 60 -7 60 -28c0 -14 -7 -28 -36 -28c-23 0 -41 1 -66 7l-13 -64
c22 -6 44 -12 87 -12zM420 -5c-199 0 -360 161 -360 359c0 199 161 359 360 359v-718z" />
    <glyph glyph-name="four.closecirc_init" 
d="M294 229h79v58h37v61h-37v150h-120l-73 -149v-62h114v-58zM420 -5c-199 0 -360 161 -360 359c0 199 161 359 360 359v-718zM237 348l57 104v-104h-57z" />
    <glyph glyph-name="five.closecirc_init" 
d="M287 224c63 0 117 34 117 96c0 67 -44 84 -107 84h-6v26h98v68h-175v-157c28 3 47 2 63 2c20 0 40 -8 40 -31c0 -16 -8 -32 -32 -32s-44 6 -70 13l-14 -57c22 -4 49 -12 86 -12zM420 -5c-199 0 -360 161 -360 359c0 199 161 359 360 359v-718z" />
    <glyph glyph-name="six.closecirc_init" 
d="M296 227c60 0 114 24 114 100c0 58 -42 73 -94 73c-17 0 -34 -6 -51 -16c7 32 29 50 54 50c19 0 37 -2 55 -7l21 65c-32 9 -57 12 -81 12c-76 0 -136 -50 -136 -153c0 -96 42 -124 118 -124zM298 289c-26 0 -32 18 -32 57c11 2 18 5 29 5c15 0 27 -5 27 -28
c0 -18 -11 -34 -24 -34zM420 -5c-199 0 -360 161 -360 359c0 199 161 359 360 359v-718z" />
    <glyph glyph-name="seven.closecirc_init" 
d="M420 -5c-199 0 -360 161 -360 359c0 199 161 359 360 359v-718zM299 224l114 206v68h-198v-79h117l-118 -178z" />
    <glyph glyph-name="eight.closecirc_init" 
d="M296 228c72 0 115 32 115 82c0 29 -23 54 -45 65c19 12 38 32 38 58c0 45 -48 71 -104 71c-55 0 -107 -19 -107 -75c0 -24 15 -45 34 -58c-22 -12 -45 -33 -45 -66c0 -59 46 -77 114 -77zM298 286c-22 0 -29 14 -29 25c0 13 3 26 11 32c24 -10 43 -21 43 -32
c0 -9 -4 -25 -25 -25zM306 401c-13 6 -30 12 -30 26c0 9 5 19 22 19c14 0 19 -11 19 -19c0 -14 -2 -16 -11 -26zM420 -5c-199 0 -360 161 -360 359c0 199 161 359 360 359v-718z" />
    <glyph glyph-name="nine.closecirc_init" 
d="M274 227c76 0 136 51 136 154c0 95 -42 123 -118 123c-60 0 -114 -24 -114 -99c0 -59 42 -73 94 -73c17 0 34 6 51 16c-7 -33 -29 -51 -54 -51c-19 0 -37 2 -55 7l-21 -64c32 -10 57 -13 81 -13zM293 381c-15 0 -27 5 -27 27c0 23 11 34 24 34c24 0 31 -19 32 -56
c-11 -3 -18 -5 -29 -5zM420 -5c-199 0 -360 161 -360 359c0 199 161 359 360 359v-718z" />
    <glyph glyph-name="zero.closecirc_medi" horiz-adv-x="230" 
d="M113 228c97 0 115 68 115 141c0 55 -3 133 -109 133c-104 0 -117 -76 -117 -141s12 -133 111 -133zM115 286c-27 0 -33 29 -33 77c0 39 2 75 34 75c30 0 33 -36 33 -72c0 -42 -3 -80 -34 -80zM0 -5v718h230v-718h-230z" />
    <glyph glyph-name="one.closecirc_medi" horiz-adv-x="230" 
d="M92 229h89v269l-142 -3v-68h53v-198zM0 -5v718h230v-718h-230z" />
    <glyph glyph-name="two.closecirc_medi" horiz-adv-x="230" 
d="M11 229h206v70h-102c58 29 100 70 100 114c0 46 -35 89 -102 89c-47 0 -72 -13 -98 -33l28 -58c15 9 32 16 53 16c17 0 30 -11 30 -24c0 -29 -59 -81 -115 -119v-55zM0 -5v718h230v-718h-230z" />
    <glyph glyph-name="three.closecirc_medi" horiz-adv-x="230" 
d="M100 225c65 0 116 22 116 87c0 34 -18 53 -43 63c19 9 30 31 30 52c0 53 -38 75 -101 75c-28 0 -59 -6 -83 -18l19 -59c19 9 33 12 56 12c16 0 22 -12 22 -18c0 -17 -4 -27 -48 -32v-37c43 0 60 -7 60 -28c0 -14 -7 -28 -36 -28c-23 0 -41 1 -66 7l-13 -64
c22 -6 44 -12 87 -12zM0 -5v718h230v-718h-230z" />
    <glyph glyph-name="four.closecirc_medi" horiz-adv-x="230" 
d="M114 229h79v58h33v61h-33v150h-120l-69 -149v-62h110v-58zM0 -5v718h230v-718h-230zM57 348l57 104v-104h-57z" />
    <glyph glyph-name="five.closecirc_medi" horiz-adv-x="230" 
d="M99 224c63 0 117 34 117 96c0 67 -44 84 -107 84h-6v26h98v68h-175v-157c28 3 47 2 63 2c20 0 40 -8 40 -31c0 -16 -8 -32 -32 -32s-44 6 -70 13l-14 -57c22 -4 49 -12 86 -12zM0 -5v718h230v-718h-230z" />
    <glyph glyph-name="six.closecirc_medi" horiz-adv-x="230" 
d="M117 227c60 0 110 24 110 100c0 58 -38 73 -90 73c-17 0 -34 -6 -51 -16c7 32 29 50 54 50c19 0 37 -2 55 -7l21 65c-32 9 -57 12 -81 12c-76 0 -131 -50 -131 -153c0 -96 37 -124 113 -124zM119 289c-26 0 -32 18 -32 57c11 2 18 5 29 5c15 0 27 -5 27 -28
c0 -18 -11 -34 -24 -34zM0 -5v718h230v-718h-230z" />
    <glyph glyph-name="seven.closecirc_medi" horiz-adv-x="230" 
d="M100 224l114 206v68h-198v-79h117l-118 -178zM0 -5v718h230v-718h-230z" />
    <glyph glyph-name="eight.closecirc_medi" horiz-adv-x="230" 
d="M114 228c72 0 112 32 112 82c0 29 -20 54 -42 65c19 12 38 32 38 58c0 45 -48 71 -104 71c-55 0 -107 -19 -107 -75c0 -24 15 -45 34 -58c-22 -12 -41 -33 -41 -66c0 -59 42 -77 110 -77zM116 286c-22 0 -29 14 -29 25c0 13 3 26 11 32c24 -10 43 -21 43 -32
c0 -9 -4 -25 -25 -25zM124 401c-13 6 -30 12 -30 26c0 9 5 19 22 19c14 0 19 -11 19 -19c0 -14 -2 -16 -11 -26zM0 -5v718h230v-718h-230z" />
    <glyph glyph-name="nine.closecirc_medi" horiz-adv-x="230" 
d="M95 227c76 0 132 51 132 154c0 95 -38 123 -114 123c-60 0 -110 -24 -110 -99c0 -59 38 -73 90 -73c17 0 34 6 51 16c-7 -33 -29 -51 -54 -51c-19 0 -37 2 -55 7l-21 -64c32 -10 57 -13 81 -13zM114 381c-15 0 -27 5 -27 27c0 23 11 34 24 34c24 0 31 -19 32 -56
c-11 -3 -18 -5 -29 -5zM0 -5v718h230v-718h-230z" />
    <glyph glyph-name="zero.opencirc_fina" 
d="M0 -5v77c156 0 282 126 282 282s-126 282 -282 282v77c199 0 360 -160 360 -359c0 -198 -161 -359 -360 -359zM130 228c-99 0 -113 68 -113 133s15 141 119 141c106 0 111 -78 111 -133c0 -73 -20 -141 -117 -141zM132 291c31 0 34 33 34 75c0 36 -3 66 -33 66
c-32 0 -34 -30 -34 -69c0 -48 6 -72 33 -72z" />
    <glyph glyph-name="one.opencirc_fina" 
d="M0 -5v77c156 0 282 126 282 282s-126 282 -282 282v77c199 0 360 -160 360 -359c0 -198 -161 -359 -360 -359zM92 229v198h-53v68l142 3v-269h-89z" />
    <glyph glyph-name="two.opencirc_fina" 
d="M19 229v55c56 38 115 90 115 119c0 13 -13 24 -30 24c-21 0 -38 -7 -53 -16l-28 58c26 20 51 33 98 33c67 0 102 -43 102 -89c0 -44 -42 -85 -100 -114h102v-70h-206zM0 -5v77c156 0 282 126 282 282s-126 282 -282 282v77c199 0 360 -160 360 -359
c0 -198 -161 -359 -360 -359z" />
    <glyph glyph-name="three.opencirc_fina" 
d="M109 225c-43 0 -65 6 -87 12l13 64c25 -6 43 -7 66 -7c29 0 36 14 36 28c0 21 -17 28 -60 28v37c44 5 48 15 48 32c0 6 -6 18 -22 18c-23 0 -37 -3 -56 -12l-19 59c24 12 55 18 83 18c63 0 101 -22 101 -75c0 -21 -11 -43 -30 -52c25 -10 43 -29 43 -63
c0 -65 -51 -87 -116 -87zM0 -5v77c156 0 282 126 282 282s-126 282 -282 282v77c199 0 360 -160 360 -359c0 -198 -161 -359 -360 -359z" />
    <glyph glyph-name="four.opencirc_fina" 
d="M0 -5v77c156 0 282 126 282 282s-126 282 -282 282v77c199 0 360 -160 360 -359c0 -198 -161 -359 -360 -359zM123 229v58h-114v62l73 149h120v-150h37v-61h-37v-58h-79zM66 348h57v104z" />
    <glyph glyph-name="five.opencirc_fina" 
d="M102 224c-37 0 -64 8 -86 12l14 57c26 -7 46 -13 70 -13s32 16 32 32c0 23 -20 31 -40 31c-16 0 -35 1 -63 -2v157h175v-68h-98v-26h6c63 0 107 -17 107 -84c0 -62 -54 -96 -117 -96zM0 -5v77c156 0 282 126 282 282s-126 282 -282 282v77c199 0 360 -160 360 -359
c0 -198 -161 -359 -360 -359z" />
    <glyph glyph-name="six.opencirc_fina" 
d="M128 227c-76 0 -118 28 -118 124c0 103 60 153 136 153c24 0 49 -3 81 -12l-21 -65c-18 5 -36 7 -55 7c-25 0 -47 -18 -54 -50c17 10 34 16 51 16c52 0 94 -15 94 -73c0 -76 -54 -100 -114 -100zM0 -5v77c156 0 282 126 282 282s-126 282 -282 282v77
c199 0 360 -160 360 -359c0 -198 -161 -359 -360 -359zM130 289c13 0 24 16 24 34c0 23 -12 28 -27 28c-11 0 -18 -3 -29 -5c0 -39 6 -57 32 -57z" />
    <glyph glyph-name="seven.opencirc_fina" 
d="M0 -5v77c156 0 282 126 282 282s-126 282 -282 282v77c199 0 360 -160 360 -359c0 -198 -161 -359 -360 -359zM108 224l-85 17l118 178h-117v79h198v-68z" />
    <glyph glyph-name="eight.opencirc_fina" 
d="M126 228c-68 0 -114 18 -114 77c0 33 23 54 45 66c-19 13 -34 34 -34 58c0 56 52 75 107 75c56 0 104 -26 104 -71c0 -26 -19 -46 -38 -58c22 -11 45 -36 45 -65c0 -50 -43 -82 -115 -82zM0 -5v77c156 0 282 126 282 282s-126 282 -282 282v77c199 0 360 -160 360 -359
c0 -198 -161 -359 -360 -359zM128 286c21 0 25 16 25 25c0 11 -19 22 -43 32c-8 -6 -11 -19 -11 -32c0 -11 7 -25 29 -25zM136 401c9 10 11 12 11 26c0 8 -5 19 -19 19c-17 0 -22 -10 -22 -19c0 -14 17 -20 30 -26z" />
    <glyph glyph-name="nine.opencirc_fina" 
d="M111 227c-24 0 -49 3 -81 13l21 64c18 -5 36 -7 55 -7c25 0 47 18 54 51c-17 -10 -34 -16 -51 -16c-52 0 -94 14 -94 73c0 75 54 99 114 99c76 0 118 -28 118 -123c0 -103 -60 -154 -136 -154zM0 -5v77c156 0 282 126 282 282s-126 282 -282 282v77
c199 0 360 -160 360 -359c0 -198 -161 -359 -360 -359zM130 381c11 0 18 2 29 5c-1 37 -8 56 -32 56c-13 0 -24 -11 -24 -34c0 -22 12 -27 27 -27z" />
    <glyph glyph-name="zero.opencirc_init" 
d="M420 -5c-199 0 -360 161 -360 359c0 199 161 359 360 359v-77c-156 0 -282 -126 -282 -282s126 -282 282 -282v-77zM286 228c-99 0 -113 68 -113 133s15 141 119 141c106 0 111 -78 111 -133c0 -73 -20 -141 -117 -141zM288 291c31 0 34 33 34 75c0 36 -3 66 -33 66
c-32 0 -34 -30 -34 -69c0 -48 6 -72 33 -72z" />
    <glyph glyph-name="one.opencirc_init" 
d="M420 -5c-199 0 -360 161 -360 359c0 199 161 359 360 359v-77c-156 0 -282 -126 -282 -282s126 -282 282 -282v-77zM281 229v198h-53v68l142 3v-269h-89z" />
    <glyph glyph-name="two.opencirc_init" 
d="M203 229v55c56 38 115 90 115 119c0 13 -13 24 -30 24c-21 0 -38 -7 -53 -16l-28 58c26 20 51 33 98 33c67 0 102 -43 102 -89c0 -44 -42 -85 -100 -114h102v-70h-206zM420 -5c-199 0 -360 161 -360 359c0 199 161 359 360 359v-77c-156 0 -282 -126 -282 -282
s126 -282 282 -282v-77z" />
    <glyph glyph-name="three.opencirc_init" 
d="M290 225c-43 0 -65 6 -87 12l13 64c25 -6 43 -7 66 -7c29 0 36 14 36 28c0 21 -17 28 -60 28v37c44 5 48 15 48 32c0 6 -6 18 -22 18c-23 0 -37 -3 -56 -12l-19 59c24 12 55 18 83 18c63 0 101 -22 101 -75c0 -21 -11 -43 -30 -52c25 -10 43 -29 43 -63
c0 -65 -51 -87 -116 -87zM420 -5c-199 0 -360 161 -360 359c0 199 161 359 360 359v-77c-156 0 -282 -126 -282 -282s126 -282 282 -282v-77z" />
    <glyph glyph-name="four.opencirc_init" 
d="M420 -5c-199 0 -360 161 -360 359c0 199 161 359 360 359v-77c-156 0 -282 -126 -282 -282s126 -282 282 -282v-77zM294 229v58h-114v62l73 149h120v-150h37v-61h-37v-58h-79zM237 348h57v104z" />
    <glyph glyph-name="five.opencirc_init" 
d="M287 224c-37 0 -64 8 -86 12l14 57c26 -7 46 -13 70 -13s32 16 32 32c0 23 -20 31 -40 31c-16 0 -35 1 -63 -2v157h175v-68h-98v-26h6c63 0 107 -17 107 -84c0 -62 -54 -96 -117 -96zM420 -5c-199 0 -360 161 -360 359c0 199 161 359 360 359v-77
c-156 0 -282 -126 -282 -282s126 -282 282 -282v-77z" />
    <glyph glyph-name="six.opencirc_init" 
d="M296 227c-76 0 -118 28 -118 124c0 103 60 153 136 153c24 0 49 -3 81 -12l-21 -65c-18 5 -36 7 -55 7c-25 0 -47 -18 -54 -50c17 10 34 16 51 16c52 0 94 -15 94 -73c0 -76 -54 -100 -114 -100zM420 -5c-199 0 -360 161 -360 359c0 199 161 359 360 359v-77
c-156 0 -282 -126 -282 -282s126 -282 282 -282v-77zM298 289c13 0 24 16 24 34c0 23 -12 28 -27 28c-11 0 -18 -3 -29 -5c0 -39 6 -57 32 -57z" />
    <glyph glyph-name="seven.opencirc_init" 
d="M420 -5c-199 0 -360 161 -360 359c0 199 161 359 360 359v-77c-156 0 -282 -126 -282 -282s126 -282 282 -282v-77zM299 224l-85 17l118 178h-117v79h198v-68z" />
    <glyph glyph-name="eight.opencirc_init" 
d="M296 228c-68 0 -114 18 -114 77c0 33 23 54 45 66c-19 13 -34 34 -34 58c0 56 52 75 107 75c56 0 104 -26 104 -71c0 -26 -19 -46 -38 -58c22 -11 45 -36 45 -65c0 -50 -43 -82 -115 -82zM420 -5c-199 0 -360 161 -360 359c0 199 161 359 360 359v-77
c-156 0 -282 -126 -282 -282s126 -282 282 -282v-77zM298 286c21 0 25 16 25 25c0 11 -19 22 -43 32c-8 -6 -11 -19 -11 -32c0 -11 7 -25 29 -25zM306 401c9 10 11 12 11 26c0 8 -5 19 -19 19c-17 0 -22 -10 -22 -19c0 -14 17 -20 30 -26z" />
    <glyph glyph-name="nine.opencirc_init" 
d="M274 227c-24 0 -49 3 -81 13l21 64c18 -5 36 -7 55 -7c25 0 47 18 54 51c-17 -10 -34 -16 -51 -16c-52 0 -94 14 -94 73c0 75 54 99 114 99c76 0 118 -28 118 -123c0 -103 -60 -154 -136 -154zM420 -5c-199 0 -360 161 -360 359c0 199 161 359 360 359v-77
c-156 0 -282 -126 -282 -282s126 -282 282 -282v-77zM293 381c11 0 18 2 29 5c-1 37 -8 56 -32 56c-13 0 -24 -11 -24 -34c0 -22 12 -27 27 -27z" />
    <glyph glyph-name="zero.opencirc_medi" horiz-adv-x="230" 
d="M113 228c-99 0 -113 68 -113 133s15 141 119 141c106 0 111 -78 111 -133c0 -73 -20 -141 -117 -141zM115 291c31 0 34 33 34 75c0 36 -3 66 -33 66c-32 0 -34 -30 -34 -69c0 -48 6 -72 33 -72zM0 -5v77h230v-77h-230zM0 636v77h230v-77h-230z" />
    <glyph glyph-name="one.opencirc_medi" horiz-adv-x="230" 
d="M92 229v198h-53v68l142 3v-269h-89zM0 -5v77h230v-77h-230zM0 636v77h230v-77h-230z" />
    <glyph glyph-name="two.opencirc_medi" horiz-adv-x="230" 
d="M11 229v55c56 38 115 90 115 119c0 13 -13 24 -30 24c-21 0 -38 -7 -53 -16l-28 58c26 20 51 33 98 33c67 0 102 -43 102 -89c0 -44 -42 -85 -100 -114h102v-70h-206zM0 -5v77h230v-77h-230zM0 636v77h230v-77h-230z" />
    <glyph glyph-name="three.opencirc_medi" horiz-adv-x="230" 
d="M100 225c-43 0 -65 6 -87 12l13 64c25 -6 43 -7 66 -7c29 0 36 14 36 28c0 21 -17 28 -60 28v37c44 5 48 15 48 32c0 6 -6 18 -22 18c-23 0 -37 -3 -56 -12l-19 59c24 12 55 18 83 18c63 0 101 -22 101 -75c0 -21 -11 -43 -30 -52c25 -10 43 -29 43 -63
c0 -65 -51 -87 -116 -87zM0 -5v77h230v-77h-230zM0 636v77h230v-77h-230z" />
    <glyph glyph-name="four.opencirc_medi" horiz-adv-x="230" 
d="M114 229v58h-114v62l73 149h120v-150h37v-61h-37v-58h-79zM0 -5v77h230v-77h-230zM0 636v77h230v-77h-230zM57 348h57v104z" />
    <glyph glyph-name="five.opencirc_medi" horiz-adv-x="230" 
d="M99 224c-37 0 -64 8 -86 12l14 57c26 -7 46 -13 70 -13s32 16 32 32c0 23 -20 31 -40 31c-16 0 -35 1 -63 -2v157h175v-68h-98v-26h6c63 0 107 -17 107 -84c0 -62 -54 -96 -117 -96zM0 -5v77h230v-77h-230zM0 636v77h230v-77h-230z" />
    <glyph glyph-name="six.opencirc_medi" horiz-adv-x="230" 
d="M117 227c-76 0 -118 28 -118 124c0 103 60 153 136 153c24 0 49 -3 81 -12l-21 -65c-18 5 -36 7 -55 7c-25 0 -47 -18 -54 -50c17 10 34 16 51 16c52 0 94 -15 94 -73c0 -76 -54 -100 -114 -100zM119 289c13 0 24 16 24 34c0 23 -12 28 -27 28c-11 0 -18 -3 -29 -5
c0 -39 6 -57 32 -57zM0 -5v77h230v-77h-230zM0 636v77h230v-77h-230z" />
    <glyph glyph-name="seven.opencirc_medi" horiz-adv-x="230" 
d="M100 224l-85 17l118 178h-117v79h198v-68zM0 -5v77h230v-77h-230zM0 636v77h230v-77h-230z" />
    <glyph glyph-name="eight.opencirc_medi" horiz-adv-x="230" 
d="M114 228c-68 0 -114 18 -114 77c0 33 23 54 45 66c-19 13 -34 34 -34 58c0 56 52 75 107 75c56 0 104 -26 104 -71c0 -26 -19 -46 -38 -58c22 -11 45 -36 45 -65c0 -50 -43 -82 -115 -82zM116 286c21 0 25 16 25 25c0 11 -19 22 -43 32c-8 -6 -11 -19 -11 -32
c0 -11 7 -25 29 -25zM124 401c9 10 11 12 11 26c0 8 -5 19 -19 19c-17 0 -22 -10 -22 -19c0 -14 17 -20 30 -26zM0 -5v77h230v-77h-230zM0 636v77h230v-77h-230z" />
    <glyph glyph-name="nine.opencirc_medi" horiz-adv-x="230" 
d="M95 227c-24 0 -49 3 -81 13l21 64c18 -5 36 -7 55 -7c25 0 47 18 54 51c-17 -10 -34 -16 -51 -16c-52 0 -94 14 -94 73c0 75 54 99 114 99c76 0 118 -28 118 -123c0 -103 -60 -154 -136 -154zM114 381c11 0 18 2 29 5c-1 37 -8 56 -32 56c-13 0 -24 -11 -24 -34
c0 -22 12 -27 27 -27zM0 -5v77h230v-77h-230zM0 636v77h230v-77h-230z" />
    <glyph glyph-name="zero.tnum_lnum_zero" horiz-adv-x="682" 
d="M335 -9c-231 0 -292 167 -292 352c0 180 64 370 309 370c246 0 287 -192 287 -350c0 -203 -76 -372 -304 -372zM340 128c131 0 130 124 130 230c0 49 0 108 -19 152l-181 -363c17 -12 40 -19 70 -19zM224 218l173 348c-14 6 -31 10 -51 10c-134 0 -134 -132 -134 -230
c0 -44 1 -90 12 -128z" />
    <glyph glyph-name="zero.pnum_lnum" horiz-adv-x="682" 
d="M639 363c0 -203 -76 -372 -304 -372c-231 0 -292 167 -292 352c0 180 64 370 309 370c246 0 287 -192 287 -350zM470 358c0 91 2 218 -124 218c-134 0 -134 -132 -134 -230c0 -104 9 -218 128 -218c131 0 130 124 130 230z" />
    <glyph glyph-name="one.pnum_lnum" horiz-adv-x="427" 
d="M327 0h-167v569h-142v131l309 9v-709z" />
    <glyph glyph-name="two.pnum_lnum" horiz-adv-x="553" 
d="M513 0h-495v113c76 71 305 278 305 374c0 68 -39 92 -96 92c-68 0 -100 -11 -139 -27l-50 116c51 28 95 47 205 47c208 0 247 -120 247 -220c0 -146 -148 -269 -260 -362h283v-133z" />
    <glyph glyph-name="three.pnum_lnum" horiz-adv-x="532" 
d="M489 206c0 -178 -137 -217 -276 -217c-129 0 -191 21 -191 21l30 134c43 -11 90 -15 151 -15c80 0 117 22 117 79c0 76 -34 92 -177 101v113c112 7 146 21 146 90c0 38 -23 67 -79 67c-66 0 -129 -18 -129 -18l-45 116c59 29 114 40 182 40c124 0 235 -56 235 -182
c0 -98 -53 -130 -91 -154c74 -30 127 -84 127 -175z" />
    <glyph glyph-name="four.pnum_lnum" horiz-adv-x="608" 
d="M570 144h-94v-144h-166v144h-304v128l240 435h230v-431h94v-132zM310 276v284l-145 -284h145z" />
    <glyph glyph-name="five.pnum_lnum" horiz-adv-x="585" 
d="M542 227c0 -153 -122 -238 -280 -238c-93 0 -152 9 -204 26l40 133c67 -16 107 -18 163 -18c73 0 114 36 114 87c0 69 -32 95 -99 95h-41c-36 0 -79 -1 -152 -8v403h421v-132h-260v-135c18 1 31 1 47 1c153 0 251 -75 251 -214z" />
    <glyph glyph-name="six.pnum_lnum" horiz-adv-x="622" 
d="M312 -12c-180 0 -281 97 -281 319c0 273 134 407 344 407c53 0 114 -9 154 -24l-37 -128c-35 9 -79 14 -119 14c-85 0 -135 -43 -159 -127c32 10 63 16 108 16c158 0 257 -62 257 -226c0 -161 -124 -251 -267 -251zM307 339c-44 0 -80 -8 -109 -17v-21
c0 -139 31 -179 121 -179c55 0 93 42 93 107c0 81 -42 110 -105 110z" />
    <glyph glyph-name="seven.pnum_lnum" horiz-adv-x="477" 
d="M477 598l-315 -626l-141 64l287 533h-308v138h477v-109z" />
    <glyph glyph-name="eight.pnum_lnum" horiz-adv-x="613" 
d="M303 -12c-146 0 -265 52 -265 190c0 99 60 154 130 192c-59 39 -105 88 -105 162c0 132 111 182 250 182c145 0 242 -73 242 -171c0 -82 -58 -132 -126 -171c76 -40 146 -91 146 -181c0 -143 -118 -203 -272 -203zM309 111c82 0 100 51 100 90c0 42 -52 72 -115 105
c-54 -29 -95 -61 -95 -105c0 -36 17 -90 110 -90zM303 429c12 6 24 12 34 19c31 18 51 40 51 70c0 47 -26 74 -77 74c-66 0 -86 -36 -86 -75c0 -37 32 -63 78 -88z" />
    <glyph glyph-name="nine.pnum_lnum" horiz-adv-x="622" 
d="M247 -9c-53 0 -114 9 -154 24l37 128c35 -9 79 -14 119 -14c86 0 137 48 160 137c-32 -10 -64 -16 -109 -16c-158 0 -257 56 -257 220c0 161 124 247 267 247c180 0 281 -97 281 -319c0 -273 -134 -407 -344 -407zM315 376c44 0 80 7 109 16v18c0 139 -31 173 -121 173
c-55 0 -93 -38 -93 -103c0 -81 42 -104 105 -104z" />
    <glyph glyph-name="zero.tnum_lnum" horiz-adv-x="600" 
d="M294 -9c-231 0 -267 167 -267 352c0 180 39 370 284 370c246 0 267 -192 267 -350c0 -203 -56 -372 -284 -372zM299 128c95 0 110 84 110 230c0 138 -11 218 -104 218c-91 0 -109 -84 -109 -230c0 -140 18 -218 103 -218z" />
    <glyph glyph-name="one.tnum_lnum" horiz-adv-x="600" 
d="M54 0v133h165v436h-164v131l331 9v-576h163v-133h-495z" />
    <glyph glyph-name="two.tnum_lnum" horiz-adv-x="600" 
d="M52 0v113c76 71 315 278 315 374c0 68 -49 92 -106 92c-68 0 -103 -17 -142 -33l-50 116c51 28 98 53 208 53c208 0 257 -120 257 -220c0 -146 -158 -269 -270 -362h293v-133h-505z" />
    <glyph glyph-name="three.tnum_lnum" horiz-adv-x="600" 
d="M257 -11c-129 0 -205 28 -205 28l30 134c43 -11 104 -22 165 -22c80 0 137 22 137 79c0 76 -61 100 -207 101v113c113 4 176 21 176 90c0 38 -43 67 -99 67c-66 0 -103 -10 -149 -24l-45 116c59 29 134 46 202 46c124 0 255 -56 255 -182c0 -98 -55 -128 -111 -154
c83 -27 147 -84 147 -175c0 -178 -157 -217 -296 -217z" />
    <glyph glyph-name="four.tnum_lnum" horiz-adv-x="600" 
d="M322 0v144h-304v128l240 435h230v-431h94v-132h-94v-144h-166zM177 276h145v284z" />
    <glyph glyph-name="five.tnum_lnum" horiz-adv-x="600" 
d="M262 -11c-93 0 -152 9 -204 26l40 133c67 -16 107 -18 163 -18c73 0 134 36 134 87c0 69 -52 95 -119 95h-41c-36 0 -79 -1 -152 -8v403h441v-132h-280v-135c18 1 31 1 47 1c153 0 271 -75 271 -214c0 -153 -142 -238 -300 -238z" />
    <glyph glyph-name="six.tnum_lnum" horiz-adv-x="600" 
d="M307 -12c-180 0 -281 97 -281 319c0 273 134 407 344 407c53 0 114 -9 154 -24l-37 -128c-35 9 -79 14 -119 14c-85 0 -135 -43 -159 -127c32 10 63 16 108 16c158 0 257 -62 257 -226c0 -161 -124 -251 -267 -251zM302 339c-44 0 -80 -8 -109 -17v-21
c0 -139 31 -179 121 -179c55 0 93 42 93 107c0 81 -42 110 -105 110z" />
    <glyph glyph-name="seven.tnum_lnum" horiz-adv-x="600" 
d="M233 -28l-141 64l297 533h-338v138h507v-109z" />
    <glyph glyph-name="eight.tnum_lnum" horiz-adv-x="600" 
d="M296 -12c-146 0 -265 52 -265 190c0 99 60 154 130 192c-59 39 -105 88 -105 162c0 132 111 182 250 182c145 0 242 -73 242 -171c0 -82 -58 -132 -126 -171c76 -40 146 -91 146 -181c0 -143 -118 -203 -272 -203zM302 111c82 0 100 51 100 90c0 42 -52 72 -115 105
c-54 -29 -95 -61 -95 -105c0 -36 17 -90 110 -90zM296 429c37 18 85 47 85 89c0 47 -26 74 -77 74c-66 0 -86 -36 -86 -75c0 -37 32 -63 78 -88z" />
    <glyph glyph-name="nine.tnum_lnum" horiz-adv-x="600" 
d="M230 -9c-53 0 -114 9 -154 24l37 128c35 -9 79 -14 119 -14c86 0 137 48 160 137c-32 -10 -64 -16 -109 -16c-158 0 -257 56 -257 220c0 161 124 247 267 247c180 0 281 -97 281 -319c0 -273 -134 -407 -344 -407zM298 376c44 0 80 7 109 16v18c0 139 -31 173 -121 173
c-55 0 -93 -38 -93 -103c0 -81 42 -104 105 -104z" />
    <glyph glyph-name="zero.zero" horiz-adv-x="682" 
d="M335 -12c-200 0 -292 93 -292 278c0 180 99 294 309 294c209 0 287 -116 287 -274c0 -203 -115 -298 -304 -298zM340 125c76 0 130 50 130 156c0 28 -4 53 -12 73l-188 -213c20 -11 44 -16 70 -16zM223 199l186 211c-17 8 -38 13 -63 13c-88 0 -134 -56 -134 -154
c0 -28 4 -51 11 -70z" />
    <glyph glyph-name="zero.tnum_onum" horiz-adv-x="600" 
d="M294 -12c-200 0 -282 93 -282 278c0 180 89 294 299 294c209 0 277 -116 277 -274c0 -203 -105 -298 -294 -298zM299 125c76 0 120 50 120 156c0 91 -29 142 -114 142c-88 0 -124 -56 -124 -154c0 -104 47 -144 118 -144z" />
    <glyph glyph-name="one.tnum_onum" horiz-adv-x="600" 
d="M54 0v133h165v287h-164v131l331 9v-427h163v-133h-495z" />
    <glyph glyph-name="two.tnum_onum" horiz-adv-x="600" 
d="M64 0v137c88 51 300 160 300 228c0 38 -33 60 -106 60c-60 0 -114 -18 -164 -39l-45 114c66 40 145 59 220 59c136 0 258 -65 258 -191c0 -121 -148 -197 -256 -235h284v-133h-491z" />
    <glyph glyph-name="three.tnum_onum" horiz-adv-x="600" 
d="M257 -167c-129 0 -205 28 -205 28l30 134c43 -11 104 -22 165 -22c80 0 137 22 137 79c0 76 -61 100 -207 101v113c113 4 176 21 176 90c0 38 -43 67 -99 67c-66 0 -103 -10 -149 -24l-45 116c59 29 134 46 202 46c143 0 255 -56 255 -182c0 -98 -62 -130 -111 -154
c74 -30 147 -84 147 -175c0 -178 -157 -217 -296 -217z" />
    <glyph glyph-name="four.tnum_onum" horiz-adv-x="600" 
d="M327 -163v193h-314v107l230 408h250v-383h94v-132h-94v-193h-166zM167 162h160v293z" />
    <glyph glyph-name="five.tnum_onum" horiz-adv-x="600" 
d="M262 -173c-93 0 -152 9 -204 26l40 133c67 -16 107 -18 163 -18c73 0 134 36 134 87c0 69 -52 95 -119 95h-41c-36 0 -79 -1 -152 -8v403h441v-132h-280v-135c18 1 31 1 47 1c153 0 271 -75 271 -214c0 -153 -142 -238 -300 -238z" />
    <glyph glyph-name="six.tnum_onum" horiz-adv-x="600" 
d="M307 -12c-180 0 -281 97 -281 319c0 273 134 407 344 407c53 0 114 -9 154 -24l-37 -128c-35 9 -79 14 -119 14c-85 0 -135 -43 -159 -127c32 10 63 16 108 16c158 0 257 -62 257 -226c0 -161 -124 -251 -267 -251zM302 339c-44 0 -80 -8 -109 -17v-21
c0 -139 31 -179 121 -179c55 0 93 42 93 107c0 81 -42 110 -105 110z" />
    <glyph glyph-name="seven.tnum_onum" horiz-adv-x="600" 
d="M243 -190l-146 47l292 540h-338v148h507v-109z" />
    <glyph glyph-name="eight.tnum_onum" horiz-adv-x="600" 
d="M296 -12c-146 0 -265 52 -265 190c0 99 60 154 130 192c-59 39 -105 88 -105 162c0 132 111 182 250 182c145 0 242 -73 242 -171c0 -82 -58 -132 -126 -171c76 -40 146 -91 146 -181c0 -143 -118 -203 -272 -203zM302 111c82 0 100 51 100 90c0 42 -52 72 -115 105
c-54 -29 -95 -61 -95 -105c0 -36 17 -90 110 -90zM296 429c49 24 85 49 85 89c0 47 -26 74 -77 74c-66 0 -86 -36 -86 -75c0 -37 32 -63 78 -88z" />
    <glyph glyph-name="nine.tnum_onum" horiz-adv-x="600" 
d="M230 -166c-53 0 -114 9 -154 24l37 128c35 -9 79 -14 119 -14c86 0 137 48 160 137c-32 -10 -64 -16 -109 -16c-158 0 -257 56 -257 220c0 161 124 247 267 247c180 0 281 -97 281 -319c0 -273 -134 -407 -344 -407zM298 219c44 0 80 7 109 16v18c0 139 -31 173 -121 173
c-55 0 -93 -38 -93 -103c0 -81 42 -104 105 -104z" />
    <glyph glyph-name="registered.alt" horiz-adv-x="654" 
d="M574 531c0 -147 -109 -229 -245 -229c-109 0 -249 57 -249 229c0 149 110 233 248 233c118 0 246 -63 246 -233zM518 531c0 128 -94 184 -189 184c-103 0 -194 -52 -194 -180c0 -158 134 -184 199 -184c104 0 184 63 184 180zM459 449l-8 -45c-32 1 -56 6 -80 26
c-20 16 -27 38 -44 71h-29v-91h-71v258l105 1c59 0 103 -28 103 -85c0 -29 -14 -54 -41 -70c5 -9 22 -35 30 -43s15 -13 35 -22zM368 584c0 25 -6 41 -37 41h-34v-86h31c34 0 40 21 40 45z" />
    <glyph glyph-name="copyright.pnum_lnum" horiz-adv-x="833" 
d="M432 145c-125 0 -200 87 -200 197c0 119 74 200 198 200c50 0 96 -8 129 -29l-28 -80c-41 14 -67 15 -99 15c-55 0 -98 -29 -98 -102c0 -71 45 -103 106 -103c42 0 59 1 93 13l27 -87c-41 -17 -70 -24 -128 -24zM408 -11c-219 0 -345 141 -345 357c0 224 148 353 364 353
c227 0 343 -148 343 -355c0 -218 -136 -355 -362 -355zM412 59c181 0 272 122 272 286c0 165 -97 284 -266 284c-175 0 -270 -119 -270 -282c0 -158 91 -288 264 -288z" />
    <glyph glyph-name="Euro.pnum_lnum" horiz-adv-x="714" 
d="M456 -10c-203 0 -321 78 -363 222h-93v104h77c-1 11 -1 22 -1 33c0 14 0 27 1 40h-77v102h93c41 150 157 224 359 224c105 0 157 -17 210 -41l-45 -123c-67 18 -85 23 -163 24c-81 1 -141 -26 -175 -84h224v-102h-253c-1 -9 -1 -19 -1 -30c0 -15 1 -29 2 -43h252v-104
h-214c37 -53 101 -80 185 -80c69 0 100 6 154 20l36 -128c-68 -25 -117 -34 -208 -34z" />
    </font>
</defs>
</svg>
